<?xml version="1.0" encoding="utf-8"?>
<!-- Generator: Adobe Illustrator 24.0.2, SVG Export Plug-In . SVG Version: 6.00 Build 0)  -->
<svg version="1.1" id="Слой_1" xmlns="http://www.w3.org/2000/svg" xmlns:xlink="http://www.w3.org/1999/xlink" x="0px" y="0px"
	 viewBox="0 0 157 46" style="enable-background:new 0 0 157 46;" xml:space="preserve">
<style type="text/css">
	.st0{fill:#28468C;}
</style>
<path class="st0" d="M13.4,28.5L13,31.8H8L6.7,43.4H3.7l1.7-14.9H13.4z"/>
<path class="st0" d="M36.2,28.5h-5.5L29,43.4h3.1l0.7-6.3h2.6c2,0,3.8-1.6,4-4C39.6,30.7,38.2,28.6,36.2,28.5z M35.1,34.1h-2.1
	l0.4-3h1.7c0.6,0,1,0.7,1,1.5C36.2,33.4,35.7,34.1,35.1,34.1z"/>
<path class="st0" d="M26.3,29.8c-0.3-0.3-0.6-0.5-0.9-0.7c-0.9-0.6-2-0.8-3.1-0.8c-0.3,0-0.7,0-1,0c-1.2,0.1-2.4,0.2-3.5,0.6
	c-1,0.4-1.9,1.1-2.6,1.8c-3.2,3.4-3.4,8.5-0.5,11.3l0.1,0.1c1.1,1,2.5,1.3,4,1.4c1.3,0.1,2.6,0.1,3.9-0.4c1.2-0.4,2.2-1.2,3.1-2.1
	C29.1,37.7,29.3,32.6,26.3,29.8z M23.9,39.2c-1.9,2.1-5,2.3-6.8,0.6c-1.8-1.7-1.7-4.8,0.3-6.8c1.9-2.1,5-2.3,6.8-0.6
	C26,34.1,25.9,37.2,23.9,39.2z"/>
<path class="st0" d="M71.4,29.8c-0.3-0.3-0.6-0.5-0.9-0.7c-0.9-0.6-2-0.8-3.1-0.8c-0.3,0-0.7,0-1,0c-1.2,0.1-2.4,0.2-3.5,0.6
	c-1,0.4-1.9,1.1-2.6,1.8c-3.2,3.4-3.4,8.5-0.5,11.3l0.1,0.1c1.1,1,2.5,1.3,4,1.4c1.3,0.1,2.6,0.1,3.9-0.4c1.2-0.4,2.2-1.2,3.1-2.1
	C74.1,37.7,74.3,32.6,71.4,29.8z M69,39.2c-1.9,2.1-5,2.3-6.8,0.6c-1.8-1.7-1.7-4.8,0.3-6.8c1.9-2.1,5-2.3,6.8-0.6
	C71,34.1,70.9,37.2,69,39.2z"/>
<path class="st0" d="M136.5,29.9c-0.3-0.3-0.6-0.5-0.9-0.7c-0.9-0.6-2-0.8-3.1-0.8c-0.3,0-0.7,0-1,0c-1.2,0.1-2.4,0.2-3.5,0.6
	c-1,0.4-1.9,1.1-2.6,1.8c-3.2,3.4-3.4,8.5-0.5,11.3l0.1,0.1c1.1,1,2.5,1.3,4,1.4c1.3,0.1,2.6,0.1,3.9-0.4c1.2-0.4,2.2-1.2,3.1-2.1
	C139.3,37.9,139.5,32.8,136.5,29.9z M134.1,39.3c-1.9,2.1-5,2.3-6.8,0.6c-1.8-1.7-1.7-4.8,0.3-6.8c1.9-2.1,5-2.3,6.8-0.6
	C136.2,34.2,136,37.3,134.1,39.3z"/>
<path class="st0" d="M86.7,43.4h-3.2l-2.8-10.1l-5.1,10.1h-3.5l7.3-14.6l0.2-0.3h3l0.2,0.6L86.7,43.4z"/>
<path class="st0" d="M107,28.5h-3l-7.5,14.9h3.5l1.6-3.3h5.3l0.9,3.3h2.9L107,28.5z M103.1,37.2l2-3.9l1.1,3.9H103.1z"/>
<path class="st0" d="M55.4,28.5v14.9h-2.6v-8.3l-4.3,8.3h-2l-2.3-9.1L42,43.4h-3l3.7-14.9h2.7l1.8,9.2h1l4.5-9.2H55.4z"/>
<path class="st0" d="M151.9,40.3l-3.1-11.2l-0.2-0.6h-3l-0.2,0.3l-5.8,11.5h-1.6l-0.6,5.1h3l0.3-2h9.5l-0.3,2h3.1l0.6-5.1H151.9z
	 M143.2,40.3l3.5-7.2l1.9,7.2H143.2z"/>
<path class="st0" d="M120.5,36.2c-0.3-0.2-0.5-0.4-0.7-0.6l0.1-0.4c0.9-0.6,1.6-1.6,1.7-2.7c0.1-1.2-0.3-2.3-1.2-3.1
	c-0.6-0.6-1.5-0.9-2.4-1h-1.2v0h-1.5H114h-0.4l-1.7,14.9h3v0h2.5c0,0,0,0,0.1,0c2,0.1,3.8-1.6,4-3.8
	C121.6,38.3,121.2,37.1,120.5,36.2z M117.5,40.4h-2.3l0.4-3.3h1.9c0.5,0,0.9,0.4,1,0.9c0.1,0.2,0.1,0.4,0.1,0.7
	C118.6,39.7,118.1,40.4,117.5,40.4z M117.5,34.2H116l0.3-2.7h1.2c0.6,0,1.2,0.6,1.2,1.4C118.7,33.6,118.2,34.2,117.5,34.2z"/>
<path class="st0" d="M89.9,36.9v-3h2c0.2-0.2,0.4-0.3,0.5-0.5c0.1-0.1,0.1-0.2,0.2-0.3c0.6-0.9,0.4-1.8-0.5-2.1
	c-0.6-0.2-1.5,0.1-2.1,0.7c-0.1,0.1-0.2,0.2-0.3,0.3l-1.6-2c0.4-0.4,0.9-0.8,1.4-1.1c1.5-0.9,3.2-1.1,4.6-0.7c2,0.6,2.9,3,1.3,5.5
	c-0.3,0.4-0.6,0.9-1,1.2c0.3,0.3,0.6,0.6,0.8,1c1.6,3,0.9,6-1.6,7.1c-1.6,0.6-4.1,0.5-5.8-0.5c-0.6-0.4-1.4-1-1.9-1.5l2.5-2.2
	c0.1,0.1,0.1,0.2,0.2,0.3c0.2,0.3,0.4,0.5,0.6,0.6c0.9,0.7,1.8,0.9,2.8,0.6c1.2-0.4,1.5-1.7,0.8-2.9c-0.2-0.3-0.4-0.5-0.7-0.8
	L89.9,36.9z"/>
<path class="st0" d="M155.4,24.7H1.6C0.7,24.7,0,24,0,23.1c0-0.9,0.7-1.6,1.6-1.6h153.8c0.9,0,1.6,0.7,1.6,1.6
	C157,24,156.3,24.7,155.4,24.7z"/>
<path class="st0" d="M39.5,9.7H37l0.3-2.6h4.9l0.4-3.3h-8L33,18.9h5.6c0,0,0,0,0.1,0c2,0.1,3.8-1.7,4-4.3
	C42.9,12.1,41.5,9.9,39.5,9.7z M38.5,15.7h-2.1l0.4-3.2h1.7c0.6,0,1,0.7,1,1.6C39.5,14.9,39,15.7,38.5,15.7z"/>
<path class="st0" d="M87.4,9.7H85l0.6-5.9h-3.1l-1.6,15.1h5.6c0,0,0,0,0.1,0c2,0.1,3.8-1.7,4-4.3C90.8,12.1,89.4,9.9,87.4,9.7z
	 M86.4,15.7h-2.1l0.4-3.2h1.7c0.6,0,1,0.7,1,1.6C87.4,14.9,86.9,15.7,86.4,15.7z"/>
<path class="st0" d="M12.9,3.8l-0.2,3.3H9.6L8.1,18.8H5L6.5,7.1h-3l0.2-3.3H12.9z"/>
<path class="st0" d="M27.7,5.1c-0.3-0.3-0.6-0.5-0.9-0.7c-0.9-0.6-2-0.8-3.1-0.8c-0.3,0-0.7,0-1,0c-1.2,0.1-2.4,0.2-3.5,0.6
	c-1,0.4-1.9,1.1-2.6,1.8c-3.2,3.4-3.4,8.5-0.5,11.3l0.1,0.1c1.1,1,2.5,1.3,4,1.4c1.3,0.1,2.6,0.1,3.9-0.4c1.2-0.4,2.2-1.2,3.1-2.1
	C30.5,13.1,30.7,8,27.7,5.1z M25.4,14.5c-1.9,2.1-5,2.3-6.8,0.6c-1.8-1.7-1.7-4.8,0.3-6.8c1.9-2.1,5-2.3,6.8-0.6
	C27.4,9.4,27.3,12.5,25.4,14.5z"/>
<path class="st0" d="M105.5,14.5l1.9,2c-0.9,0.9-1.9,1.6-3.1,2.1c-1.2,0.5-2.6,0.5-3.9,0.4c-1.4-0.1-2.9-0.4-4-1.4l-0.1-0.1
	c-3-2.9-2.8-7.9,0.5-11.3c0.7-0.8,1.6-1.4,2.6-1.8c1.1-0.5,2.3-0.6,3.5-0.6c0.3,0,0.7,0,1,0c1.1,0.1,2.1,0.3,3.1,0.8
	c0.3,0.2,0.6,0.4,0.9,0.7c0.3,0.3,0.6,0.6,0.8,0.9l-2.3,2.4c-0.2-0.3-0.4-0.5-0.6-0.7C104,6,100.9,6.3,99,8.4
	c-1.9,2.1-2.1,5.1-0.3,6.8C100.5,16.9,103.5,16.6,105.5,14.5C105.5,14.5,105.5,14.5,105.5,14.5z"/>
<path class="st0" d="M59.8,5.1c-0.3-0.3-0.6-0.5-0.9-0.7c-0.9-0.6-2-0.8-3.1-0.8c-0.3,0-0.7,0-1,0c-1.2,0.1-2.4,0.2-3.5,0.6
	c-1,0.4-1.9,1.1-2.6,1.8c-3.2,3.4-3.4,8.5-0.5,11.3l0.1,0.1c1.1,1,2.5,1.3,4,1.4c1.3,0.1,2.6,0.1,3.9-0.4c1.2-0.4,2.2-1.2,3.1-2.1
	C62.6,13.1,62.8,8,59.8,5.1z M57.4,14.5c-1.9,2.1-5,2.3-6.8,0.6c-1.8-1.7-1.7-4.8,0.3-6.8c1.9-2.1,5-2.3,6.8-0.6
	C59.5,9.4,59.3,12.5,57.4,14.5z"/>
<path class="st0" d="M118,10.2l4.2,8.6h-3.2l-3.5-7.2l-0.8,7.2h-3l1.6-15.1h3.1l-0.5,4.6l4.3-4.6h3.9L118,10.2z"/>
<path class="st0" d="M138.1,3.8l-1.6,15.1h-3l1.1-8.9l-6.2,8.6l-0.3,0.3h-2.6l1.9-15.1h2.8l-1.2,9.4l6.9-9.4H138.1z"/>
<path class="st0" d="M77.9,18.8h-3.3L71.8,8.6l-5.1,10.2h-3.5l7.4-14.8l0.2-0.3h3l0.2,0.6L77.9,18.8z"/>
<path class="st0" d="M153.8,3.8l-1.6,15.1h-3l1.1-8.9l-6.2,8.6l-0.2,0.3h-2.6l2-15.1h2.8l-1.2,9.4l6.9-9.4H153.8z"/>
<path class="st0" d="M153.5,0c-0.5,1.8-2.3,3.2-4.3,3.2c-2.1,0-3.8-1.4-4.3-3.2h2.6c0.5,0.5,1.1,0.8,1.8,0.8c0.7,0,1.3-0.3,1.8-0.8
	H153.5z"/>
</svg>
