<?xml version="1.0" encoding="utf-8"?>
<!-- Generator: Adobe Illustrator 24.0.2, SVG Export Plug-In . SVG Version: 6.00 Build 0)  -->
<svg version="1.1" id="Слой_1" xmlns="http://www.w3.org/2000/svg" xmlns:xlink="http://www.w3.org/1999/xlink" x="0px" y="0px"
	 viewBox="0 0 156 41" style="enable-background:new 0 0 156 41;" xml:space="preserve">
<style type="text/css">
	.st0{fill:#28468C;}
</style>
<g>
	<path class="st0" d="M5.6,35.5h17.1V40H0.8V1.2h4.8V35.5z"/>
	<path class="st0" d="M59,35c-3.8,3.8-8.7,5.7-14.5,5.7c-5.9,0-10.7-1.9-14.5-5.7c-3.8-3.8-5.8-8.6-5.8-14.3
		c0-5.7,1.9-10.5,5.8-14.3c3.8-3.8,8.7-5.7,14.5-5.7c5.8,0,10.7,1.9,14.5,5.7c3.8,3.8,5.8,8.6,5.8,14.3C64.7,26.4,62.8,31.2,59,35z
		 M33.5,31.5c2.9,2.9,6.6,4.4,11,4.4c4.4,0,8.1-1.4,11-4.3c2.9-2.9,4.3-6.5,4.3-10.9c0-4.4-1.4-8-4.3-10.9c-2.9-2.9-6.6-4.3-11-4.3
		c-4.4,0-8.1,1.5-11,4.4c-2.9,2.9-4.3,6.6-4.3,10.9C29.1,25,30.6,28.6,33.5,31.5z"/>
	<path class="st0" d="M88.3,20.8h20.8c-0.1,5.8-2,10.6-5.6,14.3c-3.6,3.7-8.2,5.6-13.8,5.6c-5.7,0-10.4-1.9-14.1-5.7
		c-3.7-3.8-5.6-8.6-5.6-14.4c0-5.8,1.9-10.5,5.6-14.3c3.7-3.8,8.4-5.7,14-5.7c3.1,0,6,0.6,8.7,1.8c2.7,1.2,4.9,2.9,6.7,5
		c1.8,2.1,3,4.6,3.5,7.3h-5c-0.6-1.8-1.5-3.5-2.8-4.9c-1.3-1.4-2.9-2.5-4.8-3.3c-1.9-0.8-3.9-1.2-6.1-1.2c-2.8,0-5.3,0.6-7.6,1.9
		c-2.2,1.3-4,3.1-5.2,5.4c-1.3,2.3-1.9,4.9-1.9,7.9c0,4.5,1.4,8.2,4.1,11c2.7,2.8,6.2,4.3,10.6,4.3c2.4,0,4.5-0.4,6.5-1.3
		c2-0.9,3.6-2.1,4.9-3.7c1.3-1.6,2.2-3.4,2.7-5.5H88.3V20.8z"/>
	<path class="st0" d="M149.1,35c-3.8,3.8-8.7,5.7-14.5,5.7c-5.9,0-10.7-1.9-14.5-5.7c-3.8-3.8-5.8-8.6-5.8-14.3
		c0-5.7,1.9-10.5,5.8-14.3c3.8-3.8,8.7-5.7,14.5-5.7c5.8,0,10.7,1.9,14.5,5.7c3.8,3.8,5.8,8.6,5.8,14.3
		C154.8,26.4,152.9,31.2,149.1,35z M123.6,31.5c2.9,2.9,6.6,4.4,11,4.4c4.4,0,8.1-1.4,11-4.3c2.9-2.9,4.3-6.5,4.3-10.9
		c0-4.4-1.4-8-4.3-10.9c-2.9-2.9-6.6-4.3-11-4.3c-4.4,0-8.1,1.5-11,4.4c-2.9,2.9-4.3,6.6-4.3,10.9C119.2,25,120.7,28.6,123.6,31.5z"
		/>
</g>
</svg>
