<?xml version="1.0" encoding="utf-8"?>
<!-- Generator: Adobe Illustrator 24.0.2, SVG Export Plug-In . SVG Version: 6.00 Build 0)  -->
<svg version="1.1" id="Слой_1" xmlns="http://www.w3.org/2000/svg" xmlns:xlink="http://www.w3.org/1999/xlink" x="0px" y="0px"
	 viewBox="0 0 205 41" style="enable-background:new 0 0 205 41;" xml:space="preserve">
<style type="text/css">
	.st0{fill:#28468C;}
</style>
<g>
	<g>
		<path class="st0" d="M108.5,17.9l7.3-8.4H75c-1.8-2.8-4.3-5-7.3-6.6c-2.9-1.6-6.2-2.4-9.5-2.4c-3.3,0-6.6,0.8-9.5,2.4
			c-2.9,1.6-5.4,3.8-7.3,6.6H0.8l7.3,8.4l30.4-1.7c-0.2,0.9-0.4,1.8-0.4,2.8L11,21.2l6.8,7.8l20.8-3.7c0.2,0.9,0.5,1.8,0.8,2.7
			l-19.2,3.9l6,7l16.5-5.1c1.9,2.3,4.3,4.1,6.9,5.3c2.7,1.2,5.6,1.9,8.5,1.9c3,0,5.9-0.7,8.5-1.9c2.7-1.3,5-3.1,6.9-5.3l16.6,5.1
			l6-7l-19.3-3.9c0.3-0.9,0.6-1.8,0.8-2.7L98.9,29l6.8-7.8l-27.2-2.2c-0.1-0.9-0.2-1.8-0.4-2.8L108.5,17.9z M42.5,20.7
			c0-0.4,0-0.9,0.1-1.3l10.8,2.4c0.3,1,0.9,1.8,1.7,2.4l0.7,12c-3.7-0.6-7.1-2.5-9.5-5.3C43.8,28.1,42.5,24.4,42.5,20.7z M43.7,14.7
			c1.2-2.9,3.2-5.4,5.8-7.1c2.6-1.7,5.6-2.7,8.8-2.7s6.2,0.9,8.8,2.7c2.6,1.7,4.6,4.2,5.8,7.1l-14.6,1.5L43.7,14.7z M60.7,36.3
			l0.7-12c0.8-0.6,1.4-1.5,1.7-2.4L74,19.4c0,0.4,0.1,0.9,0.1,1.3c0,3.7-1.3,7.4-3.8,10.2C67.8,33.8,64.4,35.7,60.7,36.3z"/>
		<path class="st0" d="M138.2,38.8h-4.4V20.3h15.7v18.5h-4.4V23.9h-7V38.8z"/>
		<path class="st0" d="M163.8,20.3l6.9,18.5h-4.6l-1.2-3.5h-6.7l-1.2,3.5h-4.6l6.9-18.5H163.8z M163.9,32.2l-2.4-7l-2.4,7H163.9z"/>
		<path class="st0" d="M169.8,23.9v-3.6h15.5v3.6h-5.6v14.9h-4.4V23.9H169.8z"/>
		<path class="st0" d="M192.8,38.8h-4.4V20.3h15.7v18.5h-4.4V23.9h-7L192.8,38.8z"/>
		<path class="st0" d="M133.8,10.3V9h5.5v1.3h-2v5.3h-1.6v-5.3H133.8z"/>
		<path class="st0" d="M140.2,12.3c0-0.5,0-0.9,0.2-1.3c0.1-0.4,0.4-0.8,0.7-1.2c0.3-0.3,0.7-0.6,1.1-0.8c0.4-0.2,0.9-0.2,1.3-0.2
			c2.3,0,3.3,1.5,3.3,3.5s-1.1,3.5-3.3,3.5c-0.5,0-0.9,0-1.3-0.2c-0.4-0.2-0.8-0.4-1.1-0.8c-0.3-0.3-0.6-0.7-0.7-1.2
			C140.2,13.2,140.1,12.7,140.2,12.3z M145.2,12.3c0-0.6-0.1-2.2-1.7-2.2c-0.9,0-1.6,0.5-1.6,2.2c0,1.7,0.8,2.2,1.6,2.2
			C145.1,14.5,145.2,12.8,145.2,12.3z"/>
		<path class="st0" d="M149.8,11.4h1.6c0.3,0,0.6,0,0.9,0.1c0.3,0.1,0.6,0.2,0.8,0.4c0.2,0.2,0.4,0.5,0.6,0.7
			c0.1,0.3,0.2,0.6,0.2,0.9c0,1.3-1,2-2.5,2h-3.1V9h5.1v1.3h-3.6V11.4z M149.8,14.3h1.3c0.6,0,1.2-0.1,1.2-0.7
			c0-0.8-0.8-0.8-1.1-0.8h-1.3V14.3z"/>
		<path class="st0" d="M154.9,12.3c0-0.5,0-0.9,0.2-1.3c0.1-0.4,0.4-0.8,0.7-1.2c0.3-0.3,0.7-0.6,1.1-0.8c0.4-0.2,0.9-0.2,1.3-0.2
			c2.3,0,3.3,1.5,3.3,3.5s-1.1,3.5-3.3,3.5c-0.5,0-0.9,0-1.3-0.2c-0.4-0.2-0.8-0.4-1.1-0.8c-0.3-0.3-0.6-0.7-0.7-1.2
			C155,13.2,154.9,12.7,154.9,12.3z M159.9,12.3c0-0.6-0.1-2.2-1.7-2.2c-0.9,0-1.6,0.5-1.6,2.2c0,1.7,0.8,2.2,1.6,2.2
			C159.9,14.5,159.9,12.8,159.9,12.3z"/>
		<path class="st0" d="M162.4,14.3c1.5,0.2,1.5-1.1,1.5-2.2l0-3.1h4.9v6.6h-1.6v-5.3h-1.9l0,2.3c0,1.3-0.2,3.4-3,3V14.3z"/>
		<path class="st0" d="M172.1,11.4h1.6c1.9,0,2.4,1.2,2.4,2.2c0,1.4-0.8,2-2.4,2h-3.2V9h1.6V11.4z M172.1,14.3h1.3
			c0.6,0,1-0.2,1-0.8s-0.4-0.8-1.1-0.8h-1.3V14.3z"/>
		<path class="st0" d="M183.4,13.2c0,0.4-0.1,0.7-0.3,1.1c-0.2,0.3-0.4,0.6-0.7,0.9c-0.3,0.2-0.6,0.4-1,0.5
			c-0.4,0.1-0.7,0.1-1.1,0.1c-1.7,0-3.2-0.8-3.2-3.4c0-3.5,2.5-3.6,3.2-3.6c2.3,0,2.9,1.5,3,2.4h-1.5c0-0.2-0.1-0.3-0.1-0.5
			c-0.1-0.1-0.2-0.3-0.3-0.4c-0.1-0.1-0.3-0.2-0.4-0.2c-0.2,0-0.3-0.1-0.5,0c-0.3,0-1.6,0.1-1.6,2.3c0,1.2,0.6,2.1,1.6,2.1
			c0.3,0,0.7-0.1,0.9-0.3c0.3-0.2,0.4-0.6,0.4-0.9L183.4,13.2z"/>
		<path class="st0" d="M188.5,9h1.8l-2.6,3l2.8,3.6h-1.9l-2.3-3.2h0v3.2h-1.6V9h1.6v2.8h0L188.5,9z"/>
		<path class="st0" d="M190.7,12.3c0-0.5,0-0.9,0.2-1.3c0.1-0.4,0.4-0.8,0.7-1.2c0.3-0.3,0.7-0.6,1.1-0.8s0.9-0.2,1.3-0.2
			c2.3,0,3.3,1.5,3.3,3.5s-1.1,3.5-3.3,3.5c-0.5,0-0.9,0-1.3-0.2s-0.8-0.4-1.1-0.8c-0.3-0.3-0.6-0.7-0.7-1.2
			C190.8,13.2,190.7,12.7,190.7,12.3z M195.7,12.3c0-0.6-0.1-2.2-1.7-2.2c-0.9,0-1.6,0.5-1.6,2.2c0,1.7,0.8,2.2,1.6,2.2
			C195.7,14.5,195.7,12.8,195.7,12.3z"/>
		<path class="st0" d="M203.5,11.6v1.2h-3.2v1.5h3.7v1.3h-5.3V9h5.2v1.3h-3.7v1.3H203.5z"/>
	</g>
</g>
</svg>
