<?xml version="1.0" encoding="utf-8"?>
<!-- Generator: Adobe Illustrator 24.0.2, SVG Export Plug-In . SVG Version: 6.00 Build 0)  -->
<svg version="1.1" id="Слой_1" xmlns="http://www.w3.org/2000/svg" xmlns:xlink="http://www.w3.org/1999/xlink" x="0px" y="0px"
	 viewBox="0 0 225 28" style="enable-background:new 0 0 225 28;" xml:space="preserve">
<style type="text/css">
	.st0{fill-rule:evenodd;clip-rule:evenodd;fill:#28468C;}
</style>
<g>
	<g>
		<path class="st0" d="M57.3,16.8L49.7,0.4h4.5l5.2,11.9l5.2-11.9h4.4l-7.5,16.4v9.7h-4.1L57.3,16.8L57.3,16.8z M92.6,0.4h4.4v11.2
			L105,0.4h5.5l-9.8,12.8l9.8,13.3H105L96.9,15v11.4h-4.4V0.4z M132.9,0.4h4.5V11h8.2V0.4h4.4v26h-4.4V15.2h-8.2v11.2h-4.5V0.4z
			 M164.9,15.2l-2.8-8.1l-2.8,8.1H164.9z M160.4,0.4h3.1l10,26h-4.6l-2.7-7h-8.1l-2.8,7h-4.5L160.4,0.4z M188.2,26.4l6.7-16.6v16.6
			h4.2v-26h-4.4L186.7,19l-8-18.6h-4.4v26h4.2V9.8l6.7,16.6H188.2z M214.1,15.2l-2.7-8.1l-2.8,8.1H214.1z M209.7,0.4h3.1l10,26h-4.6
			l-2.7-7h-8.2l-2.7,7H200L209.7,0.4z M78.4,22.5c-5,0-9-4-9-9c0-4.9,4-8.9,9-8.9c5,0,9,4,9,8.9C87.4,18.5,83.4,22.5,78.4,22.5z
			 M78.4,0.2C71,0.2,65,6.3,65,13.6C65,21,71,27,78.4,27c7.4,0,13.4-6.1,13.4-13.5C91.8,6.2,85.8,0.2,78.4,0.2z M118.7,22.5
			c-5,0-9-4-9-9c0-4.9,4-8.9,9-8.9c5,0,9,4,9,8.9C127.7,18.5,123.7,22.5,118.7,22.5z M118.7,0.2c-7.3,0-13.4,6.1-13.4,13.4
			c0,7.4,6.1,13.5,13.4,13.5c7.4,0,13.4-6.1,13.4-13.5C132.1,6.2,126.2,0.2,118.7,0.2z"/>
		<path class="st0" d="M33.8,13.8L20.2,0.2h-2.4l13.6,13.6L18.2,27h2.4L33.8,13.8z"/>
		<path class="st0" d="M29.6,13.8L16,0.2h-2.4l13.6,13.6L14,27h2.4L29.6,13.8z"/>
		<path class="st0" d="M25.3,13.8L11.7,0.2H9.3l13.6,13.6L9.7,27h2.4L25.3,13.8z"/>
		<path class="st0" d="M21.1,13.8L7.5,0.2H5.1l13.6,13.6L5.5,27h2.4L21.1,13.8z"/>
		<path class="st0" d="M16.8,13.8L3.3,0.2H0.9l13.5,13.6L1.2,27h2.4L16.8,13.8z"/>
		<path class="st0" d="M33.8,13.9L47.4,0.2H45L32.6,12.6L33.8,13.9z"/>
		<path class="st0" d="M31.7,11.7L43.1,0.2h-2.4L30.5,10.5L31.7,11.7z"/>
		<path class="st0" d="M29.6,9.6l9.3-9.4h-2.4l-8.1,8.1L29.6,9.6z"/>
		<path class="st0" d="M27.4,7.4l7.2-7.2h-2.4l-6,6L27.4,7.4z"/>
		<path class="st0" d="M25.3,5.3l5-5.1H28l-3.9,3.9L25.3,5.3z"/>
	</g>
</g>
</svg>
