<svg xmlns="http://www.w3.org/2000/svg" viewBox="0 0 88.64 29.48"><defs><style>.cls-1{fill:#fff;}</style></defs><title>Ресурс 37</title><g id="Слой_2" data-name="Слой 2"><g id="Слой_1-2" data-name="Слой 1"><path class="cls-1" d="M3.47,2.32H5.61V13.68H3.47Zm1,4.7h6.61V9.08H4.47Zm5.22-4.7h2.14V13.68H9.69Z" transform="translate(-3.47 -2.2)"/><path class="cls-1" d="M16.07,13.28a3.69,3.69,0,0,1-1.46-1.47,4.58,4.58,0,0,1-.51-2.2V6.39a4.58,4.58,0,0,1,.51-2.2,3.69,3.69,0,0,1,1.46-1.47,4.81,4.81,0,0,1,4.35,0,3.63,3.63,0,0,1,1.46,1.47,4.58,4.58,0,0,1,.51,2.2V9.61a4.58,4.58,0,0,1-.51,2.2,3.63,3.63,0,0,1-1.46,1.47,4.81,4.81,0,0,1-4.35,0Zm3.19-1.87a1.7,1.7,0,0,0,.68-.7,2.2,2.2,0,0,0,.24-1.05V6.34a2.2,2.2,0,0,0-.24-1,1.7,1.7,0,0,0-.68-.7,2.19,2.19,0,0,0-2,0,1.62,1.62,0,0,0-.67.7,2.2,2.2,0,0,0-.24,1V9.66a2.2,2.2,0,0,0,.24,1.05,1.62,1.62,0,0,0,.67.7,2.19,2.19,0,0,0,2,0Z" transform="translate(-3.47 -2.2)"/><path class="cls-1" d="M24.5,2.32h2.14V13.68H24.5Zm1,0h6.61V4.38H25.5Zm5.22,0h2.14V13.68H30.72Z" transform="translate(-3.47 -2.2)"/><path class="cls-1" d="M41.32,13.3a3.27,3.27,0,0,1-1.41-1.44,5.07,5.07,0,0,1-.48-2.3V6.45a5.07,5.07,0,0,1,.48-2.3A3.35,3.35,0,0,1,41.32,2.7a4.61,4.61,0,0,1,2.22-.5,4,4,0,0,1,1.91.46A3.79,3.79,0,0,1,46.84,4a5.78,5.78,0,0,1,.77,2.13H45.39a3.17,3.17,0,0,0-.39-1,2,2,0,0,0-.63-.61,1.68,1.68,0,0,0-.83-.21,2,2,0,0,0-1,.25,1.56,1.56,0,0,0-.64.72,2.6,2.6,0,0,0-.23,1.14V9.56a2.63,2.63,0,0,0,.23,1.14,1.58,1.58,0,0,0,.64.71,2,2,0,0,0,1,.25,1.69,1.69,0,0,0,.84-.21,1.75,1.75,0,0,0,.63-.61,2.79,2.79,0,0,0,.38-1h2.22A6.18,6.18,0,0,1,46.84,12a3.87,3.87,0,0,1-1.39,1.34,4,4,0,0,1-1.91.46A4.61,4.61,0,0,1,41.32,13.3Z" transform="translate(-3.47 -2.2)"/><path class="cls-1" d="M54.34,13.67V8.3l.19.21-3.28,5.16H49.4V5.57h2.05v5.5l-.19-.2,3.29-5.3h1.84v8.1Z" transform="translate(-3.47 -2.2)"/><path class="cls-1" d="M58.57,6.39a4.43,4.43,0,0,1,.38-2A2.32,2.32,0,0,1,60.1,3.3a5.24,5.24,0,0,1,2-.37,2,2,0,0,0,.49-.07.5.5,0,0,0,.28-.2A.57.57,0,0,0,63,2.32h2.18a2.81,2.81,0,0,1-.3,1.39,1.77,1.77,0,0,1-.94.79,4.57,4.57,0,0,1-1.67.26,2.1,2.1,0,0,0-.94.18,1.1,1.1,0,0,0-.52.58,2.52,2.52,0,0,0-.17,1v2.8H58.57Zm1.61,7a2.78,2.78,0,0,1-1.2-1.2,4.17,4.17,0,0,1-.41-1.91V8.79l1.68-1.18A2.37,2.37,0,0,1,61,6.23a2.2,2.2,0,0,1,1.48-.46,3.16,3.16,0,0,1,1.67.41,2.64,2.64,0,0,1,1.07,1.19,4.49,4.49,0,0,1,.36,1.89v1a3.94,3.94,0,0,1-.41,1.89A2.71,2.71,0,0,1,64,13.38a4.49,4.49,0,0,1-3.79,0Zm2.89-2a1.51,1.51,0,0,0,.36-1.07v-1a1.46,1.46,0,0,0-.36-1.06,1.3,1.3,0,0,0-1-.37,1.31,1.31,0,0,0-1,.37,1.46,1.46,0,0,0-.35,1.06v1a1.5,1.5,0,0,0,.35,1.07,1.28,1.28,0,0,0,1,.37A1.3,1.3,0,0,0,63.07,11.36Z" transform="translate(-3.47 -2.2)"/><path class="cls-1" d="M72.47,13.67V8.3l.18.21-3.27,5.16H67.53V5.57h2v5.5l-.18-.2,3.29-5.3h1.83v8.1Z" transform="translate(-3.47 -2.2)"/><path class="cls-1" d="M76.7,5.57h2.14V17H76.7Zm2.8,7.86a2.11,2.11,0,0,1-.77-1l.11-1.86a1.52,1.52,0,0,0,.14.68.9.9,0,0,0,.41.43,1.33,1.33,0,0,0,.65.15,1.15,1.15,0,0,0,.94-.4,1.7,1.7,0,0,0,.33-1.12V9A1.79,1.79,0,0,0,81,7.85,1.13,1.13,0,0,0,80,7.44a1.33,1.33,0,0,0-.65.15A1,1,0,0,0,79,8a1.65,1.65,0,0,0-.14.7l-.16-1.79a2.6,2.6,0,0,1,.86-1.1,2,2,0,0,1,1.18-.39,2.44,2.44,0,0,1,2.41,1.63A5.19,5.19,0,0,1,83.45,9v1.3a5,5,0,0,1-.32,1.89,2.45,2.45,0,0,1-2.41,1.62A2,2,0,0,1,79.5,13.43Z" transform="translate(-3.47 -2.2)"/><path class="cls-1" d="M85.4,5.57h2.14v8.11H85.4Zm1.09,6h2.7a.8.8,0,0,0,.61-.25A1,1,0,0,0,90,10.7a1.06,1.06,0,0,0-.11-.48.85.85,0,0,0-.29-.33.9.9,0,0,0-.44-.11h-2.7V8h2.8a2.94,2.94,0,0,1,1.47.36,2.49,2.49,0,0,1,1,1,3,3,0,0,1,.35,1.5,3,3,0,0,1-.35,1.5,2.39,2.39,0,0,1-1,1,3,3,0,0,1-1.48.36h-2.8Z" transform="translate(-3.47 -2.2)"/><path class="cls-1" d="M33.21,20.32h8.33v2.06H33.21Zm3.1.93h2.14V31.68H36.31Z" transform="translate(-3.47 -2.2)"/><path class="cls-1" d="M42.79,20.32h2.14V31.68H42.79Zm1,4.7H50.4v2.06H43.78ZM49,20.32h2.14V31.68H49Z" transform="translate(-3.47 -2.2)"/><path class="cls-1" d="M56.49,24.69l2.56-4.37h2.26l-3.76,6.42-2.89,4.94H52.4Zm0,2.34-.22-.37-3.76-6.34h2.26l2.55,4.31.29.5,3.89,6.55H59.22Z" transform="translate(-3.47 -2.2)"/></g></g></svg>