<svg xmlns="http://www.w3.org/2000/svg" viewBox="0 0 88.73 18.46"><defs><style>.cls-1{fill:#28468c;}</style></defs><title>Ресурс 41</title><g id="Слой_2" data-name="Слой 2"><g id="Слой_1-2" data-name="Слой 1"><path class="cls-1" d="M3.68,3.77H7.15V22.23H3.68Zm1.25,0h9.6V7.12H4.93Z" transform="translate(-3.68 -3.77)"/><path class="cls-1" d="M17.07,3.77h3.48V22.23H17.07Zm1.51,7.62h6.54v3.35H18.58ZM22.2,14.1l3.16-1.33,6.36,9.46H27.37Zm0-2,4.72-8.33h4l-6.16,10.6Z" transform="translate(-3.68 -3.77)"/><path class="cls-1" d="M52.35,3.77h4.58V22.23H53.77V7.9l.13.81L50.37,20.17H47.3L43.77,9l.12-1.06V22.23H40.73V3.77h4.59l3.51,12.44Z" transform="translate(-3.68 -3.77)"/><path class="cls-1" d="M71.81,22.22V7.45l.31.33-7,14.44H61V3.77h3.32v15l-.3-.33L71,3.77h4.13V22.22Z" transform="translate(-3.68 -3.77)"/><path class="cls-1" d="M79.2,3.77h3.48V22.23H79.2Zm1.59,8h5.9a2.1,2.1,0,0,0,1.1-.29,2,2,0,0,0,.74-.8,2.59,2.59,0,0,0,.27-1.2,2.76,2.76,0,0,0-.26-1.21,1.94,1.94,0,0,0-.74-.81,2.14,2.14,0,0,0-1.11-.29h-5.9V3.77H86.6a6.32,6.32,0,0,1,3,.71,5,5,0,0,1,2,2,6,6,0,0,1,.72,3,5.94,5.94,0,0,1-.72,3,4.91,4.91,0,0,1-2,2,6.32,6.32,0,0,1-3,.7H80.79Z" transform="translate(-3.68 -3.77)"/></g></g></svg>