<svg xmlns="http://www.w3.org/2000/svg" viewBox="0 0 89.02 42.76"><defs><style>.cls-1{fill:#fff;}</style></defs><title>Ресурс 36</title><g id="Слой_2" data-name="Слой 2"><g id="Слой_1-2" data-name="Слой 1"><path class="cls-1" d="M16.8,12.82V4.3l.17.19-4,8.33H10.56V2.17h1.92v8.65l-.18-.19,4-8.46h2.38V12.82Z" transform="translate(-2.55 -2.17)"/><path class="cls-1" d="M21.06,2.17h2V12.82h-2Zm.93,0h6.2V4.11H22Zm4.9,0h2V12.82h-2Z" transform="translate(-2.55 -2.17)"/><path class="cls-1" d="M41.51,12.82V4.3l.17.19-4,8.33H35.27V2.17h1.92v8.65L37,10.63l4-8.46h2.38V12.82Z" transform="translate(-2.55 -2.17)"/><path class="cls-1" d="M45.62,5.22h2v7.6h-2Zm1,6H49.1a1,1,0,0,0,.68-.22.71.71,0,0,0,.25-.59v0a.7.7,0,0,0-.25-.58,1,1,0,0,0-.68-.2H46.65V8.08H49.1a.89.89,0,0,0,.58-.17.61.61,0,0,0,.21-.49A.57.57,0,0,0,49.68,7a.86.86,0,0,0-.57-.16H46.65V5.22h2.88a2.79,2.79,0,0,1,1.76.5,1.68,1.68,0,0,1,.62,1.39,1.73,1.73,0,0,1-.38,1.15,1.65,1.65,0,0,1-1.05.57,2,2,0,0,1,1.16.69,2.15,2.15,0,0,1,.41,1.33v0a1.71,1.71,0,0,1-.66,1.44,3,3,0,0,1-1.88.5H46.65Z" transform="translate(-2.55 -2.17)"/><path class="cls-1" d="M54,12.35a2.37,2.37,0,0,1-.6-1.77A2.08,2.08,0,0,1,54,8.89a3.16,3.16,0,0,1,2-.56H58l.1,1.53h-2a1.08,1.08,0,0,0-.68.18.65.65,0,0,0-.22.54.61.61,0,0,0,.28.56,1.64,1.64,0,0,0,.86.18,3,3,0,0,0,1.2-.19.6.6,0,0,0,.39-.57l.16,1.11a1,1,0,0,1-.38.69,2.11,2.11,0,0,1-.83.43,3.72,3.72,0,0,1-1.06.14A2.53,2.53,0,0,1,54,12.35ZM57.91,8a1,1,0,0,0-.35-.81,1.52,1.52,0,0,0-1-.28,2.49,2.49,0,0,0-.85.14,2.73,2.73,0,0,0-.74.38L53.74,6.21a2.9,2.9,0,0,1,1.2-.81,4.63,4.63,0,0,1,1.66-.29,3.77,3.77,0,0,1,1.69.34,2.41,2.41,0,0,1,1.08,1,3,3,0,0,1,.37,1.53v4.88H57.91Z" transform="translate(-2.55 -2.17)"/><path class="cls-1" d="M61.72,5.22h2v7.6h-2Zm1.07,2.94h4.67V10H62.79ZM66.3,5.22h2v7.6h-2Z" transform="translate(-2.55 -2.17)"/><path class="cls-1" d="M71.64,12.55a2.62,2.62,0,0,1-1.12-1.14,3.91,3.91,0,0,1-.38-1.79V8.39a3.85,3.85,0,0,1,.38-1.77A2.58,2.58,0,0,1,71.64,5.5a4.26,4.26,0,0,1,3.56,0,2.58,2.58,0,0,1,1.12,1.12,3.85,3.85,0,0,1,.38,1.77V9.65a3.85,3.85,0,0,1-.38,1.77,2.66,2.66,0,0,1-1.12,1.13,4.36,4.36,0,0,1-3.56,0Zm2.72-1.9a1.42,1.42,0,0,0,.33-1V8.39a1.38,1.38,0,0,0-.33-1,1.24,1.24,0,0,0-1-.35,1.19,1.19,0,0,0-.93.35,1.38,1.38,0,0,0-.33,1V9.65a1.37,1.37,0,0,0,.33,1,1.21,1.21,0,0,0,.93.35A1.28,1.28,0,0,0,74.36,10.65Z" transform="translate(-2.55 -2.17)"/><path class="cls-1" d="M78.53,5.22h2v7.6h-2Zm1,6H82a1,1,0,0,0,.69-.22.73.73,0,0,0,.24-.59v0a.73.73,0,0,0-.24-.58,1,1,0,0,0-.69-.2H79.56V8.08H82a.92.92,0,0,0,.59-.17.6.6,0,0,0,.2-.49.56.56,0,0,0-.2-.47A.9.9,0,0,0,82,6.79H79.56V5.22h2.88a2.74,2.74,0,0,1,1.75.5,1.66,1.66,0,0,1,.63,1.39,1.73,1.73,0,0,1-.38,1.15,1.7,1.7,0,0,1-1,.57,2,2,0,0,1,1.16.69A2.15,2.15,0,0,1,85,10.85v0a1.72,1.72,0,0,1-.67,1.44,3,3,0,0,1-1.88.5H79.56Z" transform="translate(-2.55 -2.17)"/><path class="cls-1" d="M13.48,18.17h2V28.82h-2Zm.87,8.72h3.4a1.57,1.57,0,0,0,1.07-.33,1.19,1.19,0,0,0,.37-.94v0a1.35,1.35,0,0,0-.16-.69,1.11,1.11,0,0,0-.5-.43,1.81,1.81,0,0,0-.78-.15h-3.4V22.39h3.4a1.38,1.38,0,0,0,1-.31,1.18,1.18,0,0,0,.34-.89,1,1,0,0,0-.34-.8,1.48,1.48,0,0,0-1-.28h-3.4V18.17h3.47a4.06,4.06,0,0,1,1.76.35,2.44,2.44,0,0,1,1.12,1,3.11,3.11,0,0,1,.38,1.56,2.29,2.29,0,0,1-.25,1.1,2,2,0,0,1-.71.79,2.92,2.92,0,0,1-1.13.42,2.65,2.65,0,0,1,1.2.43,2.2,2.2,0,0,1,.77.86,2.86,2.86,0,0,1,.26,1.24v0a3,3,0,0,1-.39,1.57,2.36,2.36,0,0,1-1.12,1,4.14,4.14,0,0,1-1.77.34H14.35Z" transform="translate(-2.55 -2.17)"/><path class="cls-1" d="M22.5,27a.93.93,0,0,0,.75-.31,1.25,1.25,0,0,0,.27-.86V21.22h1.87V26a3.53,3.53,0,0,1-.32,1.56,2.31,2.31,0,0,1-.94,1,3,3,0,0,1-1.48.34H22.5Zm2.09-5.74h3.95v1.94H24.59Zm2.79,0h2v7.6h-2Z" transform="translate(-2.55 -2.17)"/><path class="cls-1" d="M31.68,28.35a2.37,2.37,0,0,1-.61-1.77,2.09,2.09,0,0,1,.68-1.69,3.15,3.15,0,0,1,2-.56h1.91l.1,1.53h-2a1.08,1.08,0,0,0-.68.18.65.65,0,0,0-.23.54.62.62,0,0,0,.29.56,1.64,1.64,0,0,0,.86.18,3,3,0,0,0,1.2-.19.6.6,0,0,0,.39-.57l.16,1.11a1,1,0,0,1-.38.69,2.11,2.11,0,0,1-.83.43,3.72,3.72,0,0,1-1.06.14A2.53,2.53,0,0,1,31.68,28.35ZM35.62,24a1,1,0,0,0-.35-.81,1.52,1.52,0,0,0-1-.28,2.49,2.49,0,0,0-.85.14,2.59,2.59,0,0,0-.74.38l-1.24-1.22a2.9,2.9,0,0,1,1.2-.81,4.63,4.63,0,0,1,1.66-.29,3.77,3.77,0,0,1,1.69.34,2.41,2.41,0,0,1,1.08,1,3,3,0,0,1,.37,1.53v4.88H35.62Z" transform="translate(-2.55 -2.17)"/><path class="cls-1" d="M39.12,27h7.46v1.86H39.12Zm0,0H40.9v3.78H39.12Zm.28,0h.17a.69.69,0,0,0,.57-.23,1.25,1.25,0,0,0,.24-.65,8.81,8.81,0,0,0,.06-1.16v-3.7h2v4.2a2.51,2.51,0,0,1-.61,1.83,2.33,2.33,0,0,1-1.76.62h-.17Zm1.9-5.74H45v1.86H41.3Zm2.88,0h2v7.6h-2ZM45.42,27H47.2v3.78H45.42Z" transform="translate(-2.55 -2.17)"/><path class="cls-1" d="M53.5,28.82v-5l.18.19-3.07,4.84H48.87v-7.6h1.92v5.16l-.17-.19,3.08-5h1.72v7.6Z" transform="translate(-2.55 -2.17)"/><path class="cls-1" d="M63.11,21.22h1.8v7.6H63.09v-5l.07.47-1.37,3.05H60.6l-1.38-3.05.08-.47v5H57.47v-7.6h1.8l1.92,4.13Z" transform="translate(-2.55 -2.17)"/><path class="cls-1" d="M71.59,28.82v-5l.18.19L68.7,28.82H67v-7.6h1.92v5.16l-.17-.19,3.08-5h1.72v7.6Z" transform="translate(-2.55 -2.17)"/><path class="cls-1" d="M75.56,21.22h2v10.7h-2Zm2.62,7.37a1.9,1.9,0,0,1-.71-1l.1-1.74a1.38,1.38,0,0,0,.13.64.89.89,0,0,0,.39.4,1.15,1.15,0,0,0,.61.14,1.07,1.07,0,0,0,.87-.37,1.58,1.58,0,0,0,.31-1.05V24.44a1.64,1.64,0,0,0-.31-1.08A1.06,1.06,0,0,0,78.7,23a1.15,1.15,0,0,0-.61.15.91.91,0,0,0-.39.41,1.47,1.47,0,0,0-.13.66l-.15-1.69a2.62,2.62,0,0,1,.8-1,1.89,1.89,0,0,1,1.11-.36,2.29,2.29,0,0,1,2.26,1.53,4.75,4.75,0,0,1,.3,1.79v1.22a4.68,4.68,0,0,1-.3,1.77,2.4,2.4,0,0,1-.88,1.13,2.46,2.46,0,0,1-1.38.38A2,2,0,0,1,78.18,28.59Z" transform="translate(-2.55 -2.17)"/><path class="cls-1" d="M6.62,34.17H7.9L12,44.82H9.81L7.26,37.55,4.71,44.82H2.55Zm-2.11,7h5.6v1.94H4.51Z" transform="translate(-2.55 -2.17)"/><path class="cls-1" d="M13.14,37.22h2v7.6h-2Zm1.08,2.94h4.66V42H14.22Zm3.51-2.94h2v7.6h-2Z" transform="translate(-2.55 -2.17)"/><path class="cls-1" d="M22,44.35a2.37,2.37,0,0,1-.6-1.77,2.06,2.06,0,0,1,.68-1.69,3.13,3.13,0,0,1,2-.56H26l.1,1.53h-2a1.11,1.11,0,0,0-.69.18.65.65,0,0,0-.22.54.61.61,0,0,0,.28.56,1.66,1.66,0,0,0,.87.18,3,3,0,0,0,1.19-.19.59.59,0,0,0,.4-.57l.15,1.11a1,1,0,0,1-.38.69,2.11,2.11,0,0,1-.83.43,3.72,3.72,0,0,1-1.06.14A2.53,2.53,0,0,1,22,44.35ZM26,40a1,1,0,0,0-.36-.81,1.52,1.52,0,0,0-1-.28,2.68,2.68,0,0,0-.84.13,2.73,2.73,0,0,0-.74.39l-1.25-1.22A2.9,2.9,0,0,1,23,37.4a4.63,4.63,0,0,1,1.66-.29,3.85,3.85,0,0,1,1.7.34,2.38,2.38,0,0,1,1.07,1,2.94,2.94,0,0,1,.37,1.53v4.88H26Z" transform="translate(-2.55 -2.17)"/><path class="cls-1" d="M28.89,37.22h6.19v1.94H28.89ZM31,38h2v6.8H31Z" transform="translate(-2.55 -2.17)"/><path class="cls-1" d="M37.54,44.55a2.62,2.62,0,0,1-1.12-1.14A3.79,3.79,0,0,1,36,41.62V40.39a3.73,3.73,0,0,1,.38-1.77,2.58,2.58,0,0,1,1.12-1.12,4.23,4.23,0,0,1,3.55,0,2.53,2.53,0,0,1,1.12,1.12,3.73,3.73,0,0,1,.39,1.77v1.26a3.73,3.73,0,0,1-.39,1.77,2.6,2.6,0,0,1-1.12,1.13,4.34,4.34,0,0,1-3.55,0Zm2.72-1.9a1.42,1.42,0,0,0,.33-1V40.39a1.38,1.38,0,0,0-.33-1,1.24,1.24,0,0,0-.95-.36,1.2,1.2,0,0,0-.93.36,1.34,1.34,0,0,0-.34,1v1.26a1.42,1.42,0,0,0,.33,1,1.25,1.25,0,0,0,.94.35A1.28,1.28,0,0,0,40.26,42.65Z" transform="translate(-2.55 -2.17)"/><path class="cls-1" d="M43.55,43a.93.93,0,0,0,.75-.31,1.25,1.25,0,0,0,.27-.86V37.22h1.87V42a3.39,3.39,0,0,1-.32,1.56,2.25,2.25,0,0,1-.94,1,3,3,0,0,1-1.48.34h-.15Zm2.1-5.74h3.94v1.94H45.65Zm2.79,0h2v7.6h-2Z" transform="translate(-2.55 -2.17)"/><path class="cls-1" d="M52.49,37.22h2v7.6h-2Zm1,5.67h2.54a.75.75,0,0,0,.57-.23.92.92,0,0,0,.21-.63.93.93,0,0,0-.1-.45.72.72,0,0,0-.27-.3.81.81,0,0,0-.41-.11H53.51V39.46h2.63a2.82,2.82,0,0,1,1.38.33,2.34,2.34,0,0,1,.93.94,2.83,2.83,0,0,1,.34,1.41,2.91,2.91,0,0,1-.33,1.41,2.28,2.28,0,0,1-.93.94,2.86,2.86,0,0,1-1.39.33H53.51Z" transform="translate(-2.55 -2.17)"/><path class="cls-1" d="M61.82,44.54a2.77,2.77,0,0,1-1.2-1.17,3.88,3.88,0,0,1-.41-1.84v-.86a4.32,4.32,0,0,1,.4-1.92,2.7,2.7,0,0,1,1.14-1.22,3.64,3.64,0,0,1,1.81-.42,2.92,2.92,0,0,1,1.71.5,3.07,3.07,0,0,1,1.08,1.45,6.21,6.21,0,0,1,.37,2.29v.49h-5.2V40.49h3.37l0-.18a1.84,1.84,0,0,0-.42-1,1.18,1.18,0,0,0-.89-.35,1.43,1.43,0,0,0-1.12.43,1.71,1.71,0,0,0-.4,1.22v1a1.59,1.59,0,0,0,.43,1.2,1.69,1.69,0,0,0,1.22.42,2.21,2.21,0,0,0,.8-.14,2.24,2.24,0,0,0,.72-.41l1.31,1.17a4.41,4.41,0,0,1-1.33.84,4.16,4.16,0,0,1-1.5.29A4.1,4.1,0,0,1,61.82,44.54Z" transform="translate(-2.55 -2.17)"/><path class="cls-1" d="M68.48,37.22h2v7.6h-2Zm1,6H72a1,1,0,0,0,.69-.22.73.73,0,0,0,.24-.59v0a.73.73,0,0,0-.24-.58,1,1,0,0,0-.69-.2H69.5V40.08H72a.89.89,0,0,0,.58-.17.61.61,0,0,0,.21-.49.57.57,0,0,0-.21-.47.86.86,0,0,0-.57-.16H69.5V37.22h2.88a2.77,2.77,0,0,1,1.76.5,1.68,1.68,0,0,1,.62,1.39,1.73,1.73,0,0,1-.37,1.15,1.7,1.7,0,0,1-1.06.57,1.93,1.93,0,0,1,1.16.69,2.15,2.15,0,0,1,.41,1.33v0a1.71,1.71,0,0,1-.66,1.44,3.11,3.11,0,0,1-1.88.5H69.5Z" transform="translate(-2.55 -2.17)"/><path class="cls-1" d="M81.21,44.82v-5l.18.19-3.07,4.84H76.58v-7.6H78.5v5.16l-.17-.19,3.08-5h1.72v7.6Z" transform="translate(-2.55 -2.17)"/><path class="cls-1" d="M86.39,42.09a2.26,2.26,0,0,1-1-1,3.67,3.67,0,0,1-.33-1.63V37.22h2v2.05a1.15,1.15,0,0,0,.32.88,1.21,1.21,0,0,0,.89.31,1.18,1.18,0,0,0,.91-.35,1.41,1.41,0,0,0,.32-1v-.55h.84v.57a4.23,4.23,0,0,1-.6,2.47,2.16,2.16,0,0,1-1.91.83A3,3,0,0,1,86.39,42.09Zm3.17-4.87h2v7.6h-2Z" transform="translate(-2.55 -2.17)"/></g></g></svg>