<svg xmlns="http://www.w3.org/2000/svg" viewBox="0 0 86.5 43.48"><defs><style>.cls-1{fill:#28468c;}</style></defs><title>Ресурс 43</title><g id="Слой_2" data-name="Слой 2"><g id="Слой_1-2" data-name="Слой 1"><path class="cls-1" d="M7.52,2.32H9.66V13.68H7.52ZM8.45,7h4V9.07h-4Zm2.23,1.67,1.94-.82,3.92,5.82H13.86Zm0-1.23,2.91-5.13h2.47L12.27,8.84Z" transform="translate(-4.33 -2.32)"/><path class="cls-1" d="M17.73,13.18a2.53,2.53,0,0,1-.65-1.89,2.24,2.24,0,0,1,.72-1.81A3.36,3.36,0,0,1,20,8.88h2l.11,1.64H20a1.18,1.18,0,0,0-.73.19.69.69,0,0,0-.24.58.65.65,0,0,0,.31.59,1.73,1.73,0,0,0,.92.19,3.22,3.22,0,0,0,1.28-.19.65.65,0,0,0,.41-.61l.17,1.18a1.14,1.14,0,0,1-.4.74,2.38,2.38,0,0,1-.9.45,3.75,3.75,0,0,1-1.12.16A2.73,2.73,0,0,1,17.73,13.18Zm4.2-4.64a1.06,1.06,0,0,0-.37-.87,1.67,1.67,0,0,0-1.06-.3,2.74,2.74,0,0,0-.9.15,2.58,2.58,0,0,0-.79.41l-1.33-1.3a3.23,3.23,0,0,1,1.28-.87,5,5,0,0,1,1.77-.31,4.14,4.14,0,0,1,1.81.36,2.54,2.54,0,0,1,1.14,1,3.1,3.1,0,0,1,.4,1.63v5.21H21.93Z" transform="translate(-4.33 -2.32)"/><path class="cls-1" d="M26,5.57h2.14v8.11H26Zm1.15,6h8.07v2.06H27.14Zm2.84-6h2.14v8.11H30Zm4,0h2.14v8.11H34Z" transform="translate(-4.33 -2.32)"/><path class="cls-1" d="M43.24,13.67V8.3l.19.21-3.28,5.16H38.3V5.57h2.05v5.5l-.19-.2,3.29-5.3h1.84v8.1Z" transform="translate(-4.33 -2.32)"/><path class="cls-1" d="M47.47,5.57h2.14V17H47.47Zm2.8,7.86a2.17,2.17,0,0,1-.77-1l.11-1.86a1.52,1.52,0,0,0,.14.68,1,1,0,0,0,.41.43,1.34,1.34,0,0,0,.66.15,1.13,1.13,0,0,0,.93-.4,1.7,1.7,0,0,0,.33-1.12V9a1.79,1.79,0,0,0-.33-1.15,1.11,1.11,0,0,0-.93-.41,1.34,1.34,0,0,0-.66.15,1,1,0,0,0-.41.44,1.65,1.65,0,0,0-.14.7l-.16-1.79a2.77,2.77,0,0,1,.86-1.1,2,2,0,0,1,1.19-.39A2.54,2.54,0,0,1,53,5.87a2.5,2.5,0,0,1,.93,1.21A5,5,0,0,1,54.22,9v1.3a4.85,4.85,0,0,1-.32,1.89,2.48,2.48,0,0,1-.93,1.2,2.54,2.54,0,0,1-1.47.42A2,2,0,0,1,50.27,13.43Z" transform="translate(-4.33 -2.32)"/><path class="cls-1" d="M57.62,13.36a3.05,3.05,0,0,1-1.25-1.29,4.38,4.38,0,0,1-.43-2V9.17a4.29,4.29,0,0,1,.43-2,3,3,0,0,1,1.25-1.27,4.21,4.21,0,0,1,2-.44,4.6,4.6,0,0,1,1.25.16,3.59,3.59,0,0,1,1.06.44,2.76,2.76,0,0,1,.78.7L61.32,8.09a2.14,2.14,0,0,0-.7-.42,2.31,2.31,0,0,0-.83-.15A1.7,1.7,0,0,0,58.53,8a1.62,1.62,0,0,0-.45,1.22V10a1.55,1.55,0,0,0,1.71,1.69,2.2,2.2,0,0,0,.84-.16,2.17,2.17,0,0,0,.69-.47l1.38,1.42a2.77,2.77,0,0,1-.79.69,3.53,3.53,0,0,1-1,.44,5.1,5.1,0,0,1-1.25.15A4.21,4.21,0,0,1,57.62,13.36Z" transform="translate(-4.33 -2.32)"/><path class="cls-1" d="M64.14,5.57h2.15v8.11H64.14Zm.93,3h4.18v2.06H65.07Zm2.23,1.67,2-.82,2.19,4.24H69Zm0-1.24,1.42-3.45H71l-2.07,4.85Z" transform="translate(-4.33 -2.32)"/><path class="cls-1" d="M77.32,13.67V8.3l.18.21-3.27,5.16H72.38V5.57h2.05v5.5l-.19-.2,3.29-5.3h1.83v8.1Z" transform="translate(-4.33 -2.32)"/><path class="cls-1" d="M83.64,9.2l1.27,1.47-1.87,3H80.77ZM84,10.33,80.89,5.57h2.36l2,3.27,3.18,4.84H86Zm.36-1.88,1.5-2.88h2.36L85.65,10Z" transform="translate(-4.33 -2.32)"/><path class="cls-1" d="M11.21,18.32h2.14V29.68H11.21Zm.93,9.3h3.63a1.66,1.66,0,0,0,1.14-.36,1.27,1.27,0,0,0,.4-1v0a1.41,1.41,0,0,0-.18-.73A1.16,1.16,0,0,0,16.6,25a2.08,2.08,0,0,0-.83-.16H12.14V22.82h3.63a1.46,1.46,0,0,0,1-.34,1.21,1.21,0,0,0,.36-.94,1,1,0,0,0-.36-.85,1.55,1.55,0,0,0-1-.31H12.14V18.32h3.7a4.47,4.47,0,0,1,1.88.36,2.68,2.68,0,0,1,1.19,1.06,3.22,3.22,0,0,1,.41,1.66,2.46,2.46,0,0,1-.27,1.17,2,2,0,0,1-.76.84,3.06,3.06,0,0,1-1.2.45,3,3,0,0,1,1.28.46,2.28,2.28,0,0,1,.82.92,3.05,3.05,0,0,1,.27,1.32v0a3.18,3.18,0,0,1-.41,1.67,2.68,2.68,0,0,1-1.19,1.06,4.49,4.49,0,0,1-1.89.36H12.14Z" transform="translate(-4.33 -2.32)"/><path class="cls-1" d="M20.83,27.69a1,1,0,0,0,.8-.33,1.32,1.32,0,0,0,.29-.91V21.57h2v5.09a3.68,3.68,0,0,1-.35,1.67,2.44,2.44,0,0,1-1,1.06,3.26,3.26,0,0,1-1.58.36h-.16Zm2.24-6.12h4.21v2.06H23.07Zm3,0h2.14v8.11H26Z" transform="translate(-4.33 -2.32)"/><path class="cls-1" d="M30.62,29.18A2.57,2.57,0,0,1,30,27.29a2.24,2.24,0,0,1,.72-1.81,3.34,3.34,0,0,1,2.17-.6h2L35,26.52H32.88a1.16,1.16,0,0,0-.73.19.69.69,0,0,0-.24.58.66.66,0,0,0,.3.59,1.77,1.77,0,0,0,.93.19,3.16,3.16,0,0,0,1.27-.19.65.65,0,0,0,.42-.61L35,28.45a1.16,1.16,0,0,1-.41.74,2.26,2.26,0,0,1-.89.45,3.77,3.77,0,0,1-1.13.16A2.73,2.73,0,0,1,30.62,29.18Zm4.21-4.64a1.06,1.06,0,0,0-.37-.87,1.68,1.68,0,0,0-1.07-.3,2.73,2.73,0,0,0-.89.15,2.58,2.58,0,0,0-.79.41l-1.33-1.3a3.23,3.23,0,0,1,1.28-.87,5,5,0,0,1,1.77-.31,4.17,4.17,0,0,1,1.81.36,2.54,2.54,0,0,1,1.14,1,3.1,3.1,0,0,1,.4,1.63v5.21h-2Z" transform="translate(-4.33 -2.32)"/><path class="cls-1" d="M38.56,27.7h8v2h-8Zm0,0h1.9v4h-1.9Zm.3,0H39a.75.75,0,0,0,.61-.25,1.41,1.41,0,0,0,.26-.7A9.81,9.81,0,0,0,40,25.52V21.57h2.14v4.48A2.64,2.64,0,0,1,41.46,28a2.51,2.51,0,0,1-1.87.66H39.4Zm2-6.13H44.8v2H40.89Zm3.07,0H46.1v8.11H44Zm1.32,6.13h1.9v4h-1.9Z" transform="translate(-4.33 -2.32)"/><path class="cls-1" d="M53.9,29.67V24.3l.19.21-3.27,5.16H49v-8.1h2v5.5l-.19-.2,3.29-5.3H56v8.1Z" transform="translate(-4.33 -2.32)"/><path class="cls-1" d="M64.15,21.57h1.92v8.11H64.13V24.34l.08.5L62.74,28.1H61.47L60,24.84l.08-.5v5.34H58.14V21.57h1.92l2,4.41Z" transform="translate(-4.33 -2.32)"/><path class="cls-1" d="M73.2,29.67V24.3l.19.21-3.28,5.16H68.26v-8.1h2v5.5l-.19-.2,3.29-5.3h1.84v8.1Z" transform="translate(-4.33 -2.32)"/><path class="cls-1" d="M77.43,21.57h2.14V33H77.43Zm2.8,7.86a2.17,2.17,0,0,1-.77-1l.11-1.86a1.52,1.52,0,0,0,.14.68,1,1,0,0,0,.41.43,1.34,1.34,0,0,0,.66.15,1.13,1.13,0,0,0,.93-.4A1.7,1.7,0,0,0,82,26.29V25a1.79,1.79,0,0,0-.33-1.15,1.11,1.11,0,0,0-.93-.41,1.34,1.34,0,0,0-.66.15,1.09,1.09,0,0,0-.41.44,1.65,1.65,0,0,0-.14.7l-.16-1.79a2.77,2.77,0,0,1,.86-1.1,2,2,0,0,1,1.19-.39,2.54,2.54,0,0,1,1.47.42,2.5,2.5,0,0,1,.93,1.21A5,5,0,0,1,84.18,25v1.3a4.85,4.85,0,0,1-.32,1.89,2.48,2.48,0,0,1-.93,1.2,2.54,2.54,0,0,1-1.47.42A2,2,0,0,1,80.23,29.43Z" transform="translate(-4.33 -2.32)"/><path class="cls-1" d="M4.33,34.32H6.47V45.68H4.33Zm.94,9.3H8.89A1.66,1.66,0,0,0,10,43.26a1.29,1.29,0,0,0,.4-1v0a1.41,1.41,0,0,0-.18-.73A1.16,1.16,0,0,0,9.72,41a2.08,2.08,0,0,0-.83-.16H5.27V38.82H8.89a1.44,1.44,0,0,0,1-.34,1.21,1.21,0,0,0,.36-.94,1,1,0,0,0-.36-.85,1.53,1.53,0,0,0-1-.31H5.27V34.32H9a4.44,4.44,0,0,1,1.88.36A2.68,2.68,0,0,1,12,35.74a3.22,3.22,0,0,1,.41,1.66,2.58,2.58,0,0,1-.26,1.17,2.08,2.08,0,0,1-.77.84,3.06,3.06,0,0,1-1.2.45,3.05,3.05,0,0,1,1.29.46,2.33,2.33,0,0,1,.81.92,3.05,3.05,0,0,1,.28,1.32v0a3.28,3.28,0,0,1-.41,1.67A2.76,2.76,0,0,1,11,45.32a4.49,4.49,0,0,1-1.89.36H5.27Z" transform="translate(-4.33 -2.32)"/><path class="cls-1" d="M14.75,45.18a2.53,2.53,0,0,1-.64-1.89,2.24,2.24,0,0,1,.72-1.81,3.34,3.34,0,0,1,2.17-.6h2l.11,1.64H17a1.14,1.14,0,0,0-.73.19.69.69,0,0,0-.24.58.66.66,0,0,0,.3.59,1.77,1.77,0,0,0,.93.19,3.35,3.35,0,0,0,1.27-.19.65.65,0,0,0,.42-.61l.16,1.18a1.1,1.1,0,0,1-.4.74,2.26,2.26,0,0,1-.89.45,3.81,3.81,0,0,1-1.13.16A2.73,2.73,0,0,1,14.75,45.18ZM19,40.54a1.06,1.06,0,0,0-.37-.87,1.68,1.68,0,0,0-1.07-.3,2.83,2.83,0,0,0-.9.15,2.33,2.33,0,0,0-.78.41l-1.33-1.3a3.13,3.13,0,0,1,1.28-.87,5,5,0,0,1,1.76-.31,4.19,4.19,0,0,1,1.82.36,2.54,2.54,0,0,1,1.14,1,3.2,3.2,0,0,1,.4,1.63v5.21H19Z" transform="translate(-4.33 -2.32)"/><path class="cls-1" d="M24.46,45.36a3.05,3.05,0,0,1-1.25-1.29,4.38,4.38,0,0,1-.43-2v-.87a4.29,4.29,0,0,1,.43-2,3,3,0,0,1,1.25-1.27,4.21,4.21,0,0,1,2-.44,4.6,4.6,0,0,1,1.25.16,3.59,3.59,0,0,1,1.06.44,2.76,2.76,0,0,1,.78.7l-1.38,1.34a2.14,2.14,0,0,0-.7-.42,2.32,2.32,0,0,0-.84-.15,1.7,1.7,0,0,0-1.25.43,1.62,1.62,0,0,0-.45,1.22V42a1.55,1.55,0,0,0,1.7,1.69,2.22,2.22,0,0,0,.85-.16,2.17,2.17,0,0,0,.69-.47l1.38,1.42a2.93,2.93,0,0,1-.79.69,3.53,3.53,0,0,1-1.05.44,5.1,5.1,0,0,1-1.25.15A4.21,4.21,0,0,1,24.46,45.36Z" transform="translate(-4.33 -2.32)"/><path class="cls-1" d="M35.92,45.67V40.3l.19.21-3.27,5.16H31v-8.1H33v5.5l-.19-.2,3.29-5.3H38v8.1Z" transform="translate(-4.33 -2.32)"/><path class="cls-1" d="M39.61,43.69a1,1,0,0,0,.8-.33,1.32,1.32,0,0,0,.29-.91V37.57h2v5.09a3.68,3.68,0,0,1-.35,1.67,2.44,2.44,0,0,1-1,1.06,3.26,3.26,0,0,1-1.58.36h-.16Zm2.23-6.12h4.21v2.06H41.84Zm3,0H47v8.11H44.82Z" transform="translate(-4.33 -2.32)"/><path class="cls-1" d="M49.15,37.57h2.14v8.11H49.15Zm1.08,6h2.71a.81.81,0,0,0,.61-.25,1,1,0,0,0,.22-.67,1.06,1.06,0,0,0-.1-.48.8.8,0,0,0-.3-.33.86.86,0,0,0-.43-.11H50.23V40H53a3,3,0,0,1,1.48.36,2.47,2.47,0,0,1,1,1,3,3,0,0,1,.36,1.5,3.13,3.13,0,0,1-.35,1.5,2.51,2.51,0,0,1-1,1,3,3,0,0,1-1.49.36h-2.8Z" transform="translate(-4.33 -2.32)"/><path class="cls-1" d="M59.09,45.37a2.93,2.93,0,0,1-1.27-1.24,4.15,4.15,0,0,1-.44-2v-.91a4.57,4.57,0,0,1,.42-2A3,3,0,0,1,59,37.9,3.88,3.88,0,0,1,61,37.45a3.1,3.1,0,0,1,1.82.53,3.32,3.32,0,0,1,1.16,1.55A6.79,6.79,0,0,1,64.32,42v.53H58.77V41.05h3.6l0-.18a1.84,1.84,0,0,0-.44-1.09A1.23,1.23,0,0,0,61,39.4a1.56,1.56,0,0,0-1.2.46,1.86,1.86,0,0,0-.42,1.3v1a1.72,1.72,0,0,0,.46,1.28,1.8,1.8,0,0,0,1.3.45,2.6,2.6,0,0,0,.86-.15,2.52,2.52,0,0,0,.76-.44l1.4,1.25a4.79,4.79,0,0,1-1.42.89,4.31,4.31,0,0,1-1.6.32A4.25,4.25,0,0,1,59.09,45.37Z" transform="translate(-4.33 -2.32)"/><path class="cls-1" d="M66.2,37.57h2.13v8.11H66.2ZM67.29,44H69.9a1.06,1.06,0,0,0,.73-.23.8.8,0,0,0,.26-.63v0a.76.76,0,0,0-.26-.62,1.06,1.06,0,0,0-.73-.22H67.29V40.62H69.9a.89.89,0,0,0,.62-.19.62.62,0,0,0,.22-.52.59.59,0,0,0-.22-.49.92.92,0,0,0-.61-.18H67.29V37.57h3.07a2.93,2.93,0,0,1,1.87.53,1.78,1.78,0,0,1,.67,1.49,1.73,1.73,0,0,1-1.53,1.83,2,2,0,0,1,1.24.74,2.27,2.27,0,0,1,.44,1.42v0a1.85,1.85,0,0,1-.71,1.54,3.24,3.24,0,0,1-2,.54h-3Z" transform="translate(-4.33 -2.32)"/><path class="cls-1" d="M79.78,45.67V40.3l.19.21L76.7,45.67H74.84v-8.1h2v5.5l-.19-.2L80,37.57h1.84v8.1Z" transform="translate(-4.33 -2.32)"/><path class="cls-1" d="M85.3,42.76a2.45,2.45,0,0,1-1-1.1,3.81,3.81,0,0,1-.35-1.73V37.57h2.14v2.18a1.23,1.23,0,0,0,.34.94,1.29,1.29,0,0,0,1,.33,1.24,1.24,0,0,0,1-.37,1.5,1.5,0,0,0,.35-1.06V39h.89v.61A4.54,4.54,0,0,1,89,42.25a2.36,2.36,0,0,1-2,.89A3.25,3.25,0,0,1,85.3,42.76Zm3.39-5.19h2.14v8.11H88.69Z" transform="translate(-4.33 -2.32)"/></g></g></svg>