<svg xmlns="http://www.w3.org/2000/svg" viewBox="0 0 87.27 49.57"><defs><style>.cls-1{fill:#28468c;}</style></defs><title>Ресурс 40</title><g id="Слой_2" data-name="Слой 2"><g id="Слой_1-2" data-name="Слой 1"><path class="cls-1" d="M18.09,2.47h3V14.54H19V5.16l.08.53-2.3,7.5h-2L12.48,5.86l.08-.7v9.38H10.5V2.47h3l2.3,8.13Z" transform="translate(-3.95 -2.47)"/><path class="cls-1" d="M23.85,14a2.65,2.65,0,0,1-.69-2,2.35,2.35,0,0,1,.77-1.92,3.51,3.51,0,0,1,2.3-.64h2.16l.12,1.73H26.24a1.2,1.2,0,0,0-.77.21.74.74,0,0,0-.26.62.67.67,0,0,0,.33.62,1.81,1.81,0,0,0,1,.21,3.3,3.3,0,0,0,1.35-.21.69.69,0,0,0,.45-.65l.17,1.25a1.13,1.13,0,0,1-.43.79,2.4,2.4,0,0,1-.94.49,4.29,4.29,0,0,1-1.2.16A2.86,2.86,0,0,1,23.85,14Zm4.47-4.93a1.14,1.14,0,0,0-.4-.92,1.79,1.79,0,0,0-1.13-.32,2.83,2.83,0,0,0-.95.16,2.59,2.59,0,0,0-.84.44L23.59,7A3.38,3.38,0,0,1,25,6.12a5.1,5.1,0,0,1,1.87-.33,4.49,4.49,0,0,1,1.93.38A2.77,2.77,0,0,1,30,7.27,3.46,3.46,0,0,1,30.38,9v5.54H28.32Z" transform="translate(-3.95 -2.47)"/><path class="cls-1" d="M32.63,5.92H34.9v8.62H32.63Zm1,3.2h4.44v2.19H33.61ZM36,10.9,38.05,10l2.33,4.51h-2.6Zm0-1.31L37.5,5.92h2.37l-2.2,5.15Z" transform="translate(-3.95 -2.47)"/><path class="cls-1" d="M42.58,14.22a3,3,0,0,1-1.27-1.28,4.38,4.38,0,0,1-.43-2V9.5a4.28,4.28,0,0,1,.43-2,2.94,2.94,0,0,1,1.27-1.27,4.83,4.83,0,0,1,4,0A2.94,2.94,0,0,1,47.88,7.5a4.28,4.28,0,0,1,.43,2v1.43a4.34,4.34,0,0,1-.43,2,3,3,0,0,1-1.27,1.27,4.83,4.83,0,0,1-4,0Zm3.08-2.15A1.62,1.62,0,0,0,46,10.93V9.5a1.58,1.58,0,0,0-.38-1.12A1.44,1.44,0,0,0,44.59,8a1.4,1.4,0,0,0-1.06.39,1.58,1.58,0,0,0-.38,1.12v1.43a1.61,1.61,0,0,0,.37,1.14,1.43,1.43,0,0,0,1.07.4A1.44,1.44,0,0,0,45.66,12.07Z" transform="translate(-3.95 -2.47)"/><path class="cls-1" d="M50.39,5.92h2.26v8.62H50.39Zm1.16,6.84h2.77a1.14,1.14,0,0,0,.78-.24.83.83,0,0,0,.28-.67v0a.78.78,0,0,0-.28-.65,1.14,1.14,0,0,0-.78-.24H51.55V9.16h2.77A1,1,0,0,0,55,9a.69.69,0,0,0,.23-.55A.66.66,0,0,0,55,7.88a1,1,0,0,0-.65-.18H51.55V5.92h3.26a3.17,3.17,0,0,1,2,.56,1.89,1.89,0,0,1,.7,1.58,2,2,0,0,1-.42,1.3,1.92,1.92,0,0,1-1.2.65,2.11,2.11,0,0,1,1.31.79,2.38,2.38,0,0,1,.47,1.5v0A2,2,0,0,1,56.92,14a3.46,3.46,0,0,1-2.13.58H51.55Z" transform="translate(-3.95 -2.47)"/><path class="cls-1" d="M61.14,14.21a3.08,3.08,0,0,1-1.35-1.32,4.39,4.39,0,0,1-.46-2.09v-1a5,5,0,0,1,.44-2.18,3.05,3.05,0,0,1,1.3-1.38,4.12,4.12,0,0,1,2-.48,3.29,3.29,0,0,1,1.94.57A3.52,3.52,0,0,1,66.28,8a7.1,7.1,0,0,1,.42,2.59v.57H60.81V9.62h3.81l0-.2a2,2,0,0,0-.47-1.15,1.32,1.32,0,0,0-1-.41,1.62,1.62,0,0,0-1.27.49,2,2,0,0,0-.45,1.39v1.09a1.8,1.8,0,0,0,.49,1.36,1.9,1.9,0,0,0,1.38.49A2.81,2.81,0,0,0,65,12.05l1.49,1.32a4.92,4.92,0,0,1-1.52,1,4.36,4.36,0,0,1-1.69.34A4.65,4.65,0,0,1,61.14,14.21Z" transform="translate(-3.95 -2.47)"/><path class="cls-1" d="M70.26,14.21a3.08,3.08,0,0,1-1.35-1.32,4.39,4.39,0,0,1-.47-2.09v-1a4.84,4.84,0,0,1,.45-2.18,3,3,0,0,1,1.29-1.38,4.13,4.13,0,0,1,2.06-.48,3.26,3.26,0,0,1,1.93.57A3.39,3.39,0,0,1,75.39,8a7.1,7.1,0,0,1,.42,2.59v.57H69.92V9.62h3.82l0-.2a1.93,1.93,0,0,0-.47-1.15,1.3,1.3,0,0,0-1-.41A1.64,1.64,0,0,0,71,8.35a2,2,0,0,0-.45,1.39v1.09A1.8,1.8,0,0,0,71,12.19a1.91,1.91,0,0,0,1.39.49,2.61,2.61,0,0,0,.9-.17,2.5,2.5,0,0,0,.81-.46l1.49,1.32a4.88,4.88,0,0,1-1.51,1,4.4,4.4,0,0,1-1.69.34A4.65,4.65,0,0,1,70.26,14.21Z" transform="translate(-3.95 -2.47)"/><path class="cls-1" d="M77.81,5.92h2.26v8.62H77.81ZM79,12.76h2.77a1.14,1.14,0,0,0,.78-.24.86.86,0,0,0,.27-.67v0a.8.8,0,0,0-.27-.65,1.14,1.14,0,0,0-.78-.24H79V9.16h2.77A1,1,0,0,0,82.4,9a.66.66,0,0,0,.24-.55.64.64,0,0,0-.24-.53,1,1,0,0,0-.64-.18H79V5.92h3.26a3.14,3.14,0,0,1,2,.56,1.9,1.9,0,0,1,.71,1.58,2,2,0,0,1-.42,1.3,2,2,0,0,1-1.2.65,2.14,2.14,0,0,1,1.31.79,2.38,2.38,0,0,1,.47,1.5v0A1.93,1.93,0,0,1,84.33,14a3.45,3.45,0,0,1-2.12.58H79Z" transform="translate(-3.95 -2.47)"/><path class="cls-1" d="M9.56,19.47H11l4.61,12.07H13.17l-2.89-8.25L7.39,31.54H5Zm-2.4,7.94h6.35V29.6H7.16Z" transform="translate(-3.95 -2.47)"/><path class="cls-1" d="M16.37,29.42a1.08,1.08,0,0,0,.85-.35,1.43,1.43,0,0,0,.3-1V22.92h2.13v5.41a3.86,3.86,0,0,1-.37,1.77,2.5,2.5,0,0,1-1.06,1.12,3.43,3.43,0,0,1-1.69.39h-.16Zm2.37-6.5h4.48v2.19H18.74Zm3.16,0h2.28v8.62H21.9Z" transform="translate(-3.95 -2.47)"/><path class="cls-1" d="M28.07,31.21a3.08,3.08,0,0,1-1.35-1.32,4.39,4.39,0,0,1-.47-2.09v-1a4.84,4.84,0,0,1,.45-2.18A3,3,0,0,1,28,23.27a4.16,4.16,0,0,1,2.06-.48,3.24,3.24,0,0,1,1.93.57A3.47,3.47,0,0,1,33.21,25a7.1,7.1,0,0,1,.42,2.59v.57h-5.9V26.62h3.82l0-.2a2.06,2.06,0,0,0-.47-1.15,1.32,1.32,0,0,0-1-.41,1.66,1.66,0,0,0-1.28.49,2,2,0,0,0-.45,1.39v1.09a1.84,1.84,0,0,0,.49,1.36,1.91,1.91,0,0,0,1.39.49,2.61,2.61,0,0,0,.9-.17,2.66,2.66,0,0,0,.82-.46l1.48,1.32a4.88,4.88,0,0,1-1.51.95,4.4,4.4,0,0,1-1.69.34A4.65,4.65,0,0,1,28.07,31.21Z" transform="translate(-3.95 -2.47)"/><path class="cls-1" d="M35.62,22.92h2.27v8.62H35.62Zm1,3.2h4.44v2.19H36.61ZM39,27.9,41,27l2.33,4.51h-2.6Zm0-1.31,1.51-3.67h2.37l-2.2,5.15Z" transform="translate(-3.95 -2.47)"/><path class="cls-1" d="M45.66,31.19a3.07,3.07,0,0,1-1.33-1.36,4.65,4.65,0,0,1-.46-2.16v-.92a4.54,4.54,0,0,1,.46-2.14,3,3,0,0,1,1.33-1.35,4.4,4.4,0,0,1,2.1-.47,5.15,5.15,0,0,1,1.33.17,3.94,3.94,0,0,1,1.13.46,3.16,3.16,0,0,1,.83.75L49.58,25.6A2.42,2.42,0,0,0,48,25a1.81,1.81,0,0,0-1.33.46,1.71,1.71,0,0,0-.48,1.3v.92A1.78,1.78,0,0,0,46.62,29a1.81,1.81,0,0,0,1.33.47,2.26,2.26,0,0,0,.9-.18,2,2,0,0,0,.73-.49l1.47,1.51a3.3,3.3,0,0,1-.84.73,4,4,0,0,1-1.12.46,5.16,5.16,0,0,1-1.33.16A4.4,4.4,0,0,1,45.66,31.19Z" transform="translate(-3.95 -2.47)"/><path class="cls-1" d="M52.85,31a2.69,2.69,0,0,1-.68-2,2.35,2.35,0,0,1,.77-1.92,3.51,3.51,0,0,1,2.3-.64H57.4l.12,1.73H55.25a1.2,1.2,0,0,0-.77.21.74.74,0,0,0-.26.62.68.68,0,0,0,.32.62,1.85,1.85,0,0,0,1,.21,3.32,3.32,0,0,0,1.36-.21.69.69,0,0,0,.45-.65l.17,1.25a1.16,1.16,0,0,1-.43.79,2.47,2.47,0,0,1-.94.49,4.29,4.29,0,0,1-1.2.16A2.9,2.9,0,0,1,52.85,31Zm4.48-4.93a1.14,1.14,0,0,0-.4-.92,1.81,1.81,0,0,0-1.13-.32,2.93,2.93,0,0,0-1,.16,2.64,2.64,0,0,0-.83.44L52.59,24A3.52,3.52,0,0,1,54,23.12a5.15,5.15,0,0,1,1.88-.33,4.52,4.52,0,0,1,1.93.38A2.7,2.7,0,0,1,59,24.27,3.36,3.36,0,0,1,59.39,26v5.54H57.33Z" transform="translate(-3.95 -2.47)"/><path class="cls-1" d="M61.63,22.92h2.28v8.62H61.63Zm1.22,3.33h5.29v2.11H62.85Zm4-3.33H69.1v8.62H66.83Z" transform="translate(-3.95 -2.47)"/><path class="cls-1" d="M71.08,29.43h8.46v2.11H71.08Zm0,0h2V33.7h-2Zm.31,0h.2a.8.8,0,0,0,.65-.26,1.61,1.61,0,0,0,.28-.75,11.17,11.17,0,0,0,.06-1.31V22.92h2.28v4.75a2.81,2.81,0,0,1-.7,2.08,2.65,2.65,0,0,1-2,.71H72Zm2.16-6.51h4.16V25H73.55Zm3.26,0h2.28v8.62H76.81Zm1.41,6.51h2V33.7h-2Z" transform="translate(-3.95 -2.47)"/><path class="cls-1" d="M82.14,22.92h2.27V35H82.14Zm3,8.35a2.23,2.23,0,0,1-.82-1.09l.12-2a1.61,1.61,0,0,0,.15.73,1,1,0,0,0,.44.45,1.35,1.35,0,0,0,.69.16,1.22,1.22,0,0,0,1-.42,1.79,1.79,0,0,0,.35-1.2V26.56a1.87,1.87,0,0,0-.35-1.22,1.21,1.21,0,0,0-1-.44,1.46,1.46,0,0,0-.69.16,1.11,1.11,0,0,0-.44.47,1.73,1.73,0,0,0-.15.75l-.17-1.91a2.83,2.83,0,0,1,.91-1.16,2.08,2.08,0,0,1,1.26-.42,2.78,2.78,0,0,1,1.57.44,2.84,2.84,0,0,1,1,1.29,5.56,5.56,0,0,1,.34,2v1.38A5.5,5.5,0,0,1,89,30a2.59,2.59,0,0,1-2.56,1.71A2.17,2.17,0,0,1,85.11,31.27Z" transform="translate(-3.95 -2.47)"/><path class="cls-1" d="M4,36.46H6.22V48.53H4Zm.82,0h6.28v2.2H4.77Z" transform="translate(-3.95 -2.47)"/><path class="cls-1" d="M12.86,48.21a3.18,3.18,0,0,1-1.35-1.32,4.39,4.39,0,0,1-.46-2.09v-1a5.06,5.06,0,0,1,.44-2.19,3.08,3.08,0,0,1,1.3-1.37,4.09,4.09,0,0,1,2.05-.48,3.24,3.24,0,0,1,1.93.57A3.42,3.42,0,0,1,18,42a7.1,7.1,0,0,1,.42,2.59v.57h-5.9V43.62h3.82l0-.2a2,2,0,0,0-.47-1.15,1.32,1.32,0,0,0-1-.41,1.62,1.62,0,0,0-1.27.49,1.94,1.94,0,0,0-.46,1.39v1.09a1.8,1.8,0,0,0,.5,1.36,1.9,1.9,0,0,0,1.38.48,2.78,2.78,0,0,0,1.72-.62l1.48,1.32a4.76,4.76,0,0,1-1.51,1,4.4,4.4,0,0,1-1.69.34A4.65,4.65,0,0,1,12.86,48.21Z" transform="translate(-3.95 -2.47)"/><path class="cls-1" d="M21.87,48.22a2.91,2.91,0,0,1-1.27-1.28,4.38,4.38,0,0,1-.44-2V43.5a4.28,4.28,0,0,1,.44-2,2.89,2.89,0,0,1,1.27-1.27,4.81,4.81,0,0,1,4,0,2.89,2.89,0,0,1,1.27,1.27,4.28,4.28,0,0,1,.44,2v1.43a4.26,4.26,0,0,1-.44,2,2.91,2.91,0,0,1-1.27,1.28,4.81,4.81,0,0,1-4,0Zm3.07-2.16a1.53,1.53,0,0,0,.38-1.13V43.5a1.54,1.54,0,0,0-.38-1.12,1.65,1.65,0,0,0-2.13,0,1.58,1.58,0,0,0-.37,1.12v1.43a1.57,1.57,0,0,0,.37,1.13,1.37,1.37,0,0,0,1.06.41A1.39,1.39,0,0,0,24.94,46.06Z" transform="translate(-3.95 -2.47)"/><path class="cls-1" d="M29.67,39.92H32V52H29.67Zm3,8.35a2.23,2.23,0,0,1-.82-1.09l.12-2a1.61,1.61,0,0,0,.15.73,1,1,0,0,0,.43.45,1.39,1.39,0,0,0,.7.16,1.23,1.23,0,0,0,1-.42,1.86,1.86,0,0,0,.35-1.2V43.56a1.93,1.93,0,0,0-.35-1.22,1.22,1.22,0,0,0-1-.44,1.51,1.51,0,0,0-.7.16,1.09,1.09,0,0,0-.43.47,1.73,1.73,0,0,0-.15.75l-.18-1.91a3,3,0,0,1,.92-1.17A2.13,2.13,0,0,1,34,39.79a2.73,2.73,0,0,1,1.56.44,2.79,2.79,0,0,1,1,1.29,5.56,5.56,0,0,1,.34,2v1.38a5.41,5.41,0,0,1-.34,2A2.61,2.61,0,0,1,34,48.66,2.17,2.17,0,0,1,32.65,48.27Z" transform="translate(-3.95 -2.47)"/><path class="cls-1" d="M38.92,39.92H41.2v8.61H38.92Zm.83,0h5v2.19h-5Z" transform="translate(-3.95 -2.47)"/><path class="cls-1" d="M51.43,48.53V42.82l.2.22-3.48,5.49h-2V39.92h2.18v5.84l-.2-.21,3.5-5.63h2v8.61Z" transform="translate(-3.95 -2.47)"/><path class="cls-1" d="M57.49,48.21a3.22,3.22,0,0,1-1.34-1.32,4.39,4.39,0,0,1-.47-2.09v-1a4.92,4.92,0,0,1,.45-2.19,3,3,0,0,1,1.29-1.37,4.12,4.12,0,0,1,2-.48,3.27,3.27,0,0,1,1.94.57A3.41,3.41,0,0,1,62.63,42a7.1,7.1,0,0,1,.42,2.59v.57H57.16V43.62H61l0-.2a2,2,0,0,0-.47-1.15,1.32,1.32,0,0,0-1-.41,1.64,1.64,0,0,0-1.27.49,2,2,0,0,0-.45,1.39v1.09a1.8,1.8,0,0,0,.49,1.36,1.9,1.9,0,0,0,1.38.48,2.61,2.61,0,0,0,.91-.16,2.5,2.5,0,0,0,.81-.46l1.49,1.32a4.88,4.88,0,0,1-1.51,1,4.45,4.45,0,0,1-1.7.34A4.65,4.65,0,0,1,57.49,48.21Z" transform="translate(-3.95 -2.47)"/><path class="cls-1" d="M65,39.92h2.27v8.61H65Zm1.17,6.84H69a1.14,1.14,0,0,0,.78-.24.87.87,0,0,0,.27-.68v0a.84.84,0,0,0-.27-.66,1.19,1.19,0,0,0-.78-.23H66.21V43.16H69a1,1,0,0,0,.66-.2.66.66,0,0,0,.24-.55.64.64,0,0,0-.24-.53,1,1,0,0,0-.64-.19H66.21V39.92h3.26a3.08,3.08,0,0,1,2,.56,1.9,1.9,0,0,1,.71,1.58,2,2,0,0,1-.43,1.3,1.92,1.92,0,0,1-1.19.65,2.17,2.17,0,0,1,1.31.78,2.42,2.42,0,0,1,.46,1.51v0A2,2,0,0,1,71.57,48a3.46,3.46,0,0,1-2.13.57H66.21Z" transform="translate(-3.95 -2.47)"/><path class="cls-1" d="M79.48,48.53V42.82l.2.22L76.2,48.53h-2V39.92h2.18v5.84l-.2-.21,3.49-5.63h2v8.61Z" transform="translate(-3.95 -2.47)"/><path class="cls-1" d="M85.34,45.43a2.59,2.59,0,0,1-1.08-1.16,4.33,4.33,0,0,1-.36-1.85v-2.5h2.27v2.31a1.32,1.32,0,0,0,.36,1,1.38,1.38,0,0,0,1,.36,1.36,1.36,0,0,0,1-.4,1.62,1.62,0,0,0,.36-1.12v-.62h1v.64a4.88,4.88,0,0,1-.67,2.8,2.48,2.48,0,0,1-2.17,1A3.43,3.43,0,0,1,85.34,45.43Zm3.6-5.51h2.28v8.61H88.94Z" transform="translate(-3.95 -2.47)"/></g></g></svg>