<svg xmlns="http://www.w3.org/2000/svg" viewBox="0 0 89.38 44.66"><defs><style>.cls-1{fill:#fff;}</style></defs><title>Ресурс 35</title><g id="Слой_2" data-name="Слой 2"><g id="Слой_1-2" data-name="Слой 1"><path class="cls-1" d="M19.48,2.32H22.3V13.68H20.35V4.86l.08.5-2.17,7.05H16.37L14.2,5.52l.07-.66v8.82H12.33V2.32h2.82L17.31,10Z" transform="translate(-2.23 -2.32)"/><path class="cls-1" d="M24.17,2.32h2.28l3.34,8.13-1.34,1.9Zm6.06,9a6.46,6.46,0,0,1-.69,1.37,2.74,2.74,0,0,1-.92.82,2.67,2.67,0,0,1-1.24.28H26.06v-2h.85a1.38,1.38,0,0,0,.65-.15,1.42,1.42,0,0,0,.5-.45,2.84,2.84,0,0,0,.39-.76l2.89-8.08h2.21Z" transform="translate(-2.23 -2.32)"/><path class="cls-1" d="M34.87,2.32H37V13.68H34.87Zm1,0h6.61V4.38H35.87Zm5.22,0h2.14V13.68H41.09Z" transform="translate(-2.23 -2.32)"/><path class="cls-1" d="M52.54,7.86l1.94.82-3,5H48.78ZM49.26,2.32h2.47l2.75,5.13L52.89,8.84ZM52.69,7H60.2V9.07H52.69Zm2.68-4.69h2.15V13.68H55.37Zm3,6.36,1.94-.82,3.76,5.82H61.43Zm0-1.23,2.75-5.13h2.47L60,8.84Z" transform="translate(-2.23 -2.32)"/><path class="cls-1" d="M65.52,2.32h2.14V13.68H65.52ZM66.45,7h4V9.07h-4Zm2.22,1.67,2-.82,3.91,5.82H71.85Zm0-1.23,2.91-5.13h2.46L70.27,8.84Z" transform="translate(-2.23 -2.32)"/><path class="cls-1" d="M78.94,6.69l2.55-4.37h2.26L80,8.74,77.1,13.68H74.84Zm0,2.34-.21-.37L74.94,2.32H77.2l2.54,4.31.3.5,3.88,6.55H81.66Z" transform="translate(-2.23 -2.32)"/><path class="cls-1" d="M2.23,17.32h8.32v2.06H2.23Zm3.09.93H7.46V28.68H5.32Z" transform="translate(-2.23 -2.32)"/><path class="cls-1" d="M11.85,28.38a2.78,2.78,0,0,1-1.2-1.2,4.17,4.17,0,0,1-.41-1.91V24a4.06,4.06,0,0,1,.41-1.89,2.84,2.84,0,0,1,1.2-1.2,4.06,4.06,0,0,1,1.89-.41,4.13,4.13,0,0,1,1.9.41,2.81,2.81,0,0,1,1.19,1.2A3.94,3.94,0,0,1,17.24,24v1.34a3.94,3.94,0,0,1-.41,1.89,2.71,2.71,0,0,1-1.19,1.2,4,4,0,0,1-1.9.42A3.94,3.94,0,0,1,11.85,28.38Zm2.89-2a1.51,1.51,0,0,0,.36-1.07V24a1.46,1.46,0,0,0-.36-1.06,1.32,1.32,0,0,0-1-.37,1.3,1.3,0,0,0-1,.37A1.46,1.46,0,0,0,12.38,24v1.34a1.55,1.55,0,0,0,.35,1.07,1.31,1.31,0,0,0,1,.37A1.32,1.32,0,0,0,14.74,26.36Z" transform="translate(-2.23 -2.32)"/><path class="cls-1" d="M19.2,21.39a4.44,4.44,0,0,1,.37-2,2.32,2.32,0,0,1,1.15-1.12,5.24,5.24,0,0,1,2-.37,2,2,0,0,0,.49-.07.52.52,0,0,0,.29-.2.66.66,0,0,0,.08-.34H25.8a2.81,2.81,0,0,1-.3,1.39,1.77,1.77,0,0,1-.94.79,4.53,4.53,0,0,1-1.67.26,2.1,2.1,0,0,0-.94.18,1.1,1.1,0,0,0-.52.58,2.52,2.52,0,0,0-.17,1v2.8H19.2Zm1.6,7a2.76,2.76,0,0,1-1.19-1.2,4,4,0,0,1-.41-1.91V23.79l1.67-1.18a2.37,2.37,0,0,1,.74-1.38,2.2,2.2,0,0,1,1.48-.46,3.16,3.16,0,0,1,1.67.41,2.64,2.64,0,0,1,1.07,1.19,4.48,4.48,0,0,1,.37,1.89v1a4.06,4.06,0,0,1-.41,1.89,2.78,2.78,0,0,1-1.2,1.2,4,4,0,0,1-1.89.42A4,4,0,0,1,20.8,28.38Zm2.9-2a1.55,1.55,0,0,0,.35-1.07v-1a1.5,1.5,0,0,0-.35-1.06,1.34,1.34,0,0,0-1-.37,1.31,1.31,0,0,0-1,.37,1.46,1.46,0,0,0-.35,1.06v1a1.5,1.5,0,0,0,.35,1.07,1.28,1.28,0,0,0,1,.37A1.34,1.34,0,0,0,23.7,26.36Z" transform="translate(-2.23 -2.32)"/><path class="cls-1" d="M29.52,28.38a2.84,2.84,0,0,1-1.2-1.2,4.17,4.17,0,0,1-.41-1.91V24a4.06,4.06,0,0,1,.41-1.89,2.89,2.89,0,0,1,1.2-1.2,4.06,4.06,0,0,1,1.89-.41,4.1,4.1,0,0,1,1.9.41,2.81,2.81,0,0,1,1.19,1.2A3.94,3.94,0,0,1,34.91,24v1.34a3.94,3.94,0,0,1-.41,1.89,2.71,2.71,0,0,1-1.19,1.2,4,4,0,0,1-1.9.42A3.94,3.94,0,0,1,29.52,28.38Zm2.89-2a1.51,1.51,0,0,0,.36-1.07V24a1.46,1.46,0,0,0-.36-1.06,1.54,1.54,0,0,0-2,0A1.46,1.46,0,0,0,30.05,24v1.34a1.51,1.51,0,0,0,.36,1.07,1.28,1.28,0,0,0,1,.37A1.31,1.31,0,0,0,32.41,26.36Z" transform="translate(-2.23 -2.32)"/><path class="cls-1" d="M35.93,26.69a1,1,0,0,0,.8-.33,1.32,1.32,0,0,0,.29-.91V20.57h2v5.09a3.68,3.68,0,0,1-.35,1.67,2.44,2.44,0,0,1-1,1.06,3.26,3.26,0,0,1-1.58.36h-.16Zm2.23-6.12h4.21v2.06H38.16Zm3,0h2.14v8.11H41.14Z" transform="translate(-2.23 -2.32)"/><path class="cls-1" d="M45.47,20.57h2.14v8.11H45.47Zm1.08,6.05h2.71a.81.81,0,0,0,.61-.25,1,1,0,0,0,.22-.67,1.06,1.06,0,0,0-.1-.48.85.85,0,0,0-.29-.33.93.93,0,0,0-.44-.11H46.55V23h2.8a3,3,0,0,1,1.48.36,2.47,2.47,0,0,1,1,1,3,3,0,0,1,.36,1.5,3.13,3.13,0,0,1-.35,1.5,2.51,2.51,0,0,1-1,1,3,3,0,0,1-1.49.36h-2.8Z" transform="translate(-2.23 -2.32)"/><path class="cls-1" d="M55.39,28.36a3,3,0,0,1-1.26-1.29,4.51,4.51,0,0,1-.43-2v-.87a4.42,4.42,0,0,1,.43-2,3,3,0,0,1,1.26-1.27,4.19,4.19,0,0,1,2-.44,4.6,4.6,0,0,1,1.25.16,3.59,3.59,0,0,1,1.06.44,2.76,2.76,0,0,1,.78.7l-1.38,1.34a2.14,2.14,0,0,0-.7-.42,2.31,2.31,0,0,0-.83-.15,1.72,1.72,0,0,0-1.26.43,1.62,1.62,0,0,0-.45,1.22V25a1.66,1.66,0,0,0,.45,1.25,1.68,1.68,0,0,0,1.26.44,2.2,2.2,0,0,0,.84-.16,2,2,0,0,0,.69-.47l1.38,1.42a2.93,2.93,0,0,1-.79.69,3.53,3.53,0,0,1-1.05.44,5,5,0,0,1-1.25.15A4.19,4.19,0,0,1,55.39,28.36Z" transform="translate(-2.23 -2.32)"/><path class="cls-1" d="M61.91,20.57h2.14v8.11H61.91Zm.93,3H67v2.06H62.84Zm2.22,1.67,2-.82,2.19,4.24H66.76Zm0-1.24,1.42-3.45h2.24l-2.07,4.85Z" transform="translate(-2.23 -2.32)"/><path class="cls-1" d="M71.28,28.38a2.78,2.78,0,0,1-1.2-1.2,4.17,4.17,0,0,1-.41-1.91V24a4.06,4.06,0,0,1,.41-1.89,2.84,2.84,0,0,1,1.2-1.2,4.06,4.06,0,0,1,1.89-.41,4.13,4.13,0,0,1,1.9.41,2.81,2.81,0,0,1,1.19,1.2A3.94,3.94,0,0,1,76.67,24v1.34a3.94,3.94,0,0,1-.41,1.89,2.71,2.71,0,0,1-1.19,1.2,4,4,0,0,1-1.9.42A3.94,3.94,0,0,1,71.28,28.38Zm2.89-2a1.51,1.51,0,0,0,.36-1.07V24a1.46,1.46,0,0,0-.36-1.06,1.32,1.32,0,0,0-1-.37,1.3,1.3,0,0,0-1,.37A1.46,1.46,0,0,0,71.81,24v1.34a1.55,1.55,0,0,0,.35,1.07,1.55,1.55,0,0,0,2,0Z" transform="translate(-2.23 -2.32)"/><path class="cls-1" d="M78.62,20.57h2.15v8.11H78.62Zm.79,0h4.72v2.06H79.41Z" transform="translate(-2.23 -2.32)"/><path class="cls-1" d="M86.21,28.38a2.78,2.78,0,0,1-1.2-1.2,4.17,4.17,0,0,1-.41-1.91V24A4.06,4.06,0,0,1,85,22.06a2.84,2.84,0,0,1,1.2-1.2,4.06,4.06,0,0,1,1.89-.41,4.13,4.13,0,0,1,1.9.41,2.81,2.81,0,0,1,1.19,1.2A4.06,4.06,0,0,1,91.6,24v1.34a4.06,4.06,0,0,1-.41,1.89A2.71,2.71,0,0,1,90,28.38a4,4,0,0,1-1.9.42A3.94,3.94,0,0,1,86.21,28.38Zm2.89-2a1.51,1.51,0,0,0,.36-1.07V24a1.46,1.46,0,0,0-.36-1.06,1.32,1.32,0,0,0-1-.37,1.29,1.29,0,0,0-1,.37A1.46,1.46,0,0,0,86.74,24v1.34a1.55,1.55,0,0,0,.35,1.07,1.55,1.55,0,0,0,2,0Z" transform="translate(-2.23 -2.32)"/><path class="cls-1" d="M22.17,35.57h2.14V47H22.17ZM25,43.43a2.11,2.11,0,0,1-.77-1l.11-1.86a1.52,1.52,0,0,0,.14.68,1,1,0,0,0,.41.43,1.34,1.34,0,0,0,.66.15,1.13,1.13,0,0,0,.93-.4,1.7,1.7,0,0,0,.33-1.12V39a1.77,1.77,0,0,0-.33-1.15,1.11,1.11,0,0,0-.93-.41,1.34,1.34,0,0,0-.66.15,1,1,0,0,0-.41.44,1.65,1.65,0,0,0-.14.7l-.16-1.79a2.68,2.68,0,0,1,.86-1.1,2,2,0,0,1,1.19-.39,2.54,2.54,0,0,1,1.47.42,2.5,2.5,0,0,1,.93,1.21A5.19,5.19,0,0,1,28.92,39v1.3a5,5,0,0,1-.32,1.89,2.48,2.48,0,0,1-.93,1.2,2.54,2.54,0,0,1-1.47.42A2,2,0,0,1,25,43.43Z" transform="translate(-2.23 -2.32)"/><path class="cls-1" d="M31.13,43.18a2.53,2.53,0,0,1-.65-1.89,2.25,2.25,0,0,1,.73-1.81,3.31,3.31,0,0,1,2.16-.6h2l.11,1.64H33.38a1.13,1.13,0,0,0-.72.19.75.75,0,0,0,.06,1.17,1.73,1.73,0,0,0,.92.19,3.41,3.41,0,0,0,1.28-.19.65.65,0,0,0,.42-.61l.16,1.18a1.14,1.14,0,0,1-.4.74,2.41,2.41,0,0,1-.89.45,3.86,3.86,0,0,1-1.13.16A2.73,2.73,0,0,1,31.13,43.18Zm4.21-4.64a1.07,1.07,0,0,0-.38-.87,1.65,1.65,0,0,0-1.06-.3,2.83,2.83,0,0,0-.9.15,2.38,2.38,0,0,0-.79.41l-1.33-1.3a3.2,3.2,0,0,1,1.28-.87,5,5,0,0,1,1.77-.31,4.14,4.14,0,0,1,1.81.36,2.62,2.62,0,0,1,1.15,1,3.2,3.2,0,0,1,.39,1.63v5.21H35.34Z" transform="translate(-2.23 -2.32)"/><path class="cls-1" d="M44.33,43.67V38.3l.19.21-3.28,5.16H39.39v-8.1h2v5.5l-.19-.2,3.29-5.3h1.83v8.1ZM40.89,33.49a3.6,3.6,0,0,1-.64-2.33H42a2.62,2.62,0,0,0,.2,1.16.66.66,0,0,0,.61.39H43a.65.65,0,0,0,.61-.39,2.47,2.47,0,0,0,.21-1.16h1.75a3.6,3.6,0,0,1-.65,2.33,2.32,2.32,0,0,1-1.92.78h-.14A2.35,2.35,0,0,1,40.89,33.49Z" transform="translate(-2.23 -2.32)"/><path class="cls-1" d="M49.93,43.38a2.76,2.76,0,0,1-1.19-1.2,4,4,0,0,1-.41-1.91V39a3.94,3.94,0,0,1,.41-1.89,2.81,2.81,0,0,1,1.19-1.2,4.13,4.13,0,0,1,1.9-.41,4.06,4.06,0,0,1,1.89.41,2.84,2.84,0,0,1,1.2,1.2A4.06,4.06,0,0,1,55.33,39v1.34a4.06,4.06,0,0,1-.41,1.89,2.73,2.73,0,0,1-1.2,1.2,3.94,3.94,0,0,1-1.89.42A4,4,0,0,1,49.93,43.38Zm2.9-2a1.51,1.51,0,0,0,.36-1.07V39a1.46,1.46,0,0,0-.36-1.06,1.34,1.34,0,0,0-1-.37,1.31,1.31,0,0,0-1,.37A1.5,1.5,0,0,0,50.47,39v1.34a1.55,1.55,0,0,0,.35,1.07,1.3,1.3,0,0,0,1,.37A1.34,1.34,0,0,0,52.83,41.36Z" transform="translate(-2.23 -2.32)"/><path class="cls-1" d="M57.28,35.57h2.14v8.11H57.28Zm1.15,3.13h5v2h-5Zm3.74-3.13h2.14v8.11H62.17Z" transform="translate(-2.23 -2.32)"/><path class="cls-1" d="M66.75,43.18a2.53,2.53,0,0,1-.64-1.89,2.24,2.24,0,0,1,.72-1.81,3.34,3.34,0,0,1,2.17-.6h2l.11,1.64H69a1.14,1.14,0,0,0-.73.19.69.69,0,0,0-.24.58.66.66,0,0,0,.3.59,1.77,1.77,0,0,0,.93.19,3.35,3.35,0,0,0,1.27-.19.65.65,0,0,0,.42-.61l.16,1.18a1.1,1.1,0,0,1-.4.74,2.26,2.26,0,0,1-.89.45,3.77,3.77,0,0,1-1.13.16A2.73,2.73,0,0,1,66.75,43.18ZM71,38.54a1.06,1.06,0,0,0-.37-.87,1.68,1.68,0,0,0-1.07-.3,2.83,2.83,0,0,0-.9.15,2.43,2.43,0,0,0-.78.41l-1.33-1.3a3.13,3.13,0,0,1,1.28-.87,5,5,0,0,1,1.76-.31,4.19,4.19,0,0,1,1.82.36,2.54,2.54,0,0,1,1.14,1,3.2,3.2,0,0,1,.4,1.63v5.21H71Z" transform="translate(-2.23 -2.32)"/></g></g></svg>