<svg xmlns="http://www.w3.org/2000/svg" viewBox="0 0 87.26 49.7"><defs><style>.cls-1{fill:#28468c;}</style></defs><title>Ресурс 44</title><g id="Слой_2" data-name="Слой 2"><g id="Слой_1-2" data-name="Слой 1"><path class="cls-1" d="M18.37,14.13a3.5,3.5,0,0,1-1.49-1.53,5.26,5.26,0,0,1-.52-2.44V6.85a5.23,5.23,0,0,1,.52-2.44,3.57,3.57,0,0,1,1.49-1.54,5,5,0,0,1,2.36-.53,4.09,4.09,0,0,1,2,.49,4,4,0,0,1,1.48,1.42,6.24,6.24,0,0,1,.81,2.26H22.7a3.16,3.16,0,0,0-.41-1,2,2,0,0,0-.68-.65,1.72,1.72,0,0,0-.88-.22,2.07,2.07,0,0,0-1.09.26,1.63,1.63,0,0,0-.68.76,2.81,2.81,0,0,0-.24,1.21v3.31a2.73,2.73,0,0,0,.24,1.2,1.58,1.58,0,0,0,.68.76,2.07,2.07,0,0,0,1.09.26,1.93,1.93,0,0,0,.9-.21,2,2,0,0,0,.67-.65,3.12,3.12,0,0,0,.4-1h2.35a6.24,6.24,0,0,1-.81,2.26,4,4,0,0,1-3.51,1.91A5,5,0,0,1,18.37,14.13Z" transform="translate(-3.95 -2.34)"/><path class="cls-1" d="M26.05,5.92h2.14l2.9,7.49-1.44,1.83Zm8,0L30.18,16.55a2.87,2.87,0,0,1-.54.94,1.8,1.8,0,0,1-.79.49,3.84,3.84,0,0,1-1.16.15h-.5V15.92h.5a1,1,0,0,0,.61-.16.93.93,0,0,0,.37-.53l3.2-9.31Z" transform="translate(-3.95 -2.34)"/><path class="cls-1" d="M37.39,9.78l1.35,1.56-2,3.2H34.34ZM37.8,11,34.48,5.92H37L39.05,9.4l3.38,5.14h-2.5Zm.39-2,1.6-3.05h2.5l-2.76,4.65Z" transform="translate(-3.95 -2.34)"/><path class="cls-1" d="M44.23,14a2.69,2.69,0,0,1-.68-2,2.32,2.32,0,0,1,.77-1.92,3.51,3.51,0,0,1,2.3-.64h2.16l.11,1.73H46.63a1.18,1.18,0,0,0-.77.21.71.71,0,0,0-.26.62.68.68,0,0,0,.32.62,1.83,1.83,0,0,0,1,.21,3.35,3.35,0,0,0,1.36-.21A.69.69,0,0,0,48.7,12l.18,1.25a1.2,1.2,0,0,1-.43.79,2.45,2.45,0,0,1-1,.49,4.29,4.29,0,0,1-1.2.16A2.89,2.89,0,0,1,44.23,14ZM48.7,9.07a1.11,1.11,0,0,0-.4-.92,1.76,1.76,0,0,0-1.12-.32,2.93,2.93,0,0,0-1,.16,2.81,2.81,0,0,0-.84.44L44,7a3.52,3.52,0,0,1,1.36-.92,5.15,5.15,0,0,1,1.88-.33,4.47,4.47,0,0,1,1.92.38,2.67,2.67,0,0,1,1.22,1.1A3.36,3.36,0,0,1,50.77,9v5.54H48.7Z" transform="translate(-3.95 -2.34)"/><path class="cls-1" d="M54.38,11.43a2.48,2.48,0,0,1-1.08-1.16,4.17,4.17,0,0,1-.37-1.84V5.92H55.2V8.23a1.36,1.36,0,0,0,.36,1,1.42,1.42,0,0,0,1,.35,1.31,1.31,0,0,0,1-.4A1.62,1.62,0,0,0,58,8.07V7.45h.94v.64a4.8,4.8,0,0,1-.67,2.8,2.48,2.48,0,0,1-2.17.95A3.37,3.37,0,0,1,54.38,11.43ZM58,5.92h2.27v8.62H58Z" transform="translate(-3.95 -2.34)"/><path class="cls-1" d="M64.14,14.21a3.08,3.08,0,0,1-1.35-1.32,4.39,4.39,0,0,1-.47-2.09v-1a4.84,4.84,0,0,1,.45-2.18,3.09,3.09,0,0,1,1.29-1.38,4.16,4.16,0,0,1,2.06-.48,3.24,3.24,0,0,1,1.93.57A3.47,3.47,0,0,1,69.28,8a7.1,7.1,0,0,1,.42,2.59v.57H63.8V9.62h3.82l0-.2a2.06,2.06,0,0,0-.47-1.15,1.33,1.33,0,0,0-1-.41,1.66,1.66,0,0,0-1.28.49,2,2,0,0,0-.45,1.39v1.09a1.8,1.8,0,0,0,.5,1.36,1.89,1.89,0,0,0,1.38.49,2.61,2.61,0,0,0,.9-.17,2.66,2.66,0,0,0,.82-.46l1.48,1.32a4.88,4.88,0,0,1-1.51,1,4.4,4.4,0,0,1-1.69.34A4.65,4.65,0,0,1,64.14,14.21Z" transform="translate(-3.95 -2.34)"/><path class="cls-1" d="M71.69,5.92H74v8.62H71.69Zm1.16,6.84h2.77a1.14,1.14,0,0,0,.78-.24.83.83,0,0,0,.28-.67v0a.78.78,0,0,0-.28-.65,1.14,1.14,0,0,0-.78-.24H72.85V9.16h2.77a1,1,0,0,0,.67-.2.69.69,0,0,0,.23-.55.66.66,0,0,0-.23-.53,1,1,0,0,0-.65-.18H72.85V5.92h3.26a3.14,3.14,0,0,1,2,.56,1.9,1.9,0,0,1,.71,1.58,2,2,0,0,1-.42,1.3,1.94,1.94,0,0,1-1.2.65,2.11,2.11,0,0,1,1.31.79A2.38,2.38,0,0,1,79,12.3v0A2,2,0,0,1,78.22,14a3.46,3.46,0,0,1-2.13.58H72.85Z" transform="translate(-3.95 -2.34)"/><path class="cls-1" d="M23.42,31.13a3.57,3.57,0,0,1-1.5-1.53,5.39,5.39,0,0,1-.51-2.44V23.85a5.36,5.36,0,0,1,.51-2.44,3.65,3.65,0,0,1,1.5-1.54,4.93,4.93,0,0,1,2.36-.53,4.15,4.15,0,0,1,2,.49,4,4,0,0,1,1.48,1.42,6.24,6.24,0,0,1,.81,2.26H27.74a3,3,0,0,0-.41-1,2,2,0,0,0-.67-.65,1.74,1.74,0,0,0-.88-.22,2.07,2.07,0,0,0-1.09.26,1.7,1.7,0,0,0-.69.76,3,3,0,0,0-.23,1.21v3.31a2.89,2.89,0,0,0,.23,1.2,1.65,1.65,0,0,0,.69.76,2.07,2.07,0,0,0,1.09.26,1.86,1.86,0,0,0,.89-.21,2,2,0,0,0,.68-.65,2.91,2.91,0,0,0,.39-1H30.1a6.24,6.24,0,0,1-.82,2.26,4.07,4.07,0,0,1-1.47,1.42,4.15,4.15,0,0,1-2,.49A4.93,4.93,0,0,1,23.42,31.13Z" transform="translate(-3.95 -2.34)"/><path class="cls-1" d="M33.57,31.21a3.11,3.11,0,0,1-1.34-1.32,4.39,4.39,0,0,1-.47-2.09v-1a4.84,4.84,0,0,1,.45-2.18,3,3,0,0,1,1.29-1.38,4.12,4.12,0,0,1,2-.48,3.27,3.27,0,0,1,1.94.57A3.46,3.46,0,0,1,38.71,25a7.1,7.1,0,0,1,.42,2.59v.57H33.24V26.62h3.82l0-.2a1.93,1.93,0,0,0-.47-1.15,1.3,1.3,0,0,0-1-.41,1.64,1.64,0,0,0-1.27.49,2,2,0,0,0-.45,1.39v1.09a1.8,1.8,0,0,0,.49,1.36,1.9,1.9,0,0,0,1.38.49,2.62,2.62,0,0,0,.91-.17,2.5,2.5,0,0,0,.81-.46l1.49,1.32a4.88,4.88,0,0,1-1.51.95,4.45,4.45,0,0,1-1.7.34A4.65,4.65,0,0,1,33.57,31.21Z" transform="translate(-3.95 -2.34)"/><path class="cls-1" d="M41.12,22.92H43.4V35H41.12Zm3,8.35a2.23,2.23,0,0,1-.82-1.09l.12-2a1.61,1.61,0,0,0,.15.73,1,1,0,0,0,.43.45,1.42,1.42,0,0,0,.7.16,1.23,1.23,0,0,0,1-.42,1.85,1.85,0,0,0,.35-1.2V26.56a1.93,1.93,0,0,0-.35-1.22,1.22,1.22,0,0,0-1-.44,1.54,1.54,0,0,0-.7.16,1.09,1.09,0,0,0-.43.47,1.73,1.73,0,0,0-.15.75l-.18-1.91a2.93,2.93,0,0,1,.92-1.16,2.08,2.08,0,0,1,1.26-.42,2.73,2.73,0,0,1,1.56.44,2.79,2.79,0,0,1,1,1.29,5.56,5.56,0,0,1,.34,2v1.38A5.5,5.5,0,0,1,48,30a2.62,2.62,0,0,1-2.56,1.71A2.17,2.17,0,0,1,44.1,31.27Z" transform="translate(-3.95 -2.34)"/><path class="cls-1" d="M50.37,22.92h2.28v8.62H50.37Zm.83,0h5v2.19h-5Z" transform="translate(-3.95 -2.34)"/><path class="cls-1" d="M58.53,31.21a3.11,3.11,0,0,1-1.34-1.32,4.39,4.39,0,0,1-.47-2.09v-1a4.84,4.84,0,0,1,.45-2.18,3,3,0,0,1,1.29-1.38,4.13,4.13,0,0,1,2.06-.48,3.26,3.26,0,0,1,1.93.57A3.46,3.46,0,0,1,63.67,25a7.1,7.1,0,0,1,.42,2.59v.57H58.2V26.62H62l0-.2a1.93,1.93,0,0,0-.47-1.15,1.3,1.3,0,0,0-1-.41,1.64,1.64,0,0,0-1.28.49,2,2,0,0,0-.45,1.39v1.09a1.8,1.8,0,0,0,.49,1.36,1.9,1.9,0,0,0,1.38.49,2.62,2.62,0,0,0,.91-.17,2.5,2.5,0,0,0,.81-.46l1.49,1.32a4.88,4.88,0,0,1-1.51.95,4.45,4.45,0,0,1-1.7.34A4.65,4.65,0,0,1,58.53,31.21Z" transform="translate(-3.95 -2.34)"/><path class="cls-1" d="M71.33,31.53V25.82l.2.22-3.48,5.49h-2V22.92h2.18v5.84l-.2-.21,3.5-5.63h2v8.61ZM67.68,20.71A3.8,3.8,0,0,1,67,18.23h1.86a2.82,2.82,0,0,0,.21,1.24.71.71,0,0,0,.65.41h.15a.71.71,0,0,0,.65-.41,2.82,2.82,0,0,0,.21-1.24h1.86a3.8,3.8,0,0,1-.68,2.48,2.48,2.48,0,0,1-2,.82h-.15A2.48,2.48,0,0,1,67.68,20.71Z" transform="translate(-3.95 -2.34)"/><path class="cls-1" d="M4,36.46H6.22V48.53H4Zm.82,0h6.28v2.2H4.77Z" transform="translate(-3.95 -2.34)"/><path class="cls-1" d="M12.86,48.21a3.18,3.18,0,0,1-1.35-1.32,4.39,4.39,0,0,1-.46-2.09v-1a4.92,4.92,0,0,1,.44-2.19,3.08,3.08,0,0,1,1.3-1.37,4.09,4.09,0,0,1,2.05-.48,3.24,3.24,0,0,1,1.93.57A3.42,3.42,0,0,1,18,42a7.1,7.1,0,0,1,.42,2.59v.57h-5.9V43.62h3.82l0-.2a2,2,0,0,0-.47-1.15,1.32,1.32,0,0,0-1-.41,1.62,1.62,0,0,0-1.27.49,1.94,1.94,0,0,0-.46,1.39v1.09a1.8,1.8,0,0,0,.5,1.36,1.9,1.9,0,0,0,1.38.48,2.55,2.55,0,0,0,.9-.16,2.66,2.66,0,0,0,.82-.46l1.48,1.32a4.76,4.76,0,0,1-1.51,1,4.4,4.4,0,0,1-1.69.34A4.65,4.65,0,0,1,12.86,48.21Z" transform="translate(-3.95 -2.34)"/><path class="cls-1" d="M21.87,48.22a2.91,2.91,0,0,1-1.27-1.28,4.38,4.38,0,0,1-.44-2V43.5a4.28,4.28,0,0,1,.44-2,2.89,2.89,0,0,1,1.27-1.27,4.26,4.26,0,0,1,2-.44,4.26,4.26,0,0,1,2,.44,2.89,2.89,0,0,1,1.27,1.27,4.28,4.28,0,0,1,.44,2v1.43a4.26,4.26,0,0,1-.44,2,2.91,2.91,0,0,1-1.27,1.28,4.26,4.26,0,0,1-2,.44A4.26,4.26,0,0,1,21.87,48.22Zm3.07-2.16a1.53,1.53,0,0,0,.38-1.13V43.5a1.54,1.54,0,0,0-.38-1.12,1.65,1.65,0,0,0-2.13,0,1.58,1.58,0,0,0-.37,1.12v1.43a1.57,1.57,0,0,0,.37,1.13,1.37,1.37,0,0,0,1.06.41A1.39,1.39,0,0,0,24.94,46.06Z" transform="translate(-3.95 -2.34)"/><path class="cls-1" d="M29.67,39.92H32V52H29.67Zm3,8.35a2.23,2.23,0,0,1-.82-1.09l.12-2a1.61,1.61,0,0,0,.15.73,1,1,0,0,0,.43.45,1.39,1.39,0,0,0,.7.16,1.23,1.23,0,0,0,1-.42,1.86,1.86,0,0,0,.35-1.2V43.56a1.93,1.93,0,0,0-.35-1.22,1.22,1.22,0,0,0-1-.44,1.51,1.51,0,0,0-.7.16,1.09,1.09,0,0,0-.43.47,1.73,1.73,0,0,0-.15.75l-.18-1.91a3,3,0,0,1,.92-1.17A2.13,2.13,0,0,1,34,39.79a2.73,2.73,0,0,1,1.56.44,2.79,2.79,0,0,1,1,1.29,5.56,5.56,0,0,1,.34,2v1.38a5.41,5.41,0,0,1-.34,2A2.61,2.61,0,0,1,34,48.66,2.15,2.15,0,0,1,32.65,48.27Z" transform="translate(-3.95 -2.34)"/><path class="cls-1" d="M38.92,39.92h2.27v8.61H38.92Zm.83,0h5v2.19h-5Z" transform="translate(-3.95 -2.34)"/><path class="cls-1" d="M51.43,48.53V42.82l.2.22-3.48,5.49h-2V39.92h2.18v5.84l-.2-.21,3.49-5.63h2v8.61Z" transform="translate(-3.95 -2.34)"/><path class="cls-1" d="M57.49,48.21a3.18,3.18,0,0,1-1.35-1.32,4.39,4.39,0,0,1-.46-2.09v-1a5.06,5.06,0,0,1,.44-2.19,3.08,3.08,0,0,1,1.3-1.37,4.12,4.12,0,0,1,2-.48,3.27,3.27,0,0,1,1.94.57A3.47,3.47,0,0,1,62.63,42a7.1,7.1,0,0,1,.42,2.59v.57H57.16V43.62H61l0-.2a2,2,0,0,0-.47-1.15,1.32,1.32,0,0,0-1-.41,1.62,1.62,0,0,0-1.27.49,2,2,0,0,0-.45,1.39v1.09a1.8,1.8,0,0,0,.49,1.36,1.9,1.9,0,0,0,1.38.48,2.61,2.61,0,0,0,.91-.16,2.5,2.5,0,0,0,.81-.46l1.49,1.32a5,5,0,0,1-1.51,1,4.45,4.45,0,0,1-1.7.34A4.65,4.65,0,0,1,57.49,48.21Z" transform="translate(-3.95 -2.34)"/><path class="cls-1" d="M65,39.92h2.27v8.61H65Zm1.16,6.84H69a1.16,1.16,0,0,0,.78-.24.87.87,0,0,0,.27-.68v0a.84.84,0,0,0-.27-.66,1.21,1.21,0,0,0-.78-.23H66.2V43.16H69a1,1,0,0,0,.66-.2.66.66,0,0,0,.23-.55.63.63,0,0,0-.23-.53,1,1,0,0,0-.65-.19H66.2V39.92h3.27a3.1,3.1,0,0,1,2,.56,1.89,1.89,0,0,1,.7,1.58,2,2,0,0,1-.42,1.3,1.92,1.92,0,0,1-1.19.65,2.17,2.17,0,0,1,1.31.78,2.42,2.42,0,0,1,.46,1.51v0A2,2,0,0,1,71.57,48a3.46,3.46,0,0,1-2.13.57H66.2Z" transform="translate(-3.95 -2.34)"/><path class="cls-1" d="M79.48,48.53V42.82l.2.22L76.2,48.53h-2V39.92h2.18v5.84l-.2-.21,3.49-5.63h2v8.61Z" transform="translate(-3.95 -2.34)"/><path class="cls-1" d="M85.34,45.43a2.59,2.59,0,0,1-1.08-1.16,4.33,4.33,0,0,1-.37-1.85v-2.5h2.28v2.31a1.32,1.32,0,0,0,.36,1,1.38,1.38,0,0,0,1,.36,1.32,1.32,0,0,0,1-.4,1.58,1.58,0,0,0,.37-1.12v-.62h1v.64a4.8,4.8,0,0,1-.68,2.8,2.46,2.46,0,0,1-2.16,1A3.41,3.41,0,0,1,85.34,45.43Zm3.6-5.51h2.27v8.61H88.94Z" transform="translate(-3.95 -2.34)"/></g></g></svg>