<svg xmlns="http://www.w3.org/2000/svg" viewBox="0 0 88.63 32.14"><defs><style>.cls-1{fill:#28468c;}</style></defs><title>Ресурс 42</title><g id="Слой_2" data-name="Слой 2"><g id="Слой_1-2" data-name="Слой 1"><path class="cls-1" d="M4.8,11.64a3,3,0,0,1-1.23-1.27,4.38,4.38,0,0,1-.42-2V5.64a4.45,4.45,0,0,1,.42-2A3,3,0,0,1,4.8,2.37a3.94,3.94,0,0,1,1.94-.44,3.42,3.42,0,0,1,1.68.4A3.33,3.33,0,0,1,9.64,3.5a5.25,5.25,0,0,1,.67,1.86h-2A2.46,2.46,0,0,0,8,4.52,1.66,1.66,0,0,0,7.47,4a1.37,1.37,0,0,0-.73-.19A1.66,1.66,0,0,0,5.85,4a1.28,1.28,0,0,0-.56.63,2.13,2.13,0,0,0-.2,1V8.37a2.19,2.19,0,0,0,.2,1,1.3,1.3,0,0,0,.56.62,1.66,1.66,0,0,0,.89.22A1.5,1.5,0,0,0,7.48,10,1.57,1.57,0,0,0,8,9.49a2.32,2.32,0,0,0,.32-.85h2a5.25,5.25,0,0,1-.68,1.86,3.3,3.3,0,0,1-1.21,1.17,3.42,3.42,0,0,1-1.68.4A4.06,4.06,0,0,1,4.8,11.64Z" transform="translate(-3.15 -1.93)"/><path class="cls-1" d="M11.54,4.87h5.78V6.68H11.54Zm2,.75h1.87V12H13.49Z" transform="translate(-3.15 -1.93)"/><path class="cls-1" d="M18.89,4.87h1.87v10H18.89Zm2.45,6.88a1.84,1.84,0,0,1-.67-.89l.09-1.62a1.32,1.32,0,0,0,.13.59.88.88,0,0,0,.36.38,1.2,1.2,0,0,0,.57.13,1,1,0,0,0,.81-.35,1.48,1.48,0,0,0,.29-1V7.88a1.52,1.52,0,0,0-.29-1,1,1,0,0,0-.81-.36,1.09,1.09,0,0,0-.57.13.85.85,0,0,0-.36.39,1.41,1.41,0,0,0-.13.61l-.14-1.57a2.38,2.38,0,0,1,.76-1,1.68,1.68,0,0,1,1-.34,2.27,2.27,0,0,1,1.29.36,2.32,2.32,0,0,1,.82,1.06,4.48,4.48,0,0,1,.28,1.68V9a4.34,4.34,0,0,1-.28,1.66,2.24,2.24,0,0,1-.82,1.05,2.27,2.27,0,0,1-1.29.36A1.76,1.76,0,0,1,21.34,11.75Z" transform="translate(-3.15 -1.93)"/><path class="cls-1" d="M27.71,11.71a2.39,2.39,0,0,1-1.05-1.06A3.58,3.58,0,0,1,26.3,9V7.83a3.47,3.47,0,0,1,.36-1.65,2.42,2.42,0,0,1,1.05-1,3.5,3.5,0,0,1,1.65-.36A3.54,3.54,0,0,1,31,5.13a2.42,2.42,0,0,1,1.05,1,3.47,3.47,0,0,1,.36,1.65V9a3.54,3.54,0,0,1-.36,1.66A2.42,2.42,0,0,1,31,11.71a3.54,3.54,0,0,1-1.66.36A3.5,3.5,0,0,1,27.71,11.71Zm2.53-1.77A1.33,1.33,0,0,0,30.55,9V7.83a1.29,1.29,0,0,0-.31-.93,1.19,1.19,0,0,0-.88-.32,1.15,1.15,0,0,0-.87.32,1.3,1.3,0,0,0-.32.93V9a1.38,1.38,0,0,0,.31.94,1.34,1.34,0,0,0,1.76,0Z" transform="translate(-3.15 -1.93)"/><path class="cls-1" d="M38.46,12V7.27l.16.17L35.76,12H34.14V4.87h1.79V9.69l-.17-.18,2.88-4.64h1.61V12Z" transform="translate(-3.15 -1.93)"/><path class="cls-1" d="M41.34,4.87h5.78V6.68H41.34Zm2,.75h1.87V12H43.3Z" transform="translate(-3.15 -1.93)"/><path class="cls-1" d="M49.51,11.7a2.49,2.49,0,0,1-1.11-1.09A3.53,3.53,0,0,1,48,8.89v-.8a3.91,3.91,0,0,1,.37-1.79,2.55,2.55,0,0,1,1.06-1.14,3.47,3.47,0,0,1,1.7-.39,2.69,2.69,0,0,1,1.59.47,2.88,2.88,0,0,1,1,1.35,5.87,5.87,0,0,1,.34,2.13v.47H49.23V7.92h3.14l0-.16a1.69,1.69,0,0,0-.38-1,1.11,1.11,0,0,0-.83-.34,1.36,1.36,0,0,0-1,.41A1.62,1.62,0,0,0,49.71,8v.9A1.5,1.5,0,0,0,50.12,10a1.54,1.54,0,0,0,1.14.4,2.35,2.35,0,0,0,.74-.13,2.33,2.33,0,0,0,.67-.38L53.9,11a4.2,4.2,0,0,1-1.25.79,4,4,0,0,1-3.14-.1Z" transform="translate(-3.15 -1.93)"/><path class="cls-1" d="M54.9,10.23a.88.88,0,0,0,.7-.29,1.15,1.15,0,0,0,.25-.8V4.87H57.6V9.33a3.25,3.25,0,0,1-.3,1.46,2.06,2.06,0,0,1-.88.92A2.71,2.71,0,0,1,55,12H54.9Zm2-5.36h3.68V6.68H56.86Zm2.6,0h1.88V12H59.46Z" transform="translate(-3.15 -1.93)"/><path class="cls-1" d="M63.25,4.87h1.87V12H63.25Zm1,5.3h2.37A.7.7,0,0,0,67.1,10a.85.85,0,0,0,.2-.58,1,1,0,0,0-.09-.43A.71.71,0,0,0,67,8.66a.7.7,0,0,0-.38-.1H64.2V7h2.45a2.59,2.59,0,0,1,1.29.31,2.23,2.23,0,0,1,.87.88,2.68,2.68,0,0,1,.31,1.32,2.67,2.67,0,0,1-.31,1.31,2.14,2.14,0,0,1-.86.88,2.63,2.63,0,0,1-1.3.31H64.2Z" transform="translate(-3.15 -1.93)"/><path class="cls-1" d="M70.66,4.87h1.87V12H70.66Zm1,2.75H76V9.35H71.67Zm3.27-2.75h1.87V12H74.94Z" transform="translate(-3.15 -1.93)"/><path class="cls-1" d="M79,11.53a2.17,2.17,0,0,1-.57-1.65A2,2,0,0,1,79,8.3a2.9,2.9,0,0,1,1.89-.53h1.78l.1,1.43H80.92a1,1,0,0,0-.63.17.59.59,0,0,0-.22.51.56.56,0,0,0,.27.51,1.48,1.48,0,0,0,.81.17,2.79,2.79,0,0,0,1.11-.17.55.55,0,0,0,.37-.53l.14,1a.92.92,0,0,1-.35.65,2.06,2.06,0,0,1-.78.4,3.54,3.54,0,0,1-1,.13A2.36,2.36,0,0,1,79,11.53Zm3.68-4.06a.92.92,0,0,0-.33-.76,1.49,1.49,0,0,0-.93-.26,2.36,2.36,0,0,0-.78.13,2.06,2.06,0,0,0-.69.36L78.73,5.8A2.82,2.82,0,0,1,79.85,5a4.27,4.27,0,0,1,1.55-.27A3.82,3.82,0,0,1,83,5.08,2.27,2.27,0,0,1,84,6a2.74,2.74,0,0,1,.34,1.42V12h-1.7Z" transform="translate(-3.15 -1.93)"/><path class="cls-1" d="M85.7,12l2-3.12,1.86.32L87.83,12Zm2.62-2.09A2.57,2.57,0,0,1,87,9.57a2.13,2.13,0,0,1-.88-.88,2.94,2.94,0,0,1,0-2.63A2.14,2.14,0,0,1,87,5.19a2.61,2.61,0,0,1,1.3-.32h2.51V6.68H88.47a.69.69,0,0,0-.54.22.83.83,0,0,0-.19.58.93.93,0,0,0,.09.42.59.59,0,0,0,.25.29.81.81,0,0,0,.39.1h2.36V9.88ZM89.91,12V4.87h1.87V12Z" transform="translate(-3.15 -1.93)"/><path class="cls-1" d="M17.93,15.87h1.68V23h-1.7V18.3l.07.44-1.29,2.85H15.58L14.3,18.74l.07-.44V23H12.66v-7.1h1.69l1.79,3.86Z" transform="translate(-3.15 -1.93)"/><path class="cls-1" d="M22.72,22.71a2.42,2.42,0,0,1-1-1.06A3.58,3.58,0,0,1,21.32,20V18.83a3.47,3.47,0,0,1,.36-1.65,2.45,2.45,0,0,1,1-1.05,4,4,0,0,1,3.32,0,2.35,2.35,0,0,1,1,1.05,3.47,3.47,0,0,1,.36,1.65V20a3.54,3.54,0,0,1-.36,1.66,2.35,2.35,0,0,1-1,1.05,4,4,0,0,1-3.32,0Zm2.54-1.77a1.38,1.38,0,0,0,.31-.94V18.83a1.34,1.34,0,0,0-.31-.93,1.21,1.21,0,0,0-.89-.32,1.18,1.18,0,0,0-.87.32,1.29,1.29,0,0,0-.31.93V20a1.33,1.33,0,0,0,.31.94,1.13,1.13,0,0,0,.87.33A1.18,1.18,0,0,0,25.26,20.94Z" transform="translate(-3.15 -1.93)"/><path class="cls-1" d="M29.15,15.87H31V23H29.15Zm1,2.75h4.35v1.73H30.16Zm3.27-2.75H35.3V23H33.43Z" transform="translate(-3.15 -1.93)"/><path class="cls-1" d="M36.4,15.87h5.78v1.81H36.4Zm2,.75h1.88V23H38.35Z" transform="translate(-3.15 -1.93)"/><path class="cls-1" d="M44,22.53a2.17,2.17,0,0,1-.57-1.65A1.94,1.94,0,0,1,44,19.3a3,3,0,0,1,1.9-.53h1.78l.09,1.43H46a1,1,0,0,0-.64.17.61.61,0,0,0-.21.51.56.56,0,0,0,.27.51,1.42,1.42,0,0,0,.8.17,2.82,2.82,0,0,0,1.12-.17.55.55,0,0,0,.37-.53l.14,1a1,1,0,0,1-.35.65,2.06,2.06,0,0,1-.78.4,3.54,3.54,0,0,1-1,.13A2.36,2.36,0,0,1,44,22.53Zm3.68-4.06a.92.92,0,0,0-.33-.76,1.49,1.49,0,0,0-.93-.26,2.38,2.38,0,0,0-.79.13,2.06,2.06,0,0,0-.69.36L43.76,16.8A2.75,2.75,0,0,1,44.88,16a4.27,4.27,0,0,1,1.55-.27,3.74,3.74,0,0,1,1.58.31A2.21,2.21,0,0,1,49,17a2.74,2.74,0,0,1,.35,1.42V23h-1.7Z" transform="translate(-3.15 -1.93)"/><path class="cls-1" d="M52.51,19.26l1.7.72-2,3H50.11Zm-2-3.39h1.95l1.79,3L53,20.12Zm2.18,2.64h5.08v1.81H52.71Zm1.61-2.64h1.87V23H54.32Zm1.91,3,1.79-3h2l-2.5,4.25ZM56.29,20l1.7-.72L60.39,23H58.25Z" transform="translate(-3.15 -1.93)"/><path class="cls-1" d="M61.21,15.87h1.88V23H61.21Zm1,2.75h4.35v1.73H62.22Zm3.27-2.75h1.88V23H65.49Z" transform="translate(-3.15 -1.93)"/><path class="cls-1" d="M69.5,22.53a2.17,2.17,0,0,1-.56-1.65,1.94,1.94,0,0,1,.63-1.58,2.91,2.91,0,0,1,1.9-.53h1.77l.1,1.43H71.47a1,1,0,0,0-.63.17.61.61,0,0,0-.21.51.55.55,0,0,0,.26.51,1.48,1.48,0,0,0,.81.17,2.89,2.89,0,0,0,1.12-.17.55.55,0,0,0,.36-.53l.15,1a1,1,0,0,1-.36.65,1.94,1.94,0,0,1-.77.4,3.64,3.64,0,0,1-1,.13A2.4,2.4,0,0,1,69.5,22.53Zm3.68-4.06a.92.92,0,0,0-.33-.76,1.45,1.45,0,0,0-.93-.26,2.36,2.36,0,0,0-.78.13,2.06,2.06,0,0,0-.69.36L69.29,16.8A2.68,2.68,0,0,1,70.41,16,4.22,4.22,0,0,1,72,15.77a3.82,3.82,0,0,1,1.59.31,2.21,2.21,0,0,1,1,.91,2.74,2.74,0,0,1,.34,1.42V23h-1.7Z" transform="translate(-3.15 -1.93)"/><path class="cls-1" d="M76.25,23l2-3.12,1.86.32L78.38,23Zm2.62-2.09a2.57,2.57,0,0,1-1.29-.31,2.05,2.05,0,0,1-.87-.88,2.67,2.67,0,0,1-.31-1.31,2.79,2.79,0,0,1,.3-1.32,2.21,2.21,0,0,1,.87-.87,2.64,2.64,0,0,1,1.3-.32h2.52v1.81H79a.67.67,0,0,0-.53.22.83.83,0,0,0-.2.58.93.93,0,0,0,.09.42.65.65,0,0,0,.25.29.84.84,0,0,0,.39.1h2.37v1.59ZM80.46,23v-7.1h1.88V23Z" transform="translate(-3.15 -1.93)"/><path class="cls-1" d="M17.15,26.87H19V34H17.15ZM18,29.51h3.66v1.81H18ZM19.91,31l1.7-.72L23.53,34H21.39Zm0-1.08,1.24-3h2L21.3,31.12Z" transform="translate(-3.15 -1.93)"/><path class="cls-1" d="M25.35,33.71a2.39,2.39,0,0,1-1.05-1.06A3.58,3.58,0,0,1,23.94,31V29.83a3.47,3.47,0,0,1,.36-1.65,2.42,2.42,0,0,1,1.05-1.05A3.54,3.54,0,0,1,27,26.77a3.5,3.5,0,0,1,1.65.36,2.42,2.42,0,0,1,1.05,1.05,3.47,3.47,0,0,1,.36,1.65V31a3.54,3.54,0,0,1-.36,1.66,2.42,2.42,0,0,1-1.05,1.05,3.5,3.5,0,0,1-1.65.36A3.54,3.54,0,0,1,25.35,33.71Zm2.53-1.77A1.34,1.34,0,0,0,28.2,31V29.83a1.3,1.3,0,0,0-.32-.93,1.19,1.19,0,0,0-.88-.32,1.15,1.15,0,0,0-.87.32,1.29,1.29,0,0,0-.31.93V31a1.38,1.38,0,0,0,.3.94,1.34,1.34,0,0,0,1.76,0Z" transform="translate(-3.15 -1.93)"/><path class="cls-1" d="M37,26.87h1.68V34H37V29.3l.07.44L35.8,32.59H34.7l-1.29-2.85.07-.44V34h-1.7v-7.1h1.68l1.79,3.86Z" transform="translate(-3.15 -1.93)"/><path class="cls-1" d="M40.64,26.87h1.87V34H40.64Zm1,0H46v1.81H41.64Zm3.28,0h1.87V34H44.92Z" transform="translate(-3.15 -1.93)"/><path class="cls-1" d="M48.93,33.53a2.17,2.17,0,0,1-.57-1.65A1.94,1.94,0,0,1,49,30.3a3,3,0,0,1,1.9-.53h1.78l.09,1.43H50.9a1,1,0,0,0-.64.17.61.61,0,0,0-.21.51.56.56,0,0,0,.27.51,1.42,1.42,0,0,0,.8.17,2.85,2.85,0,0,0,1.12-.17.56.56,0,0,0,.37-.53l.14,1a1,1,0,0,1-.35.65,2.06,2.06,0,0,1-.78.4,3.54,3.54,0,0,1-1,.13A2.36,2.36,0,0,1,48.93,33.53Zm3.68-4.06a.92.92,0,0,0-.33-.76,1.49,1.49,0,0,0-.93-.26,2.38,2.38,0,0,0-.79.13,2.06,2.06,0,0,0-.69.36L48.71,27.8A2.75,2.75,0,0,1,49.83,27a4.27,4.27,0,0,1,1.55-.27,3.77,3.77,0,0,1,1.58.31A2.21,2.21,0,0,1,54,28a2.74,2.74,0,0,1,.35,1.42V34h-1.7Z" transform="translate(-3.15 -1.93)"/><path class="cls-1" d="M56.15,26.87H58V34H56.15Zm1,2.75h4.35v1.73H57.16Zm3.27-2.75h1.88V34H60.43Z" transform="translate(-3.15 -1.93)"/><path class="cls-1" d="M68.54,34V29.27l.17.17L65.84,34H64.22V26.87H66v4.82l-.16-.18,2.88-4.64h1.6V34Z" transform="translate(-3.15 -1.93)"/><path class="cls-1" d="M71.77,34l2-3.12,1.87.32L73.9,34Zm2.62-2.09a2.63,2.63,0,0,1-1.3-.31,2.17,2.17,0,0,1-.87-.88,2.94,2.94,0,0,1,0-2.63,2.17,2.17,0,0,1,.87-.88,2.69,2.69,0,0,1,1.3-.31H76.9v1.81H74.54a.67.67,0,0,0-.54.22.83.83,0,0,0-.2.58.93.93,0,0,0,.09.42.67.67,0,0,0,.26.29.81.81,0,0,0,.39.1H76.9v1.59ZM76,34v-7.1h1.87V34Z" transform="translate(-3.15 -1.93)"/></g></g></svg>