<svg xmlns="http://www.w3.org/2000/svg" viewBox="0 0 88.09 53.29"><defs><style>.cls-1{fill:#fff;}</style></defs><title>Ресурс 38</title><g id="Слой_2" data-name="Слой 2"><g id="Слой_1-2" data-name="Слой 1"><path class="cls-1" d="M3.55,2.76H6.09V16.25H3.55Zm.92,0h7V5.21h-7Z" transform="translate(-3.55 -1.37)"/><path class="cls-1" d="M13.39,15.89A3.27,3.27,0,0,1,12,14.46a4.82,4.82,0,0,1-.49-2.27V10.62A4.72,4.72,0,0,1,12,8.38,3.3,3.3,0,0,1,13.39,7a4.86,4.86,0,0,1,2.25-.48A4.86,4.86,0,0,1,17.89,7a3.35,3.35,0,0,1,1.42,1.42,4.84,4.84,0,0,1,.48,2.24v1.6a4.86,4.86,0,0,1-.48,2.25,3.35,3.35,0,0,1-1.42,1.42,4.73,4.73,0,0,1-2.25.49A4.73,4.73,0,0,1,13.39,15.89Zm3.43-2.4a1.78,1.78,0,0,0,.43-1.27v-1.6a1.71,1.71,0,0,0-.43-1.25,1.55,1.55,0,0,0-1.19-.45,1.53,1.53,0,0,0-1.18.45A1.71,1.71,0,0,0,14,10.62v1.6a1.82,1.82,0,0,0,.42,1.27,1.53,1.53,0,0,0,1.19.44A1.55,1.55,0,0,0,16.82,13.49Z" transform="translate(-3.55 -1.37)"/><path class="cls-1" d="M22.11,6.62h2.54V20.16H22.11ZM25.43,16a2.47,2.47,0,0,1-.9-1.22l.12-2.2a1.8,1.8,0,0,0,.17.81,1.21,1.21,0,0,0,.49.51,1.54,1.54,0,0,0,.77.18,1.35,1.35,0,0,0,1.11-.48,2,2,0,0,0,.4-1.33V10.69a2.07,2.07,0,0,0-.4-1.37,1.36,1.36,0,0,0-1.11-.49,1.54,1.54,0,0,0-.77.18,1.2,1.2,0,0,0-.49.53,1.89,1.89,0,0,0-.17.83l-.19-2.13a3.22,3.22,0,0,1,1-1.3,2.35,2.35,0,0,1,1.41-.46A3,3,0,0,1,28.64,7a3.09,3.09,0,0,1,1.11,1.44,6.12,6.12,0,0,1,.38,2.27v1.54a6,6,0,0,1-.38,2.25,3.14,3.14,0,0,1-1.11,1.42,3,3,0,0,1-1.75.49A2.47,2.47,0,0,1,25.43,16Z" transform="translate(-3.55 -1.37)"/><path class="cls-1" d="M34.08,15.89a3.27,3.27,0,0,1-1.42-1.43,4.82,4.82,0,0,1-.49-2.27V10.62a4.72,4.72,0,0,1,.49-2.24A3.3,3.3,0,0,1,34.08,7a4.86,4.86,0,0,1,2.25-.48A4.91,4.91,0,0,1,38.58,7,3.28,3.28,0,0,1,40,8.38a4.72,4.72,0,0,1,.49,2.24v1.6A4.73,4.73,0,0,1,40,14.47a3.28,3.28,0,0,1-1.41,1.42,4.79,4.79,0,0,1-2.25.49A4.73,4.73,0,0,1,34.08,15.89Zm3.43-2.4a1.78,1.78,0,0,0,.43-1.27v-1.6a1.71,1.71,0,0,0-.43-1.25,1.8,1.8,0,0,0-2.38,0,1.75,1.75,0,0,0-.42,1.25v1.6a1.82,1.82,0,0,0,.42,1.27,1.83,1.83,0,0,0,2.38,0Z" transform="translate(-3.55 -1.37)"/><path class="cls-1" d="M42,13.89H51.4v2.36H42Zm0,0h2.26v4.78H42Zm.35,0h.22a.89.89,0,0,0,.72-.29,1.66,1.66,0,0,0,.31-.83,11.1,11.1,0,0,0,.08-1.47V6.62h2.54v5.31a3.17,3.17,0,0,1-.78,2.32,2.94,2.94,0,0,1-2.22.79H43Zm2.41-7.27h4.65V9H44.71Zm3.65,0H50.9v9.63H48.36Zm1.57,7.27h2.26v4.78H49.93Z" transform="translate(-3.55 -1.37)"/><path class="cls-1" d="M55.75,15.86a3.44,3.44,0,0,1-1.49-1.53,5.23,5.23,0,0,1-.51-2.41v-1a5.17,5.17,0,0,1,.51-2.39A3.38,3.38,0,0,1,55.75,7a4.89,4.89,0,0,1,2.35-.52,6,6,0,0,1,1.49.18,4.51,4.51,0,0,1,1.25.52,3.15,3.15,0,0,1,.93.84L60.13,9.61a2.62,2.62,0,0,0-.82-.5,2.82,2.82,0,0,0-1-.19,2.06,2.06,0,0,0-1.49.52,1.94,1.94,0,0,0-.53,1.45v1a2,2,0,0,0,.53,1.49,2,2,0,0,0,1.49.52,2.54,2.54,0,0,0,1-.19,2.35,2.35,0,0,0,.82-.56l1.64,1.69a3.35,3.35,0,0,1-.93.82,4.58,4.58,0,0,1-1.26.52,5.89,5.89,0,0,1-1.48.17A4.89,4.89,0,0,1,55.75,15.86Z" transform="translate(-3.55 -1.37)"/><path class="cls-1" d="M63.49,6.62H66v9.63H63.49Zm1.1,3.58h5v2.45h-5Zm2.65,2,2.31-1,2.6,5h-2.9Zm0-1.46,1.68-4.1h2.66l-2.46,5.76Z" transform="translate(-3.55 -1.37)"/><path class="cls-1" d="M74.62,15.89a3.27,3.27,0,0,1-1.42-1.43,4.82,4.82,0,0,1-.49-2.27V10.62a4.72,4.72,0,0,1,.49-2.24A3.3,3.3,0,0,1,74.62,7a5.51,5.51,0,0,1,4.5,0,3.35,3.35,0,0,1,1.42,1.42A4.84,4.84,0,0,1,81,10.62v1.6a4.86,4.86,0,0,1-.48,2.25,3.35,3.35,0,0,1-1.42,1.42,5.41,5.41,0,0,1-4.5,0Zm3.43-2.4a1.78,1.78,0,0,0,.43-1.27v-1.6a1.71,1.71,0,0,0-.43-1.25,1.8,1.8,0,0,0-2.38,0,1.75,1.75,0,0,0-.42,1.25v1.6a1.82,1.82,0,0,0,.42,1.27,1.83,1.83,0,0,0,2.38,0Z" transform="translate(-3.55 -1.37)"/><path class="cls-1" d="M89.21,16.24V9.86l.22.24-3.89,6.14h-2.2V6.62h2.43v6.53l-.22-.24,3.91-6.29h2.18v9.62ZM85.12,4.14a4.32,4.32,0,0,1-.76-2.77h2.08a3.12,3.12,0,0,0,.24,1.39.77.77,0,0,0,.73.46h.16a.78.78,0,0,0,.73-.46,3.12,3.12,0,0,0,.24-1.39h2.08a4.32,4.32,0,0,1-.76,2.77,2.79,2.79,0,0,1-2.29.93h-.16A2.79,2.79,0,0,1,85.12,4.14Z" transform="translate(-3.55 -1.37)"/><path class="cls-1" d="M11.55,24.62h2.29v9.63H11.53V27.91l.09.59L9.87,32.37H8.37L6.63,28.5l.09-.59v6.34H4.41V24.62H6.69l2.43,5.23Z" transform="translate(-3.55 -1.37)"/><path class="cls-1" d="M18.06,33.89a3.32,3.32,0,0,1-1.42-1.43,4.94,4.94,0,0,1-.48-2.27V28.62a4.84,4.84,0,0,1,.48-2.24A3.35,3.35,0,0,1,18.06,25a4.86,4.86,0,0,1,2.25-.48,4.86,4.86,0,0,1,2.25.48A3.3,3.3,0,0,1,24,26.38a4.72,4.72,0,0,1,.49,2.24v1.6A4.73,4.73,0,0,1,24,32.47a3.3,3.3,0,0,1-1.42,1.42,4.73,4.73,0,0,1-2.25.49A4.73,4.73,0,0,1,18.06,33.89Zm3.44-2.4a1.82,1.82,0,0,0,.43-1.27v-1.6a1.75,1.75,0,0,0-.43-1.25,1.58,1.58,0,0,0-1.2-.45,1.54,1.54,0,0,0-1.18.45,1.75,1.75,0,0,0-.42,1.25v1.6a1.82,1.82,0,0,0,.42,1.27,1.51,1.51,0,0,0,1.18.44A1.57,1.57,0,0,0,21.5,31.49Z" transform="translate(-3.55 -1.37)"/><path class="cls-1" d="M25.67,31.88a1.21,1.21,0,0,0,1-.39A1.61,1.61,0,0,0,27,30.4V24.62h2.38v6a4.39,4.39,0,0,1-.41,2,2.85,2.85,0,0,1-1.19,1.26,3.93,3.93,0,0,1-1.88.43h-.19Zm2.66-7.26h5v2.44h-5Zm3.53,0H34.4v9.63H31.86Z" transform="translate(-3.55 -1.37)"/><path class="cls-1" d="M38.63,33.89a3.32,3.32,0,0,1-1.42-1.43,4.94,4.94,0,0,1-.49-2.27V28.62a4.84,4.84,0,0,1,.49-2.24A3.35,3.35,0,0,1,38.63,25a5.51,5.51,0,0,1,4.5,0,3.35,3.35,0,0,1,1.42,1.42A4.84,4.84,0,0,1,45,28.62v1.6a4.86,4.86,0,0,1-.49,2.25,3.35,3.35,0,0,1-1.42,1.42,5.41,5.41,0,0,1-4.5,0Zm3.44-2.4a1.82,1.82,0,0,0,.42-1.27v-1.6a1.75,1.75,0,0,0-.42-1.25,1.59,1.59,0,0,0-1.2-.45,1.53,1.53,0,0,0-1.18.45,1.75,1.75,0,0,0-.42,1.25v1.6a1.86,1.86,0,0,0,.41,1.27,1.55,1.55,0,0,0,1.19.44A1.59,1.59,0,0,0,42.07,31.49Z" transform="translate(-3.55 -1.37)"/><path class="cls-1" d="M48.88,30.78a2.86,2.86,0,0,1-1.2-1.3,4.64,4.64,0,0,1-.42-2.06v-2.8H49.8V27.2a1.48,1.48,0,0,0,.41,1.12,1.58,1.58,0,0,0,1.14.4,1.49,1.49,0,0,0,1.15-.45A1.79,1.79,0,0,0,52.9,27v-.7H54v.73a5.38,5.38,0,0,1-.75,3.12,2.75,2.75,0,0,1-2.42,1.06A3.83,3.83,0,0,1,48.88,30.78Zm4-6.16h2.55v9.63H52.9Z" transform="translate(-3.55 -1.37)"/><path class="cls-1" d="M58,24.62h2.55v9.63H58Zm1.37,3.71h5.91v2.36H59.41Zm4.44-3.71h2.54v9.63H63.85Z" transform="translate(-3.55 -1.37)"/><path class="cls-1" d="M69,24.62h2.54v9.63H69Zm.64,7.18h3.21a.94.94,0,0,0,.73-.3,1.17,1.17,0,0,0,.26-.79,1.34,1.34,0,0,0-.12-.58.92.92,0,0,0-.87-.51H69.63V27.44H73a3.5,3.5,0,0,1,1.76.43,3,3,0,0,1,1.18,1.19,3.73,3.73,0,0,1,.42,1.79,3.66,3.66,0,0,1-.42,1.78,2.92,2.92,0,0,1-1.17,1.19,3.62,3.62,0,0,1-1.77.43H69.63Zm7.76-7.18h2.54v9.63H77.39Z" transform="translate(-3.55 -1.37)"/><path class="cls-1" d="M88.16,34.24V27.86l.22.24-3.89,6.14h-2.2V24.62h2.44v6.53l-.23-.24,3.91-6.29h2.18v9.62Zm-4.08-12.1a4.26,4.26,0,0,1-.76-2.77h2.07a3.12,3.12,0,0,0,.24,1.39.79.79,0,0,0,.73.46h.17a.77.77,0,0,0,.72-.46,3.12,3.12,0,0,0,.24-1.39h2.08a4.32,4.32,0,0,1-.76,2.77,2.78,2.78,0,0,1-2.28.93h-.17A2.75,2.75,0,0,1,84.08,22.14Z" transform="translate(-3.55 -1.37)"/><path class="cls-1" d="M24.51,52a3.28,3.28,0,0,1-1.34-1.1,4,4,0,0,1-.64-1.75H25a1.11,1.11,0,0,0,.45.77,1.55,1.55,0,0,0,1,.27,1.77,1.77,0,0,0,1-.23.73.73,0,0,0,.34-.66h0a.65.65,0,0,0-.3-.58,1.46,1.46,0,0,0-.85-.21H25.55V46.37H26.6a.93.93,0,0,0,.69-.24,1,1,0,0,0,.24-.7h0a.77.77,0,0,0-.29-.64,1.41,1.41,0,0,0-.83-.22A1.39,1.39,0,0,0,25,45.7H22.51a3.73,3.73,0,0,1,3.91-3.23,4.08,4.08,0,0,1,2.56.71,2.33,2.33,0,0,1,.91,2h0a2.25,2.25,0,0,1-.38,1.29,2.22,2.22,0,0,1-1.08.81,1.89,1.89,0,0,1,1.24.71,2.46,2.46,0,0,1,.44,1.51h0a2.55,2.55,0,0,1-1,2.13,4.34,4.34,0,0,1-2.72.75A4.4,4.4,0,0,1,24.51,52Z" transform="translate(-3.55 -1.37)"/><path class="cls-1" d="M32.5,51.65a3,3,0,0,1-.77-2.24,2.65,2.65,0,0,1,.86-2.15,4,4,0,0,1,2.58-.71h2.41l.13,1.94H35.18a1.39,1.39,0,0,0-.87.22.86.86,0,0,0-.28.7.78.78,0,0,0,.36.7,2.09,2.09,0,0,0,1.09.22A3.69,3.69,0,0,0,37,50.1a.75.75,0,0,0,.49-.72l.2,1.4a1.32,1.32,0,0,1-.48.88,2.72,2.72,0,0,1-1.06.54,4.87,4.87,0,0,1-1.34.18A3.22,3.22,0,0,1,32.5,51.65Zm5-5.51a1.23,1.23,0,0,0-.44-1,2,2,0,0,0-1.26-.36,3.57,3.57,0,0,0-1.07.17,3.38,3.38,0,0,0-.94.5l-1.57-1.55a3.83,3.83,0,0,1,1.52-1,5.84,5.84,0,0,1,2.09-.37A5,5,0,0,1,38,42.9a3.1,3.1,0,0,1,1.36,1.22,3.82,3.82,0,0,1,.46,1.94v6.18H37.49Z" transform="translate(-3.55 -1.37)"/><path class="cls-1" d="M42.31,42.61h2.53v9.63H42.31Zm1.3,7.65h3.1a1.29,1.29,0,0,0,.87-.27,1,1,0,0,0,.3-.75v0a.9.9,0,0,0-.3-.73,1.29,1.29,0,0,0-.87-.26h-3.1v-2h3.1a1.09,1.09,0,0,0,.74-.22.76.76,0,0,0,.26-.61.72.72,0,0,0-.26-.59,1.1,1.1,0,0,0-.72-.21H43.61v-2h3.64a3.48,3.48,0,0,1,2.23.63A2.13,2.13,0,0,1,50.27,45a2.06,2.06,0,0,1-1.81,2.18,2.45,2.45,0,0,1,1.47.87,2.72,2.72,0,0,1,.52,1.69v0a2.17,2.17,0,0,1-.84,1.82,3.85,3.85,0,0,1-2.38.64H43.61Z" transform="translate(-3.55 -1.37)"/><path class="cls-1" d="M54.21,51.89a3.27,3.27,0,0,1-1.42-1.43,4.85,4.85,0,0,1-.49-2.27V46.62a4.72,4.72,0,0,1,.49-2.24A3.3,3.3,0,0,1,54.21,43a5.41,5.41,0,0,1,4.5,0,3.35,3.35,0,0,1,1.42,1.42,4.84,4.84,0,0,1,.48,2.24v1.6a4.86,4.86,0,0,1-.48,2.25,3.35,3.35,0,0,1-1.42,1.42,5.41,5.41,0,0,1-4.5,0Zm3.44-2.41a1.78,1.78,0,0,0,.42-1.26v-1.6a1.75,1.75,0,0,0-.42-1.25,1.59,1.59,0,0,0-1.2-.45,1.53,1.53,0,0,0-1.18.45,1.71,1.71,0,0,0-.43,1.25v1.6a1.78,1.78,0,0,0,.42,1.26,1.55,1.55,0,0,0,1.19.45A1.59,1.59,0,0,0,57.65,49.48Z" transform="translate(-3.55 -1.37)"/><path class="cls-1" d="M62.08,49.89h9.45v2.35H62.08Zm0,0h2.26v4.78H62.08Zm.35,0h.23a.86.86,0,0,0,.71-.29,1.61,1.61,0,0,0,.31-.83,11.1,11.1,0,0,0,.08-1.47V42.61H66.3v5.32a3.21,3.21,0,0,1-.77,2.32A3,3,0,0,1,63.3,51h-.22Zm2.41-7.28h4.65V45H64.84Zm3.65,0H71v9.63H68.49Zm1.57,7.28h2.26v4.78H70.06Z" transform="translate(-3.55 -1.37)"/></g></g></svg>