<svg xmlns="http://www.w3.org/2000/svg" viewBox="0 0 86.87 12.91"><defs><style>.cls-1{fill:#28468c;}</style></defs><title>Ресурс 45</title><g id="Слой_2" data-name="Слой 2"><g id="Слой_1-2" data-name="Слой 1"><path class="cls-1" d="M4.37,2.61H6.78V15.39H4.37Zm1,5.27H9.94V10.2H5.42Zm2.5,1.88,2.19-.92,4.4,6.55h-3Zm0-1.38L11.2,2.61H14L9.72,10Z" transform="translate(-4.37 -2.61)"/><path class="cls-1" d="M17.11,15.06a3.09,3.09,0,0,1-1.34-1.36,4.61,4.61,0,0,1-.46-2.15V10.06a4.51,4.51,0,0,1,.46-2.12A3,3,0,0,1,17.11,6.6a4.53,4.53,0,0,1,2.13-.47,4.5,4.5,0,0,1,2.13.47,3.07,3.07,0,0,1,1.35,1.34,4.51,4.51,0,0,1,.46,2.12v1.52a4.53,4.53,0,0,1-.46,2.13,3.14,3.14,0,0,1-1.35,1.35,4.5,4.5,0,0,1-2.13.46A4.53,4.53,0,0,1,17.11,15.06Zm3.26-2.28a1.69,1.69,0,0,0,.4-1.2V10.06a1.62,1.62,0,0,0-.4-1.18,1.51,1.51,0,0,0-1.14-.42,1.48,1.48,0,0,0-1.12.42,1.67,1.67,0,0,0-.4,1.18v1.52a1.74,1.74,0,0,0,.4,1.2,1.46,1.46,0,0,0,1.12.42A1.51,1.51,0,0,0,20.37,12.78Z" transform="translate(-4.37 -2.61)"/><path class="cls-1" d="M25.38,6.27h2.41v9.12H25.38Zm1.29,3.52h5.6V12h-5.6Zm4.21-3.52h2.41v9.12H30.88Z" transform="translate(-4.37 -2.61)"/><path class="cls-1" d="M34.69,6.27h7.44V8.59H34.69Zm2.52,1h2.41v8.17H37.21Z" transform="translate(-4.37 -2.61)"/><path class="cls-1" d="M49.71,15.38v-6l.21.23-3.69,5.81H44.15V6.27h2.3v6.18l-.21-.22,3.7-6H52v9.11Z" transform="translate(-4.37 -2.61)"/><path class="cls-1" d="M54.47,6.27h2.41v9.12H54.47Zm1.29,3.52h5.6V12h-5.6ZM60,6.27h2.41v9.12H60Z" transform="translate(-4.37 -2.61)"/><path class="cls-1" d="M66.5,15a3.26,3.26,0,0,1-1.43-1.39,4.64,4.64,0,0,1-.49-2.22v-1a5.13,5.13,0,0,1,.47-2.32,3.26,3.26,0,0,1,1.37-1.45,4.33,4.33,0,0,1,2.17-.51,3.47,3.47,0,0,1,2,.6,3.72,3.72,0,0,1,1.3,1.74,7.68,7.68,0,0,1,.44,2.74v.6H66.14V10.19h4l0-.21a2.17,2.17,0,0,0-.5-1.23,1.42,1.42,0,0,0-1.07-.43,1.77,1.77,0,0,0-1.35.52,2.1,2.1,0,0,0-.47,1.47v1.16a1.91,1.91,0,0,0,.52,1.44,2,2,0,0,0,1.46.51,2.94,2.94,0,0,0,1-.17,2.82,2.82,0,0,0,.86-.49l1.57,1.4a5.23,5.23,0,0,1-1.6,1,5.15,5.15,0,0,1-4-.13Z" transform="translate(-4.37 -2.61)"/><path class="cls-1" d="M74.49,6.27H76.9v9.12H74.49Zm1.29,3.52h5.6V12h-5.6ZM80,6.27H82.4v9.12H80Z" transform="translate(-4.37 -2.61)"/><path class="cls-1" d="M83.81,6.27h7.43V8.59H83.81Zm2.51,1h2.41v8.17H86.32Z" transform="translate(-4.37 -2.61)"/></g></g></svg>