<svg xmlns="http://www.w3.org/2000/svg" viewBox="0 0 90.47 15.56"><defs><style>.cls-1{fill:#fff;}</style></defs><title>Ресурс 39</title><g id="Слой_2" data-name="Слой 2"><g id="Слой_1-2" data-name="Слой 1"><path class="cls-1" d="M4.48,14.94a4.13,4.13,0,0,1-1.64-1.65,5.22,5.22,0,0,1-.58-2.48V7.19a5.15,5.15,0,0,1,.58-2.47A4.1,4.1,0,0,1,4.48,3.06a5,5,0,0,1,2.45-.58,5,5,0,0,1,2.45.58A4.1,4.1,0,0,1,11,4.72a5.15,5.15,0,0,1,.58,2.47v3.62A5.22,5.22,0,0,1,11,13.29a4.13,4.13,0,0,1-1.64,1.65,5,5,0,0,1-2.45.58A5,5,0,0,1,4.48,14.94Zm3.59-2.1a1.93,1.93,0,0,0,.76-.79,2.48,2.48,0,0,0,.27-1.18V7.13A2.48,2.48,0,0,0,8.83,6a1.93,1.93,0,0,0-.76-.79,2.34,2.34,0,0,0-1.14-.27,2.32,2.32,0,0,0-1.14.27A1.93,1.93,0,0,0,5,6a2.48,2.48,0,0,0-.27,1.18v3.74A2.48,2.48,0,0,0,5,12.05a1.93,1.93,0,0,0,.76.79,2.32,2.32,0,0,0,1.14.27A2.34,2.34,0,0,0,8.07,12.84Z" transform="translate(-2.26 -2.48)"/><path class="cls-1" d="M15.75,14.94a4.07,4.07,0,0,1-1.64-1.65,5.1,5.1,0,0,1-.58-2.48V7.19a5,5,0,0,1,.58-2.47,4,4,0,0,1,1.64-1.66,5,5,0,0,1,2.45-.58,5,5,0,0,1,2.45.58,4,4,0,0,1,1.63,1.66,5,5,0,0,1,.58,2.47v3.62a5.1,5.1,0,0,1-.58,2.48,4,4,0,0,1-1.63,1.65,5,5,0,0,1-2.45.58A5,5,0,0,1,15.75,14.94Zm3.59-2.1a1.93,1.93,0,0,0,.76-.79,2.48,2.48,0,0,0,.27-1.18V7.13A2.48,2.48,0,0,0,20.1,6a1.93,1.93,0,0,0-.76-.79,2.56,2.56,0,0,0-2.29,0,2,2,0,0,0-.76.79A2.6,2.6,0,0,0,16,7.13v3.74a2.6,2.6,0,0,0,.26,1.18,2,2,0,0,0,.76.79,2.56,2.56,0,0,0,2.29,0Z" transform="translate(-2.26 -2.48)"/><path class="cls-1" d="M27,14.94a4,4,0,0,1-1.64-1.65,5.1,5.1,0,0,1-.58-2.48V7.19a5,5,0,0,1,.58-2.47A4,4,0,0,1,27,3.06a5.44,5.44,0,0,1,4.89,0,4,4,0,0,1,1.64,1.66,5,5,0,0,1,.58,2.47v3.62a5.1,5.1,0,0,1-.58,2.48,4.07,4.07,0,0,1-1.64,1.65,5.44,5.44,0,0,1-4.89,0Zm3.59-2.1a1.93,1.93,0,0,0,.76-.79,2.48,2.48,0,0,0,.27-1.18V7.13A2.48,2.48,0,0,0,31.37,6a1.93,1.93,0,0,0-.76-.79,2.56,2.56,0,0,0-2.29,0,1.93,1.93,0,0,0-.76.79,2.48,2.48,0,0,0-.27,1.18v3.74a2.48,2.48,0,0,0,.27,1.18,1.93,1.93,0,0,0,.76.79,2.56,2.56,0,0,0,2.29,0Z" transform="translate(-2.26 -2.48)"/><path class="cls-1" d="M45.17,2.61H46.7l4.89,12.78H49L45.94,6.66l-3.06,8.73h-2.6ZM42.63,11h6.72v2.32H42.63Z" transform="translate(-2.26 -2.48)"/><path class="cls-1" d="M52.38,13.15a1.13,1.13,0,0,0,.9-.37,1.51,1.51,0,0,0,.32-1V6.27h2.25V12a4.1,4.1,0,0,1-.39,1.87,2.66,2.66,0,0,1-1.13,1.19,3.66,3.66,0,0,1-1.78.41h-.17Zm2.51-6.88h4.74V8.59H54.89Zm3.35,0h2.41v9.12H58.24Z" transform="translate(-2.26 -2.48)"/><path class="cls-1" d="M63.11,6.27h2.41v9.12H63.11Zm1.22,6.8h3a.88.88,0,0,0,.69-.28,1.08,1.08,0,0,0,.25-.75,1.16,1.16,0,0,0-.12-.54.91.91,0,0,0-.33-.37,1,1,0,0,0-.49-.13h-3V9h3.15a3.34,3.34,0,0,1,1.66.4,2.77,2.77,0,0,1,1.12,1.13,3.43,3.43,0,0,1,.4,1.69,3.43,3.43,0,0,1-.4,1.69A2.75,2.75,0,0,1,69.15,15a3.36,3.36,0,0,1-1.67.4H64.33Z" transform="translate(-2.26 -2.48)"/><path class="cls-1" d="M73,14.59a3.51,3.51,0,0,1-.67-2.27v-3A3.44,3.44,0,0,1,73,7.06a2.34,2.34,0,0,1,1.89-.79,1.92,1.92,0,0,1,1.69.88,4.49,4.49,0,0,1,.6,2.52V12.3a3.77,3.77,0,0,1-.6,2.28,2,2,0,0,1-1.69.81A2.35,2.35,0,0,1,73,14.59Zm3.35-1.88a1.61,1.61,0,0,0,.26-1V9.93a1.63,1.63,0,0,0-.26-1,.9.9,0,0,0-.75-.34.69.69,0,0,0-.63.35,1.81,1.81,0,0,0-.23,1v1.78a1.85,1.85,0,0,0,.23,1,.69.69,0,0,0,.63.36A.88.88,0,0,0,76.39,12.71Zm.25-9.09h2.41V18H76.64Zm2.44,11a3.84,3.84,0,0,1-.59-2.28V9.67a4.58,4.58,0,0,1,.59-2.52,1.91,1.91,0,0,1,1.68-.88,2.35,2.35,0,0,1,1.9.79,3.39,3.39,0,0,1,.67,2.26v3a3.45,3.45,0,0,1-.67,2.27,2.36,2.36,0,0,1-1.9.8A2,2,0,0,1,79.08,14.58Zm1.61-1.87a1.76,1.76,0,0,0,.23-1V9.93a1.73,1.73,0,0,0-.23-1,.71.71,0,0,0-.64-.35.85.85,0,0,0-.74.35,1.64,1.64,0,0,0-.26,1v1.78a1.68,1.68,0,0,0,.26,1,.85.85,0,0,0,.74.36A.72.72,0,0,0,80.69,12.71Z" transform="translate(-2.26 -2.48)"/><path class="cls-1" d="M85.82,14.82a2.78,2.78,0,0,1-.73-2.12,2.5,2.5,0,0,1,.81-2A3.76,3.76,0,0,1,88.34,10h2.29l.12,1.84h-2.4a1.29,1.29,0,0,0-.82.22.78.78,0,0,0-.27.65.73.73,0,0,0,.34.66,1.94,1.94,0,0,0,1,.22,3.52,3.52,0,0,0,1.44-.22.74.74,0,0,0,.47-.69L90.73,14a1.22,1.22,0,0,1-.45.84,2.7,2.7,0,0,1-1,.51,4.81,4.81,0,0,1-1.27.17A3,3,0,0,1,85.82,14.82Zm4.73-5.21a1.19,1.19,0,0,0-.42-1,1.84,1.84,0,0,0-1.2-.34,2.94,2.94,0,0,0-1,.17,3,3,0,0,0-.89.46L85.54,7.45a3.59,3.59,0,0,1,1.44-1,5.51,5.51,0,0,1,2-.35,4.73,4.73,0,0,1,2,.41A2.78,2.78,0,0,1,92.29,7.7a3.5,3.5,0,0,1,.45,1.83v5.86H90.55Z" transform="translate(-2.26 -2.48)"/></g></g></svg>