<svg xmlns="http://www.w3.org/2000/svg" viewBox="0 0 89.39 16.67"><defs><style>.cls-1{fill:#28468c;}</style></defs><title>Ресурс 46</title><g id="Слой_2" data-name="Слой 2"><g id="Слой_1-2" data-name="Слой 1"><path class="cls-1" d="M9.38,3.33h2l6.24,16.33H14.27L10.36,8.51,6.45,19.66H3.14ZM6.14,14.08h8.59v3H6.14Z" transform="translate(-3.14 -3.17)"/><path class="cls-1" d="M21.75,19.28a4.67,4.67,0,0,1-2-1.6,5.51,5.51,0,0,1-.95-2.53h3.12a1.83,1.83,0,0,0,.83,1.25,3.07,3.07,0,0,0,1.73.45,2.48,2.48,0,0,0,1.76-.59,2.19,2.19,0,0,0,.63-1.67h0a2,2,0,0,0-.47-1.42,1.77,1.77,0,0,0-1.36-.5H22.44v-3h2.62a1.55,1.55,0,0,0,1.15-.41,1.58,1.58,0,0,0,.41-1.17V8a1.76,1.76,0,0,0-.52-1.37,2.17,2.17,0,0,0-1.5-.49,2.45,2.45,0,0,0-1.53.48A2.4,2.4,0,0,0,22.2,8H19.09a6.46,6.46,0,0,1,1-2.59A4.74,4.74,0,0,1,22,3.73a5.74,5.74,0,0,1,2.6-.56,7.35,7.35,0,0,1,2.88.5A3.8,3.8,0,0,1,29.3,5.12a4.07,4.07,0,0,1,.62,2.29V7.5a4.1,4.1,0,0,1-.6,2.24,3.54,3.54,0,0,1-1.71,1.4,3,3,0,0,1,1.91,1.33,4.68,4.68,0,0,1,.67,2.62h0a4.84,4.84,0,0,1-.65,2.56,4.18,4.18,0,0,1-1.91,1.62,7.44,7.44,0,0,1-3,.55A6.92,6.92,0,0,1,21.75,19.28Z" transform="translate(-3.14 -3.17)"/><path class="cls-1" d="M42.74,19.65V6.59l.27.29L36.84,19.65H33.17V3.33h2.94V16.59l-.27-.3L42,3.33h3.65V19.65Z" transform="translate(-3.14 -3.17)"/><path class="cls-1" d="M59.55,3.33H63.6V19.66H60.81V7l.11.71L57.8,17.84H55.08L52,7.93,52.07,7V19.66h-2.8V3.33h4.06l3.11,11Z" transform="translate(-3.14 -3.17)"/><path class="cls-1" d="M66.3,3.33h3.28L74.37,15l-1.93,2.72Zm8.7,13a8.21,8.21,0,0,1-1,2,3.65,3.65,0,0,1-1.31,1.18,3.74,3.74,0,0,1-1.78.4H69V16.9h1.22a2,2,0,0,0,.93-.21,2.09,2.09,0,0,0,.72-.65A4.11,4.11,0,0,0,72.44,15L76.61,3.33h3.17Z" transform="translate(-3.14 -3.17)"/><path class="cls-1" d="M80.56,3.33h12v3h-12ZM85,4.67h3.08v15H85Z" transform="translate(-3.14 -3.17)"/></g></g></svg>