<?xml version="1.0" encoding="utf-8"?>
<!-- Generator: Adobe Illustrator 24.0.2, SVG Export Plug-In . SVG Version: 6.00 Build 0)  -->
<svg version="1.1" id="Слой_1" xmlns="http://www.w3.org/2000/svg" xmlns:xlink="http://www.w3.org/1999/xlink" x="0px" y="0px"
	 viewBox="0 0 14.7 46" style="enable-background:new 0 0 14.7 46;" xml:space="preserve">
<style type="text/css">
	.st0{fill:#28468C;}
</style>
<path class="st0" d="M14.3,38c-0.4-0.4-1-0.4-1.4,0L10,40.9c-0.6,0.6-1.7,0.2-1.7-0.7V1c0-0.6-0.4-1-1-1h0c-0.6,0-1,0.4-1,1v39.2
	c0,0.9-1.1,1.3-1.7,0.7l-2.9-2.8c-0.4-0.4-1-0.4-1.4,0c-0.4,0.4-0.4,1,0,1.4l6.3,6.2c0.4,0.4,1,0.4,1.4,0l6.3-6.3
	C14.7,39,14.7,38.4,14.3,38z"/>
</svg>
