<?xml version="1.0" encoding="utf-8"?>
<!-- Generator: Adobe Illustrator 24.0.2, SVG Export Plug-In . SVG Version: 6.00 Build 0)  -->
<svg version="1.1" id="Слой_1" xmlns="http://www.w3.org/2000/svg" xmlns:xlink="http://www.w3.org/1999/xlink" x="0px" y="0px"
	 viewBox="0 0 33.8 33.8" style="enable-background:new 0 0 33.8 33.8;" xml:space="preserve">
<style type="text/css">
	.st0{fill:#516EBD;}
</style>
<path class="st0" d="M30.7,1.1h-8c-0.6,0-1,0.4-1,1c0,0.6,0.4,1,1,1h4.2c0.9,0,1.3,1.1,0.7,1.7L1.3,31.1c-0.4,0.4-0.4,1,0,1.4l0,0
	c0.4,0.4,1,0.4,1.4,0L29,6.2c0.6-0.6,1.7-0.2,1.7,0.7v4.2c0,0.6,0.4,1,1,1c0.6,0,1-0.4,1-1v-8C32.7,2,31.9,1.1,30.7,1.1z"/>
</svg>
