<svg width="247" height="278" viewBox="0 0 247 278" fill="none" xmlns="http://www.w3.org/2000/svg">
<path d="M210.385 272.048C210.746 272.41 211.332 272.41 211.694 272.048L217.584 266.158C217.946 265.796 217.946 265.21 217.584 264.849C217.223 264.487 216.637 264.487 216.275 264.849L211.039 270.085L205.803 264.849C205.441 264.487 204.855 264.487 204.494 264.849C204.132 265.21 204.132 265.796 204.494 266.158L210.385 272.048ZM210.113 219.559L210.113 271.394L211.965 271.394L211.965 219.559L210.113 219.559Z" fill="#28468C"/>
<path d="M43.045 237.777C40.3882 237.777 38.152 236.881 36.3365 235.087C34.5432 233.272 33.6465 231.036 33.6465 228.379C33.6465 225.7 34.5432 223.464 36.3365 221.67C38.152 219.877 40.3992 218.98 43.0782 218.98C45.2701 218.98 47.1741 219.6 48.7903 220.84C50.4066 222.08 51.4582 223.73 51.9453 225.789H48.2922C47.8272 224.77 47.1298 223.973 46.1999 223.397C45.2701 222.8 44.2184 222.501 43.045 222.501C42.0044 222.501 41.0524 222.755 40.1889 223.265C39.3254 223.774 38.6391 224.482 38.1299 225.39C37.6428 226.276 37.3992 227.272 37.3992 228.379C37.3992 230.039 37.9417 231.434 39.0265 232.563C40.1114 233.693 41.4509 234.257 43.045 234.257C44.2184 234.257 45.259 233.958 46.1667 233.36C47.0966 232.763 47.8051 231.91 48.2922 230.803H52.0117C51.5025 232.907 50.4287 234.6 48.7903 235.884C47.1741 237.146 45.259 237.777 43.045 237.777Z" fill="#28468C"/>
<path d="M71.2096 233.859H73.5343V241.862H70.1801V237.346H57.0952V241.862H53.741V233.859H55.634C56.1432 233.438 56.5307 232.796 56.7963 231.932C57.0842 231.069 57.3388 229.763 57.5602 228.014C57.7816 226.242 58.0694 223.375 58.4236 219.412H71.2096V233.859ZM61.6782 222.667C61.4347 226.276 61.1579 228.866 60.848 230.438C60.538 232.01 60.0841 233.15 59.4864 233.859H67.5897V222.667H61.6782Z" fill="#28468C"/>
<path d="M94.2056 228.412C94.2056 228.744 94.1834 229.154 94.1392 229.641H79.5931C79.8145 231.08 80.4123 232.22 81.3864 233.062C82.3827 233.903 83.6115 234.324 85.0728 234.324C85.7812 234.324 86.4455 234.224 87.0654 234.025C87.6853 233.803 88.2277 233.504 88.6927 233.128C89.1798 232.729 89.5783 232.253 89.8882 231.7H93.7738C93.0654 233.604 91.9362 235.098 90.3864 236.183C88.8366 237.246 87.0654 237.777 85.0728 237.777C82.4381 237.777 80.2351 236.881 78.4639 235.087C76.7149 233.294 75.8403 231.058 75.8403 228.379C75.8403 225.7 76.7149 223.464 78.4639 221.67C80.2351 219.877 82.4381 218.98 85.0728 218.98C86.8661 218.98 88.4602 219.412 89.855 220.276C91.2499 221.117 92.3237 222.257 93.0764 223.696C93.8292 225.113 94.2056 226.685 94.2056 228.412ZM85.0728 222.301C83.7001 222.301 82.5266 222.689 81.5525 223.464C80.6004 224.239 79.9695 225.301 79.6595 226.652H90.5192C90.2978 225.744 89.9325 224.969 89.4233 224.327C88.9141 223.663 88.2831 223.165 87.5303 222.833C86.7997 222.479 85.9805 222.301 85.0728 222.301Z" fill="#28468C"/>
<path d="M100.918 219.412H113.106V237.346H109.486V222.6H103.94L103.143 230.538C102.899 233.062 102.246 234.844 101.184 235.884C100.143 236.925 98.56 237.445 96.4345 237.445H95.8036V234.058H96.667C98.4161 234.058 99.4013 232.962 99.6227 230.77L100.918 219.412Z" fill="#28468C"/>
<path d="M133.368 219.412H136.224V237.346H133.235L132.87 235.154C131.143 236.903 128.984 237.777 126.394 237.777C123.715 237.777 121.479 236.881 119.686 235.087C117.914 233.294 117.029 231.058 117.029 228.379C117.029 225.678 117.914 223.442 119.686 221.67C121.479 219.877 123.715 218.98 126.394 218.98C129.029 218.98 131.21 219.866 132.936 221.637L133.368 219.412ZM122.442 232.597C123.571 233.704 124.977 234.257 126.66 234.257C128.365 234.257 129.759 233.704 130.844 232.597C131.951 231.468 132.505 230.062 132.505 228.379C132.505 226.674 131.951 225.268 130.844 224.161C129.759 223.054 128.365 222.501 126.66 222.501C125.553 222.501 124.545 222.755 123.638 223.265C122.752 223.774 122.055 224.482 121.545 225.39C121.036 226.276 120.782 227.272 120.782 228.379C120.782 230.062 121.335 231.468 122.442 232.597Z" fill="#28468C"/>
<path d="M153.437 219.412H157.057V237.346H153.437V229.84H145.134V237.346H141.481V219.412H145.134V226.453H153.437V219.412Z" fill="#28468C"/>
<path d="M177.413 235.121C175.597 236.892 173.317 237.777 170.572 237.777C167.826 237.777 165.535 236.892 163.697 235.121C161.882 233.327 160.974 231.08 160.974 228.379C160.974 226.608 161.384 225.003 162.203 223.563C163.044 222.124 164.195 221.006 165.657 220.209C167.14 219.39 168.778 218.98 170.572 218.98C172.365 218.98 173.992 219.39 175.454 220.209C176.937 221.006 178.088 222.124 178.907 223.563C179.749 225.003 180.169 226.608 180.169 228.379C180.169 231.08 179.251 233.327 177.413 235.121ZM170.572 234.257C171.701 234.257 172.708 234.014 173.594 233.527C174.479 233.017 175.166 232.32 175.653 231.434C176.162 230.527 176.417 229.508 176.417 228.379C176.417 226.674 175.863 225.268 174.756 224.161C173.671 223.054 172.276 222.501 170.572 222.501C168.867 222.501 167.461 223.054 166.354 224.161C165.269 225.268 164.727 226.674 164.727 228.379C164.727 230.084 165.269 231.49 166.354 232.597C167.461 233.704 168.867 234.257 170.572 234.257Z" fill="#28468C"/>
<path d="M57.2161 261.98C57.6368 262.158 58.0132 262.39 58.3453 262.678C58.6995 262.944 58.9984 263.265 59.242 263.641C59.4855 263.995 59.6737 264.394 59.8065 264.837C59.9394 265.279 60.0058 265.733 60.0058 266.198C60.0058 267.659 59.4744 268.888 58.4117 269.884C57.349 270.859 56.0206 271.346 54.4265 271.346H45.0612V253.412H54.2936C55.7992 253.412 57.0279 253.844 57.98 254.707C58.9541 255.549 59.4412 256.645 59.4412 257.995C59.4412 258.837 59.242 259.611 58.8434 260.32C58.4449 261.028 57.9025 261.582 57.2161 261.98ZM55.7881 258.593C55.7881 257.973 55.5778 257.475 55.1571 257.099C54.7586 256.722 54.2272 256.534 53.563 256.534H48.6811V260.652H53.563C54.2272 260.652 54.7586 260.464 55.1571 260.087C55.5778 259.711 55.7881 259.213 55.7881 258.593ZM53.7623 268.124C54.4929 268.124 55.0796 267.914 55.5224 267.493C55.9874 267.073 56.2198 266.541 56.2198 265.899C56.2198 265.235 55.9874 264.693 55.5224 264.272C55.0575 263.851 54.4597 263.641 53.7291 263.641H48.6811V268.124H53.7623Z" fill="#28468C"/>
<path d="M89.5678 262.412C89.5678 262.744 89.5457 263.154 89.5014 263.641H74.9553C75.1767 265.08 75.7745 266.22 76.7487 267.062C77.745 267.903 78.9738 268.324 80.435 268.324C81.1435 268.324 81.8077 268.224 82.4276 268.025C83.0475 267.803 83.59 267.504 84.0549 267.128C84.542 266.729 84.9405 266.253 85.2505 265.7H89.1361C88.4276 267.604 87.2985 269.098 85.7486 270.183C84.1988 271.246 82.4276 271.777 80.435 271.777C77.8003 271.777 75.5974 270.881 73.8262 269.087C72.0771 267.294 71.2026 265.058 71.2026 262.379C71.2026 259.7 72.0771 257.464 73.8262 255.67C75.5974 253.877 77.8003 252.98 80.435 252.98C82.2284 252.98 83.8224 253.412 85.2173 254.276C86.6121 255.117 87.6859 256.257 88.4387 257.696C89.1914 259.113 89.5678 260.685 89.5678 262.412ZM80.435 256.301C79.0623 256.301 77.8889 256.689 76.9147 257.464C75.9627 258.239 75.3317 259.301 75.0217 260.652H85.8815C85.6601 259.744 85.2948 258.969 84.7855 258.327C84.2763 257.663 83.6453 257.165 82.8926 256.833C82.1619 256.479 81.3428 256.301 80.435 256.301Z" fill="#28468C"/>
<path d="M109.945 271.346H105.661L100.015 262.279L94.3695 271.346H90.0854L97.6906 259.158L90.6168 248.099H94.9009L100.015 256.268L105.096 248.099H109.347L102.34 259.29L109.945 271.346Z" fill="#28468C"/>
<path d="M122.215 252.98C123.986 252.98 125.581 253.39 126.998 254.209C128.415 255.006 129.522 256.124 130.319 257.563C131.116 259.003 131.514 260.608 131.514 262.379C131.514 265.08 130.629 267.327 128.857 269.121C127.108 270.892 124.894 271.777 122.215 271.777C119.913 271.777 117.931 271.058 116.271 269.619V277.788H112.584V253.412H115.075L115.772 255.604C117.499 253.855 119.647 252.98 122.215 252.98ZM117.732 266.597C118.839 267.704 120.234 268.257 121.916 268.257C123.621 268.257 125.027 267.704 126.134 266.597C127.241 265.468 127.795 264.062 127.795 262.379C127.795 260.696 127.241 259.301 126.134 258.194C125.027 257.065 123.632 256.501 121.95 256.501C120.843 256.501 119.835 256.755 118.927 257.265C118.02 257.774 117.311 258.482 116.802 259.39C116.315 260.276 116.071 261.272 116.071 262.379C116.071 264.062 116.625 265.468 117.732 266.597Z" fill="#28468C"/>
<path d="M152.518 262.412C152.518 262.744 152.496 263.154 152.452 263.641H137.906C138.127 265.08 138.725 266.22 139.699 267.062C140.695 267.903 141.924 268.324 143.385 268.324C144.094 268.324 144.758 268.224 145.378 268.025C145.998 267.803 146.54 267.504 147.005 267.128C147.492 266.729 147.891 266.253 148.201 265.7H152.086C151.378 267.604 150.249 269.098 148.699 270.183C147.149 271.246 145.378 271.777 143.385 271.777C140.751 271.777 138.548 270.881 136.776 269.087C135.027 267.294 134.153 265.058 134.153 262.379C134.153 259.7 135.027 257.464 136.776 255.67C138.548 253.877 140.751 252.98 143.385 252.98C145.179 252.98 146.773 253.412 148.167 254.276C149.562 255.117 150.636 256.257 151.389 257.696C152.142 259.113 152.518 260.685 152.518 262.412ZM143.385 256.301C142.013 256.301 140.839 256.689 139.865 257.464C138.913 258.239 138.282 259.301 137.972 260.652H148.832C148.61 259.744 148.245 258.969 147.736 258.327C147.227 257.663 146.596 257.165 145.843 256.833C145.112 256.479 144.293 256.301 143.385 256.301Z" fill="#28468C"/>
<path d="M178.384 267.925H180.476V271.379H177.919C175.882 271.379 174.255 270.781 173.037 269.586C171.842 268.368 171.244 266.741 171.244 264.704V256.6H167.458V253.445H171.244V248.298H174.93V253.445H180.41V256.6H174.93V264.504C174.93 265.611 175.229 266.464 175.827 267.062C176.425 267.637 177.277 267.925 178.384 267.925ZM159.554 255.903C160.838 254.22 162.665 253.379 165.034 253.379H166.196V256.8H164.702C161.646 256.8 160.118 258.46 160.118 261.781V271.346H156.432V253.412H158.923L159.554 255.903Z" fill="#28468C"/>
<path d="M166.023 200.888C142.438 213.693 119.155 216.874 96.1728 210.431C73.1905 203.987 55.4931 189.335 43.0806 166.474C30.6682 143.613 28.0185 120.791 35.1316 98.0069C42.2448 75.223 57.5936 57.4284 81.178 44.6231C104.618 31.8964 127.829 28.7547 150.811 35.1981C173.938 41.563 191.708 56.1759 204.12 79.0368C216.533 101.898 219.11 124.76 211.852 147.622C204.739 170.406 189.463 188.161 166.023 200.888ZM101.802 193.885C120.398 199.151 139.173 196.638 158.128 186.347C177.082 176.055 189.415 161.678 195.127 143.214C200.839 124.751 198.628 106.186 188.494 87.5213C178.359 68.8564 163.994 56.8911 145.399 51.6256C126.803 46.3601 108.028 48.8731 89.0733 59.1644C70.1189 69.4558 57.7858 83.8333 52.0738 102.297C46.3618 120.76 48.5729 139.325 58.7071 157.99C68.8414 176.655 83.2064 188.62 101.802 193.885ZM145.165 162.473C133.735 168.679 122.031 170.069 110.054 166.643C98.1433 162.993 89.1633 155.598 83.1142 144.457C76.8294 132.882 75.4787 121.25 79.0621 109.563C82.567 97.7304 90.107 88.6719 101.682 82.3871C110.942 77.3593 120.426 75.676 130.133 77.3371C139.762 78.8537 148.057 83.4357 155.02 91.0834L139.176 99.6857C136.303 97.499 133.231 95.982 129.961 95.1347C126.691 94.2875 123.406 94.1037 120.107 94.5836C116.729 94.9187 113.377 95.9897 110.049 97.7966C106.576 99.682 103.674 102.101 101.343 105.053C99.1561 107.926 97.5667 111.037 96.5748 114.386C95.5829 117.735 95.2607 121.282 95.6082 125.027C96.1005 128.694 97.2893 132.264 99.1747 135.737C102.946 142.682 108.403 147.212 115.547 149.328C122.691 151.445 129.736 150.617 136.681 146.846C146.809 141.347 151.457 132.828 150.625 121.29L166.903 112.452C169.525 122.456 168.856 132.093 164.896 141.362C161.002 150.408 154.425 157.445 145.165 162.473Z" fill="#E4DDED" fill-opacity="0.29"/>
<path d="M199.457 181.469L193.45 107.036V29.2324H229.494V107.036L223.487 181.469H199.457ZM191.984 239.346V198.173H230.959V239.346H191.984Z" fill="#5C3892" fill-opacity="0.17"/>
</svg>
