<svg width="247" height="247" viewBox="0 0 247 247" fill="none" xmlns="http://www.w3.org/2000/svg">
<g style="mix-blend-mode:darken" clip-path="url(#clip0_859_1539)">
<path d="M190.424 74.7622L136.913 103.215C132.48 105.572 130.797 111.076 133.155 115.509L172.988 190.425C175.345 194.858 180.849 196.54 185.282 194.183L238.793 165.731C243.226 163.374 244.909 157.87 242.552 153.437L202.719 78.5211C200.362 74.088 194.857 72.4051 190.424 74.7622ZM206.517 176.029L182.437 188.832C180.96 189.618 179.125 189.057 178.339 187.579L168.381 168.85L195.136 154.624L206.517 176.029ZM192.291 149.273L165.535 163.499L154.154 142.095L180.91 127.869L192.291 149.273ZM237.201 156.282C237.987 157.759 237.426 159.594 235.948 160.38L211.868 173.183L200.487 151.779L227.243 137.553L237.201 156.282ZM224.398 132.202L197.642 146.428L186.261 125.024L213.017 110.797L224.398 132.202ZM210.171 105.446L151.309 136.744L138.506 112.664C137.72 111.186 138.281 109.351 139.759 108.566L193.27 80.1133C194.747 79.3277 196.582 79.8887 197.368 81.3663L210.171 105.446Z" fill="#3B4692" fill-opacity="0.37"/>
<path d="M190.764 88.3097L147.955 111.072C146.477 111.857 145.916 113.692 146.702 115.17L152.392 125.872C153.178 127.349 155.013 127.91 156.491 127.125L199.299 104.363C200.777 103.577 201.338 101.742 200.552 100.265L194.862 89.5626C194.076 88.085 192.241 87.524 190.764 88.3097ZM193.779 100.434L156.321 120.351L153.476 115L190.933 95.0834L193.779 100.434Z" fill="#3B4692" fill-opacity="0.37"/>
<path d="M174.475 141.586L171.63 136.235L166.279 139.081L169.124 144.432L163.773 147.277L166.618 152.628L171.969 149.783L174.815 155.134L180.166 152.289L177.32 146.938L182.672 144.092L179.826 138.741L174.475 141.586Z" fill="#3B4692" fill-opacity="0.37"/>
<path d="M211.932 121.669L195.879 130.205L198.724 135.556L214.777 127.02L211.932 121.669Z" fill="#3B4692" fill-opacity="0.37"/>
<path d="M193.176 164.958L187.381 163.186L185.609 168.981L179.814 167.209L178.043 173.004L183.838 174.776L182.066 180.57L187.861 182.342L189.632 176.547L195.427 178.319L197.199 172.524L191.404 170.752L193.176 164.958Z" fill="#3B4692" fill-opacity="0.37"/>
<path d="M226.159 148.425L210.105 156.961L212.951 162.312L229.004 153.776L226.159 148.425Z" fill="#3B4692" fill-opacity="0.37"/>
<path d="M224.365 157.959L219.014 160.805L220.436 163.48L225.787 160.635L224.365 157.959Z" fill="#3B4692" fill-opacity="0.37"/>
<path d="M218.673 147.256L213.322 150.102L214.745 152.777L220.096 149.932L218.673 147.256Z" fill="#3B4692" fill-opacity="0.37"/>
<path d="M107.952 29.3825L30.3608 70.6383L30.3736 70.6624C29.6628 71.0296 29.1273 71.6653 28.886 72.4281L16.3566 113.41C16.1293 114.177 16.2178 115.003 16.6025 115.705L16.5785 115.718L83.4414 241.469C85.0129 244.425 88.6823 245.546 91.6378 243.975L171.904 201.297L169.059 195.945L153.006 204.481L148.738 196.454L154.089 193.609C155.567 192.824 156.128 190.989 155.342 189.511L148.229 176.133C147.443 174.656 145.608 174.095 144.131 174.88L138.78 177.726L134.512 169.699L139.863 166.854C141.34 166.068 141.901 164.233 141.116 162.756L134.003 149.378C133.217 147.9 131.382 147.339 129.905 148.125L129.835 148.162C133.929 139.529 133.703 129.47 129.226 121.03C121.398 106.238 103.06 100.593 88.2688 108.421C73.4771 116.249 67.8315 134.587 75.6595 149.378C80.1469 157.857 88.3841 163.711 97.8675 165.159L76.3935 176.577C74.9159 177.363 74.3549 179.198 75.1406 180.675L80.8311 191.378L75.4799 194.223C74.0024 195.008 73.4414 196.843 74.227 198.321L81.3401 211.699C82.1257 213.176 83.9607 213.737 85.4383 212.952L90.7894 210.106L95.0572 218.133L89.7061 220.978C88.2285 221.764 87.6675 223.599 88.4532 225.076L94.1436 235.779L88.7925 238.624L23.3522 115.548L44.7566 104.168C47.7121 102.596 48.8339 98.9267 47.2625 95.9712L35.8815 74.5668L110.797 34.7336L142.095 93.5957L147.446 90.7505L116.148 31.8883C114.577 28.9328 110.907 27.811 107.952 29.3825ZM144.3 181.654L148.568 189.681L100.408 215.288L96.1405 207.261L144.3 181.654ZM81.0659 146.637C74.7804 134.816 79.2681 120.137 91.0894 113.852C102.911 107.566 117.589 112.054 123.875 123.875C130.16 135.696 125.673 150.375 113.851 156.661C102.028 162.93 87.3619 158.446 81.0659 146.637ZM81.9143 180.506L130.074 154.899L134.342 162.925L86.1822 188.532L81.9143 180.506ZM85.2686 206.178L81.0007 198.151L129.161 172.544L133.429 180.571L90.6197 203.333L85.2686 206.178ZM95.2269 224.907L143.387 199.3L147.655 207.326L99.4947 232.933L95.2269 224.907ZM41.9114 98.8165L24.2902 108.186L32.542 81.1953L41.9114 98.8165Z" fill="#3B4692" fill-opacity="0.37"/>
<path d="M98.2027 127.23L106.229 122.962L103.384 117.611L98.033 120.456L96.6104 117.78L91.2593 120.625L92.9437 123.793C89.5534 127.481 89.7942 133.218 93.4818 136.608C96.3186 139.217 100.494 139.748 103.893 137.932C105.371 137.146 107.206 137.707 107.991 139.185C108.777 140.662 108.216 142.497 106.738 143.283L98.7118 147.551L101.557 152.902L106.908 150.057L108.331 152.732L113.682 149.887L111.997 146.719C115.388 143.032 115.147 137.294 111.459 133.904C108.623 131.296 104.447 130.765 101.048 132.581C99.5704 133.366 97.7354 132.805 96.9498 131.328C96.1641 129.85 96.7251 128.015 98.2027 127.23Z" fill="#3B4692" fill-opacity="0.37"/>
<path d="M157.874 19.9978L152.523 22.843C151.737 21.3654 149.902 20.8044 148.425 21.5901L145.749 23.0127L141.481 14.986C140.696 13.5085 138.861 12.9475 137.383 13.7331L126.681 19.4236C125.203 20.2092 124.642 22.0442 125.428 23.5217L129.696 31.5484L127.02 32.971C125.543 33.7566 124.982 35.5916 125.767 37.0692L152.797 87.9047L158.148 85.0594L132.541 36.8995L148.594 28.3638L174.202 76.5237L179.553 73.6785L155.368 28.1941L160.719 25.3489L179.213 60.1311L184.564 57.2858L166.07 22.5036C164.499 19.5482 160.829 18.4263 157.874 19.9978ZM140.398 25.8579L135.047 28.7031L132.202 23.352L137.553 20.5068L140.398 25.8579Z" fill="#3B4692" fill-opacity="0.37"/>
<path d="M97.9277 62.1671L52.4434 86.3516L55.2886 91.7027L100.773 67.5182L97.9277 62.1671Z" fill="#3B4692" fill-opacity="0.37"/>
<path d="M122.518 69.6857L31.5488 118.055L34.3941 123.406L125.363 75.0368L122.518 69.6857Z" fill="#3B4692" fill-opacity="0.37"/>
<path d="M69.3449 111.684L37.2383 128.756L40.0835 134.107L72.1901 117.036L69.3449 111.684Z" fill="#3B4692" fill-opacity="0.37"/>
<path d="M128.207 80.3879L104.127 93.1914L106.972 98.5425L131.052 85.739L128.207 80.3879Z" fill="#3B4692" fill-opacity="0.37"/>
</g>
<defs>
<clipPath id="clip0_859_1539">
<rect width="181.815" height="181.815" fill="white" transform="translate(0.929688 86.2871) rotate(-28)"/>
</clipPath>
</defs>
</svg>
