<?xml version="1.0" encoding="utf-8"?>
<!-- Generator: Adobe Illustrator 24.0.2, SVG Export Plug-In . SVG Version: 6.00 Build 0)  -->
<svg version="1.1" id="Слой_1" xmlns="http://www.w3.org/2000/svg" xmlns:xlink="http://www.w3.org/1999/xlink" x="0px" y="0px"
	 viewBox="0 0 193 62.6" style="enable-background:new 0 0 193 62.6;" xml:space="preserve">
<style type="text/css">
	.st0{fill-rule:evenodd;clip-rule:evenodd;fill:#FFFFFF;}
</style>
<path class="st0" d="M129.9,62.6c-0.1,0-0.3,0-0.5-0.1c0-0.1,0-0.2,0-0.5v-28c0-0.2,0-0.3,0-0.3c0.1-0.1,0.2-0.1,0.4-0.1h28.3
	c0.2,0,0.4,0,0.5,0.1c0,0.1,0,0.2,0,0.5c0,0.5,0,0.9,0,1.4c0,1,0,2,0,3l0,4.6c0,1.8-0.5,3.4-1.5,4.6l-0.1,0.1l0,0.1
	c-0.2,0.5-0.1,0.9,0.1,1.5l0,0.1l0,0c1.1,1.6,1.6,3.6,1.6,5.8c-0.1,2-0.1,4.2,0,6.6c0,0.4-0.1,0.4-0.2,0.4c0,0-0.1,0-0.1,0
	c-0.3,0-0.6,0-0.9,0c-0.3,0-0.5,0-0.8,0c-0.3,0-0.6,0-0.9,0c-0.1,0-0.3,0-0.4,0c-0.6,0-1.3,0-1.9,0.1c-0.2,0-0.3-0.1-0.5-0.1
	c-0.1-0.1-0.1-0.3-0.1-0.4v-6.6c0-1.3-0.4-2.5-1.3-3.3c-0.8-0.8-2-1.3-3.3-1.3h-11.4c-0.6,0-1,0.1-1.4,0.3l-0.1,0l-0.1,0.1
	c-0.3,0.3-0.4,0.7-0.4,1.5v9.4c0,0.2,0,0.4-0.1,0.5c0,0,0,0,0,0c0,0-0.2,0-0.5,0c-0.9,0-1.8-0.1-2.6-0.1
	C131.3,62.6,130.5,62.6,129.9,62.6z M137,39c-1,0-1.6,0.5-1.6,1.5v3c0,0.9,0.5,1.5,1.5,1.5h14.3c1.2,0,2-0.8,2-2.1v-2.2
	c0.1-0.5-0.1-0.9-0.3-1.1c-0.2-0.2-0.6-0.5-1.4-0.5H137z M63.1,62.4c-0.2,0-0.4,0-0.5-0.1c0-0.1,0-0.3,0-0.4V34c0-0.3,0-0.5,0-0.6
	c0.1,0,28.5,0,28.5,0c0.3,0,0.5,0.1,0.5,0.1l0.1,0.1c0,0.1,0,0.3,0,0.5c-0.1,4.9-0.1,10.4,0,16.3c0,0.2,0,0.4-0.1,0.5
	c-0.1,0-0.2,0-0.4,0h-21c-1.2,0-1.5,0.3-1.6,0.4c-0.3,0.3-0.4,1.1-0.4,1.7v9c0,0.2,0,0.4-0.1,0.5c-0.1,0-0.2,0-0.4,0
	c-0.8-0.1-1.6-0.1-2.4-0.1C64.6,62.4,63.8,62.4,63.1,62.4z M69.8,38.9c-1,0-1.6,0.6-1.6,1.6c0.1,0.9,0.1,1.9,0,2.9
	c0,0.7,0.3,1.5,1.5,1.5h14.7c1,0,1.6-0.6,1.6-1.6c0-0.2,0-0.4,0-0.5c0-0.3,0-0.5,0-0.7l0-0.1v-1.5c0.1-0.5-0.1-0.9-0.3-1.1
	c-0.2-0.2-0.6-0.5-1.4-0.5H69.8z M96.5,62.4c-0.2,0-0.4,0-0.5-0.1c0-0.1,0-0.3,0-0.4V34c0-0.2,0-0.4,0.1-0.5c0.1,0,0.3,0,0.4,0h28.1
	c0.2,0,0.4,0,0.5,0.1c0.1,0.1,0.1,0.3,0.1,0.4v4.6c0,0.3,0,0.5-0.1,0.6c-0.1,0-0.3,0.1-0.7,0.1H103c-0.6,0-1.3,0.2-1.3,1.4v3
	c0,1,0.6,1.6,1.6,1.6h21.3c0.4,0,0.6,0,0.7,0.1c0,0.1,0,0.3,0,0.7v4.5c0,0.2,0,0.4-0.1,0.5c-0.1,0-0.3,0-0.5,0h-20
	c-1.7,0-2.2,0.2-2.4,0.5c-0.3,0.3-0.5,1-0.5,2.3c0,1.8,0.2,2.3,0.5,2.6c0.3,0.3,0.8,0.5,2.6,0.5h19.4c0.4,0,0.6-0.1,0.8-0.1
	c0.1,0,0.1,0,0.2,0c0,0.1,0.1,0.4,0.1,0.8v4.4c0,0.2,0,0.4-0.1,0.5c0,0,0,0,0,0c0,0-0.2,0-0.5,0H96.5z M58,62.4
	c-5.2,0-10.6,0-16-0.1l-0.2-22.8L20.7,62.2h-6.3l27.6-29.4l-0.2-29h-4l0.2,28.4l-29.1,30l-4.4-0.1l30.3-31.5l0.1-30.1l15.1,0.1v23.5
	L71.6,0.8H78L49.8,31v28.3H55l0.1-27.6L83.9,0.8h3.7L58.1,32.7l0,0.2C58,42.7,58,52.7,58,62.4z M175.2,62.2c-0.4,0-0.4-0.1-0.4-0.3
	V40.6c0-1-0.6-1.7-1.6-1.7h-9.5c-0.3,0-0.5,0-0.7-0.1c0-0.1-0.1-0.3-0.1-0.7v-4.3c0-0.3,0-0.5,0.1-0.7c0.1,0,0.3-0.1,0.7-0.1h28
	c0.3,0,0.5,0,0.6,0c0,0.1,0,0.3,0,0.6l0.1,2.5l0,2.3c0,0.4-0.1,0.5-0.5,0.5c-0.7,0-1.9,0-3.4-0.1l-6.1,0c-0.4,0-0.7,0-0.9,0.1
	c-0.1,0-0.1,0-0.2,0h-0.2l-0.2,0.2c-0.3,0.3-0.4,0.7-0.4,1.5v20.6c0,0.4,0,0.6-0.1,0.8c-0.1,0-0.4,0.1-0.8,0.1H175.2z M1.2,29.5
	c-0.2,0-0.4,0-0.5-0.1c-0.1-0.1-0.1-0.3-0.1-0.4c0.1-9.1,0.1-18.2,0.1-27.9c0-0.2,0-0.3,0.1-0.5c0.1,0,0.3-0.1,0.5-0.1
	c3,0,6,0,9.1,0c3,0,6.1,0,9.2,0c3.2,0,6.5,0,9.8,0c0.2,0,0.4,0,0.5,0.1c0,0.1,0,0.3,0,0.4v4.7c0,0.3,0,0.4,0,0.5c-0.2,0-0.4,0-0.7,0
	H7.6c-0.5,0-1.2,0.4-1.2,1.4v3c-0.1,0.3,0,0.7,0.3,1C7,12.1,7.5,12.3,8,12.3h21.3c0.3,0,0.5,0,0.6,0c0,0.1,0.1,0.4,0.1,0.7v4.4
	c0,0.2,0,0.4-0.1,0.5c-0.1,0-0.3,0-0.4,0H9.2c-1.7,0-2.2,0.2-2.4,0.5c-0.3,0.3-0.5,1-0.5,2.3c0,1.4,0.1,2.2,0.4,2.6l0,0l0,0
	c0.3,0.3,0.8,0.5,2.6,0.5h19.4c0.7,0,1,0.1,1.1,0.1c0,0.1,0.1,0.4,0.1,0.8V29c0,0.2,0,0.3-0.1,0.4c-0.1,0-0.2,0.1-0.4,0.1H1.2z"/>
</svg>
