<svg width="1286" height="382" viewBox="0 0 1286 382" fill="none" xmlns="http://www.w3.org/2000/svg">
<path d="M1285.5 343.999H1175L1120.06 379.998H985.572L706.903 197.65H660.862L616.639 229.152H522.739L338.576 106.174H183.491L28.2341 1.9043M1285.5 281.499H1237.5L1209 262.499H1163L1120.06 290.945C1085.99 290.945 1032.82 290.945 1032.82 290.945L917.116 369.094H869.864L752.338 290.945H594.83L354.933 132.223H245.888L51.8596 1.9043M1285.5 242.999H1204L1175 223.7H1107.34H943.771L903.183 252.173H855.93L691.152 144.339H420.965L214.138 1.9991M1285.5 187.958H1190L1152.5 212.796H1107.34H824.428L570.598 41.9581H478.516L408.243 89.211H131.392L1 1.9043M1285.5 229.499H1204L1140.5 187.958H1120.06H814.13L582.108 32.871H467.006L417.915 1.9991M1285.5 178.87H1107.34H1005.56L985.572 165.543H940.742L920.751 178.87H824.428L556.781 1.9991M1285.5 70.4991L1231.5 106.174H1175L1107.34 150.398H1055.24L985.572 106.174H848.66L752.338 41.9581H706.903L616.639 106.174H478.516L326.835 1.9991M903.183 2.4991L1040.5 91.4991L1097.5 53.9991H1140.5L1196.5 91.4991H1222L1285.5 49.4991M1285.5 14.4991H1173L1152.5 27.4187H1107.34H1009.8L869.864 120.107H779.599L603.879 1.9991M233.131 1.9991L338.576 72.8542H385.828L491.273 1.9991M716.226 1.9991L834.121 78.9123H903.183L1019.63 2.54504M737.974 1.9991L769.301 22.5723H877.739L903.183 41.9581H943.771L1002.5 2.54504" stroke="#8283B7" stroke-opacity="0.05" stroke-width="2.41972"/>
</svg>
