<svg width="1437" height="358" viewBox="0 0 1437 358" fill="none" xmlns="http://www.w3.org/2000/svg">
<path d="M959 357L849.641 283.505H784.785L672.063 356.979M946.5 357L887.758 318.179H849.641L825.746 336.368H723.912L692.5 356.979M1437.5 96.5H1187L1041.36 0.999969H927.013L665.314 172.095H622.077L580.546 142.537H492.365L319.416 257.926H173.775L26.1573 356.979M1437.5 51H1209.5L1118.5 111.5H1094L1053.31 84.5579C1021.32 84.5579 971.388 84.5579 971.388 84.5579L862.726 11.2315H818.351L707.982 84.5579H560.065L334.777 233.484H232.373L48.3443 356.979M1437.5 181.189H1094L1041.36 216.432H992.437L927.013 257.926H798.439L707.982 318.179H665.314L580.546 257.926H450.835L306.485 356.979M1437.5 216.5L1303 126.5H1187L1152 147.653H1041.36H887.758L849.641 120.937H805.266L650.522 222.116H396.788L200.654 356.979M1437.5 111.5H1247L1176 157.884H1041.36H775.682L537.309 318.179H450.835L384.841 273.842H124.849L0.576172 356.979M1437.5 273.842H1374L1312.5 233.484H1132L1053.31 181.189H766.011L548.118 326.705H440.025L391.843 356.979M1437.5 207H1284L1194.5 265H1156.5L1041.36 189.716H945.786L927.013 202.221H884.913L866.139 189.716H775.682L522.354 356.979M1437.5 238.5H1357L1273 294H1101L1041.36 331.821H949.769L818.351 244.853H733.583L566.617 356.979M1085 357L1129.5 327.5H1291L1336 357M1175.5 357L1197.5 342.5H1288.5L1344.5 305.5H1388.5L1437.5 338.5M464.762 356.979L363.791 289.189H319.416L218.445 356.979" stroke="#8283B7" stroke-opacity="0.05" stroke-width="2"/>
</svg>
